G75*
%MOIN*%
%OFA0B0*%
%FSLAX25Y25*%
%IPPOS*%
%LPD*%
%AMOC8*
5,1,8,0,0,1.08239X$1,22.5*
%
%ADD10R,0.11811X0.19685*%
%ADD11R,0.09000X0.03600*%
%ADD12OC8,0.06200*%
%ADD13C,0.06000*%
%ADD14C,0.06600*%
%ADD15R,0.07300X0.05600*%
%ADD16R,0.07200X0.00600*%
%ADD17C,0.06150*%
%ADD18R,0.06906X0.06118*%
%ADD19C,0.07600*%
%ADD20C,0.06200*%
%ADD21C,0.05750*%
%ADD22C,0.08087*%
D10*
X0122124Y0074031D03*
X0122124Y0138992D03*
D11*
X0110024Y0136492D03*
X0110024Y0141492D03*
X0110024Y0146492D03*
X0110024Y0131492D03*
X0134224Y0131492D03*
X0134224Y0136492D03*
X0134224Y0141492D03*
X0134224Y0146492D03*
X0134224Y0081531D03*
X0134224Y0076531D03*
X0134224Y0071531D03*
X0134224Y0066531D03*
X0110024Y0066531D03*
X0110024Y0071531D03*
X0110024Y0076531D03*
X0110024Y0081531D03*
D12*
X0107124Y0101591D03*
X0137124Y0101591D03*
X0144526Y0113402D03*
X0174526Y0113402D03*
X0185864Y0113402D03*
X0215864Y0113402D03*
X0180431Y0164583D03*
X0150431Y0164583D03*
X0144526Y0048441D03*
X0174526Y0048441D03*
X0185864Y0048441D03*
X0215864Y0048441D03*
D13*
X0045353Y0069110D03*
X0045353Y0078953D03*
X0072912Y0078953D03*
X0072912Y0069110D03*
X0021731Y0098638D03*
X0021731Y0112417D03*
X0045353Y0134071D03*
X0045353Y0143913D03*
X0072912Y0143913D03*
X0072912Y0134071D03*
X0177242Y0078953D03*
X0177242Y0069110D03*
X0208738Y0067142D03*
X0208738Y0080921D03*
X0208738Y0031709D03*
X0208738Y0017929D03*
X0208738Y0134071D03*
X0208738Y0143913D03*
X0181179Y0143913D03*
X0181179Y0134071D03*
D14*
X0235466Y0138992D02*
X0241066Y0138992D01*
X0241066Y0128992D02*
X0235466Y0128992D01*
X0235466Y0148992D02*
X0241066Y0148992D01*
X0241066Y0084031D02*
X0235466Y0084031D01*
X0235466Y0074031D02*
X0241066Y0074031D01*
X0241066Y0064031D02*
X0235466Y0064031D01*
X0235466Y0034819D02*
X0241066Y0034819D01*
X0241066Y0024819D02*
X0235466Y0024819D01*
X0235466Y0014819D02*
X0241066Y0014819D01*
X0022562Y0138835D02*
X0016962Y0138835D01*
X0016962Y0148835D02*
X0022562Y0148835D01*
X0022562Y0158835D02*
X0016962Y0158835D01*
D15*
X0045353Y0110496D03*
X0045353Y0104496D03*
D16*
X0045353Y0107496D03*
D17*
X0138620Y0018913D03*
X0148620Y0018913D03*
X0158620Y0018913D03*
X0168620Y0018913D03*
D18*
X0185116Y0021079D03*
X0185116Y0028559D03*
X0157557Y0070291D03*
X0157557Y0077772D03*
X0090628Y0077772D03*
X0090628Y0070291D03*
X0145746Y0127378D03*
X0145746Y0134858D03*
X0161494Y0135252D03*
X0161494Y0142732D03*
D19*
X0199218Y0164583D02*
X0205818Y0164583D01*
X0239218Y0164583D02*
X0245818Y0164583D01*
X0210385Y0095685D02*
X0203785Y0095685D01*
X0170385Y0095685D02*
X0163785Y0095685D01*
D20*
X0085038Y0163951D02*
X0085038Y0169151D01*
X0045038Y0169151D02*
X0045038Y0163951D01*
D21*
X0122124Y0101591D03*
X0165431Y0164583D03*
D22*
X0155589Y0095685D03*
M02*
