%
M48
M72
T01C0.0236
T02C0.0276
T03C0.0315
T04C0.0320
T05C0.0360
T06C0.0440
T07C0.0472
%
T01
X9457Y5041
X11031Y5435
X11622Y5435
X12212Y5435
X12803Y5435
X13394Y5435
X13394Y6025
X12803Y6025
X12212Y6025
X11622Y6025
X11031Y6025
X11819Y6616
X12606Y6616
X12606Y7403
X11819Y7403
X11819Y8191
X11622Y8781
X12212Y8781
X12803Y8781
X13394Y8781
X13394Y9372
X12803Y9372
X12212Y9372
X11622Y9372
X11031Y9372
X11031Y8781
X12606Y8191
X14181Y7206
X14181Y6616
X14771Y6616
X7685Y9569
X7685Y11931
X11031Y11931
X11031Y12521
X11622Y12521
X12212Y12521
X12803Y12521
X12803Y11931
X12212Y11931
X11622Y11931
X11819Y13112
X12606Y13112
X12606Y13899
X11819Y13899
X11819Y14687
X11622Y15277
X12212Y15277
X12803Y15277
X13394Y15277
X13394Y15868
X12803Y15868
X12212Y15868
X11622Y15868
X11031Y15868
X11031Y15277
X12606Y14687
X15362Y14293
X15362Y13702
X13394Y12521
X13394Y11931
X13394Y17049
X12803Y17049
X9850Y17246
X992Y17246
X992Y12915
X992Y7994
X13000Y907
X23827Y5041
X24811Y907
X23827Y10750
X24811Y17246
T02
X20874Y14391
X20874Y13407
X18118Y13407
X18118Y14391
X20874Y8092
X20874Y6714
X17724Y6911
X17724Y7895
X20874Y3171
X20874Y1793
X7291Y6911
X7291Y7895
X4535Y7895
X4535Y6911
X2173Y9864
X2173Y11242
X4535Y13407
X4535Y14391
X7291Y14391
X7291Y13407
T03
X12212Y10159
X16543Y16458
X16862Y1891
X15862Y1891
X14862Y1891
X13862Y1891
T04
X14453Y4844
X17453Y4844
X18586Y4844
X21586Y4844
X13712Y10159
X14453Y11340
X17453Y11340
X18586Y11340
X21586Y11340
X18043Y16458
X15043Y16458
X8504Y16655
X4504Y16655
X10712Y10159
T05
X1976Y13883
X1976Y14883
X1976Y15883
X23827Y14899
X23827Y13899
X23827Y12899
X23827Y8403
X23827Y7403
X23827Y6403
X23827Y3482
X23827Y2482
X23827Y1482
T06
X20708Y9569
X16708Y9569
X20252Y16458
X24252Y16458
T07
X15559Y9569
M30
