G75*
%MOIN*%
%OFA0B0*%
%FSLAX25Y25*%
%IPPOS*%
%LPD*%
%AMOC8*
5,1,8,0,0,1.08239X$1,22.5*
%
%ADD10OC8,0.05200*%
%ADD11C,0.05000*%
%ADD12C,0.05600*%
%ADD13C,0.05150*%
%ADD14C,0.06600*%
%ADD15C,0.05200*%
%ADD16C,0.03937*%
%ADD17C,0.00394*%
%ADD18R,0.03962X0.03962*%
%ADD19C,0.04724*%
%ADD20C,0.03962*%
%ADD21C,0.04750*%
%ADD22C,0.07087*%
D10*
X0107124Y0101591D03*
X0137124Y0101591D03*
X0144526Y0113402D03*
X0174526Y0113402D03*
X0185864Y0113402D03*
X0215864Y0113402D03*
X0180431Y0164583D03*
X0150431Y0164583D03*
X0144526Y0048441D03*
X0174526Y0048441D03*
X0185864Y0048441D03*
X0215864Y0048441D03*
D11*
X0208738Y0031709D03*
X0208738Y0017929D03*
X0208738Y0067142D03*
X0208738Y0080921D03*
X0177242Y0078953D03*
X0177242Y0069110D03*
X0181179Y0134071D03*
X0181179Y0143913D03*
X0208738Y0143913D03*
X0208738Y0134071D03*
X0072912Y0134071D03*
X0072912Y0143913D03*
X0045353Y0143913D03*
X0045353Y0134071D03*
X0021731Y0112417D03*
X0021731Y0098638D03*
X0045353Y0078953D03*
X0045353Y0069110D03*
X0072912Y0069110D03*
X0072912Y0078953D03*
D12*
X0022562Y0138835D02*
X0016962Y0138835D01*
X0016962Y0148835D02*
X0022562Y0148835D01*
X0022562Y0158835D02*
X0016962Y0158835D01*
X0235466Y0148992D02*
X0241066Y0148992D01*
X0241066Y0138992D02*
X0235466Y0138992D01*
X0235466Y0128992D02*
X0241066Y0128992D01*
X0241066Y0084031D02*
X0235466Y0084031D01*
X0235466Y0074031D02*
X0241066Y0074031D01*
X0241066Y0064031D02*
X0235466Y0064031D01*
X0235466Y0034819D02*
X0241066Y0034819D01*
X0241066Y0024819D02*
X0235466Y0024819D01*
X0235466Y0014819D02*
X0241066Y0014819D01*
D13*
X0168620Y0018913D03*
X0158620Y0018913D03*
X0148620Y0018913D03*
X0138620Y0018913D03*
D14*
X0163785Y0095685D02*
X0170385Y0095685D01*
X0203785Y0095685D02*
X0210385Y0095685D01*
X0205818Y0164583D02*
X0199218Y0164583D01*
X0239218Y0164583D02*
X0245818Y0164583D01*
D15*
X0085038Y0163951D02*
X0085038Y0169151D01*
X0045038Y0169151D02*
X0045038Y0163951D01*
D16*
X0141809Y0072063D02*
X0147715Y0072063D01*
X0147715Y0066157D02*
X0141809Y0066157D01*
X0159526Y0040567D02*
X0215864Y0040567D01*
X0215864Y0048441D01*
X0215864Y0073795D01*
X0208738Y0080921D01*
X0215864Y0113402D02*
X0215864Y0139740D01*
X0211691Y0143913D01*
X0208738Y0143913D01*
X0072912Y0069110D02*
X0072912Y0068126D01*
X0148620Y0029661D02*
X0148620Y0018913D01*
X0148620Y0029661D02*
X0159526Y0040567D01*
D17*
X0006439Y0042992D02*
X0006439Y0175937D01*
X0251589Y0175937D01*
X0251589Y0005591D01*
X0126518Y0005591D01*
X0126518Y0037504D01*
X0125849Y0039119D01*
X0122645Y0042323D01*
X0121030Y0042992D01*
X0006439Y0042992D01*
X0006439Y0043000D02*
X0157765Y0043000D01*
X0157846Y0043081D02*
X0157012Y0042247D01*
X0146106Y0031341D01*
X0145655Y0030251D01*
X0145655Y0020999D01*
X0145592Y0020937D01*
X0145049Y0019624D01*
X0145049Y0018203D01*
X0145592Y0016890D01*
X0146597Y0015885D01*
X0147910Y0015342D01*
X0149331Y0015342D01*
X0150643Y0015885D01*
X0151648Y0016890D01*
X0152192Y0018203D01*
X0152192Y0019624D01*
X0151648Y0020937D01*
X0151586Y0020999D01*
X0151586Y0028433D01*
X0160754Y0037602D01*
X0216454Y0037602D01*
X0217544Y0038053D01*
X0218378Y0038887D01*
X0218830Y0039977D01*
X0218830Y0046320D01*
X0219461Y0046951D01*
X0219461Y0049931D01*
X0218830Y0050562D01*
X0218830Y0074385D01*
X0218378Y0075475D01*
X0213210Y0080643D01*
X0213240Y0080672D01*
X0233654Y0080672D01*
X0234711Y0080235D01*
X0241821Y0080235D01*
X0243217Y0080813D01*
X0244285Y0081881D01*
X0244863Y0083276D01*
X0244863Y0084787D01*
X0244285Y0086182D01*
X0243217Y0087250D01*
X0241821Y0087828D01*
X0234711Y0087828D01*
X0233654Y0087391D01*
X0211180Y0087391D01*
X0209946Y0086879D01*
X0207090Y0084024D01*
X0206758Y0083886D01*
X0205774Y0082902D01*
X0205242Y0081617D01*
X0205242Y0080226D01*
X0205774Y0078940D01*
X0206758Y0077957D01*
X0208041Y0077425D01*
X0212899Y0072567D01*
X0212899Y0050562D01*
X0212268Y0049931D01*
X0212268Y0046951D01*
X0212899Y0046320D01*
X0212899Y0043532D01*
X0158936Y0043532D01*
X0157846Y0043081D01*
X0157373Y0042608D02*
X0121958Y0042608D01*
X0122752Y0042215D02*
X0156981Y0042215D01*
X0156588Y0041823D02*
X0123145Y0041823D01*
X0123537Y0041431D02*
X0156196Y0041431D01*
X0155804Y0041039D02*
X0123929Y0041039D01*
X0124321Y0040647D02*
X0155412Y0040647D01*
X0155020Y0040254D02*
X0124713Y0040254D01*
X0125106Y0039862D02*
X0154627Y0039862D01*
X0154235Y0039470D02*
X0125498Y0039470D01*
X0125866Y0039078D02*
X0153843Y0039078D01*
X0153451Y0038685D02*
X0126028Y0038685D01*
X0126191Y0038293D02*
X0153058Y0038293D01*
X0152666Y0037901D02*
X0126353Y0037901D01*
X0126516Y0037509D02*
X0152274Y0037509D01*
X0151882Y0037117D02*
X0126518Y0037117D01*
X0126518Y0036724D02*
X0151490Y0036724D01*
X0151097Y0036332D02*
X0126518Y0036332D01*
X0126518Y0035940D02*
X0150705Y0035940D01*
X0150313Y0035548D02*
X0126518Y0035548D01*
X0126518Y0035156D02*
X0149921Y0035156D01*
X0149529Y0034763D02*
X0126518Y0034763D01*
X0126518Y0034371D02*
X0149136Y0034371D01*
X0148744Y0033979D02*
X0126518Y0033979D01*
X0126518Y0033587D02*
X0148352Y0033587D01*
X0147960Y0033194D02*
X0126518Y0033194D01*
X0126518Y0032802D02*
X0147568Y0032802D01*
X0147175Y0032410D02*
X0126518Y0032410D01*
X0126518Y0032018D02*
X0146783Y0032018D01*
X0146391Y0031626D02*
X0126518Y0031626D01*
X0126518Y0031233D02*
X0146062Y0031233D01*
X0145899Y0030841D02*
X0126518Y0030841D01*
X0126518Y0030449D02*
X0145737Y0030449D01*
X0145655Y0030057D02*
X0126518Y0030057D01*
X0126518Y0029665D02*
X0145655Y0029665D01*
X0145655Y0029272D02*
X0126518Y0029272D01*
X0126518Y0028880D02*
X0145655Y0028880D01*
X0145655Y0028488D02*
X0126518Y0028488D01*
X0126518Y0028096D02*
X0145655Y0028096D01*
X0145655Y0027704D02*
X0126518Y0027704D01*
X0126518Y0027311D02*
X0145655Y0027311D01*
X0145655Y0026919D02*
X0126518Y0026919D01*
X0126518Y0026527D02*
X0145655Y0026527D01*
X0145655Y0026135D02*
X0126518Y0026135D01*
X0126518Y0025742D02*
X0145655Y0025742D01*
X0145655Y0025350D02*
X0126518Y0025350D01*
X0126518Y0024958D02*
X0145655Y0024958D01*
X0145655Y0024566D02*
X0126518Y0024566D01*
X0126518Y0024174D02*
X0145655Y0024174D01*
X0145655Y0023781D02*
X0126518Y0023781D01*
X0126518Y0023389D02*
X0145655Y0023389D01*
X0145655Y0022997D02*
X0126518Y0022997D01*
X0126518Y0022605D02*
X0137845Y0022605D01*
X0137520Y0022540D02*
X0136834Y0022256D01*
X0136216Y0021843D01*
X0135691Y0021318D01*
X0135278Y0020700D01*
X0134994Y0020014D01*
X0134849Y0019285D01*
X0134849Y0019110D01*
X0138423Y0019110D01*
X0138423Y0018717D01*
X0134849Y0018717D01*
X0134849Y0018542D01*
X0134994Y0017813D01*
X0135278Y0017127D01*
X0135691Y0016509D01*
X0136216Y0015984D01*
X0136834Y0015571D01*
X0137520Y0015287D01*
X0138249Y0015142D01*
X0138423Y0015142D01*
X0138423Y0018716D01*
X0138817Y0018716D01*
X0138817Y0015142D01*
X0138992Y0015142D01*
X0139720Y0015287D01*
X0140407Y0015571D01*
X0141025Y0015984D01*
X0141550Y0016509D01*
X0141963Y0017127D01*
X0142247Y0017813D01*
X0142392Y0018542D01*
X0142392Y0018717D01*
X0138817Y0018717D01*
X0138817Y0019110D01*
X0142392Y0019110D01*
X0142392Y0019285D01*
X0142247Y0020014D01*
X0141963Y0020700D01*
X0141550Y0021318D01*
X0141025Y0021843D01*
X0140407Y0022256D01*
X0139720Y0022540D01*
X0138992Y0022685D01*
X0138817Y0022685D01*
X0138817Y0019110D01*
X0138423Y0019110D01*
X0138423Y0022685D01*
X0138249Y0022685D01*
X0137520Y0022540D01*
X0136769Y0022213D02*
X0126518Y0022213D01*
X0126518Y0021820D02*
X0136193Y0021820D01*
X0135801Y0021428D02*
X0126518Y0021428D01*
X0126518Y0021036D02*
X0135502Y0021036D01*
X0135255Y0020644D02*
X0126518Y0020644D01*
X0126518Y0020251D02*
X0135092Y0020251D01*
X0134963Y0019859D02*
X0126518Y0019859D01*
X0126518Y0019467D02*
X0134885Y0019467D01*
X0134849Y0018683D02*
X0126518Y0018683D01*
X0126518Y0019075D02*
X0138423Y0019075D01*
X0138423Y0019467D02*
X0138817Y0019467D01*
X0138817Y0019075D02*
X0145049Y0019075D01*
X0145049Y0019467D02*
X0142356Y0019467D01*
X0142278Y0019859D02*
X0145146Y0019859D01*
X0145309Y0020251D02*
X0142148Y0020251D01*
X0141986Y0020644D02*
X0145471Y0020644D01*
X0145655Y0021036D02*
X0141738Y0021036D01*
X0141439Y0021428D02*
X0145655Y0021428D01*
X0145655Y0021820D02*
X0141047Y0021820D01*
X0140472Y0022213D02*
X0145655Y0022213D01*
X0145655Y0022605D02*
X0139395Y0022605D01*
X0138817Y0022605D02*
X0138423Y0022605D01*
X0138423Y0022213D02*
X0138817Y0022213D01*
X0138817Y0021820D02*
X0138423Y0021820D01*
X0138423Y0021428D02*
X0138817Y0021428D01*
X0138817Y0021036D02*
X0138423Y0021036D01*
X0138423Y0020644D02*
X0138817Y0020644D01*
X0138817Y0020251D02*
X0138423Y0020251D01*
X0138423Y0019859D02*
X0138817Y0019859D01*
X0138817Y0018683D02*
X0138423Y0018683D01*
X0138423Y0018290D02*
X0138817Y0018290D01*
X0138817Y0017898D02*
X0138423Y0017898D01*
X0138423Y0017506D02*
X0138817Y0017506D01*
X0138817Y0017114D02*
X0138423Y0017114D01*
X0138423Y0016722D02*
X0138817Y0016722D01*
X0138817Y0016329D02*
X0138423Y0016329D01*
X0138423Y0015937D02*
X0138817Y0015937D01*
X0138817Y0015545D02*
X0138423Y0015545D01*
X0138423Y0015153D02*
X0138817Y0015153D01*
X0139047Y0015153D02*
X0168194Y0015153D01*
X0168249Y0015142D02*
X0168423Y0015142D01*
X0168423Y0018716D01*
X0168817Y0018716D01*
X0168817Y0015142D01*
X0168992Y0015142D01*
X0169720Y0015287D01*
X0170407Y0015571D01*
X0171025Y0015984D01*
X0171550Y0016509D01*
X0171963Y0017127D01*
X0172247Y0017813D01*
X0172392Y0018542D01*
X0172392Y0018717D01*
X0168817Y0018717D01*
X0168817Y0019110D01*
X0172392Y0019110D01*
X0172392Y0019285D01*
X0172247Y0020014D01*
X0171963Y0020700D01*
X0171550Y0021318D01*
X0171025Y0021843D01*
X0170407Y0022256D01*
X0169720Y0022540D01*
X0168992Y0022685D01*
X0168817Y0022685D01*
X0168817Y0019110D01*
X0168423Y0019110D01*
X0168423Y0018717D01*
X0164849Y0018717D01*
X0164849Y0018542D01*
X0164994Y0017813D01*
X0165278Y0017127D01*
X0165691Y0016509D01*
X0166216Y0015984D01*
X0166834Y0015571D01*
X0167520Y0015287D01*
X0168249Y0015142D01*
X0168423Y0015153D02*
X0168817Y0015153D01*
X0169047Y0015153D02*
X0206287Y0015153D01*
X0206382Y0015058D02*
X0206987Y0014653D01*
X0207660Y0014374D01*
X0208374Y0014232D01*
X0208542Y0014232D01*
X0208542Y0017732D01*
X0208935Y0017732D01*
X0208935Y0014232D01*
X0209103Y0014232D01*
X0209817Y0014374D01*
X0210490Y0014653D01*
X0211095Y0015058D01*
X0211610Y0015573D01*
X0212014Y0016178D01*
X0212293Y0016851D01*
X0212435Y0017565D01*
X0212435Y0017732D01*
X0208935Y0017732D01*
X0208935Y0018126D01*
X0208542Y0018126D01*
X0208542Y0021626D01*
X0208374Y0021626D01*
X0207660Y0021484D01*
X0206987Y0021205D01*
X0206382Y0020801D01*
X0205867Y0020286D01*
X0205462Y0019680D01*
X0205184Y0019007D01*
X0205042Y0018293D01*
X0205042Y0018126D01*
X0208541Y0018126D01*
X0208541Y0017732D01*
X0205042Y0017732D01*
X0205042Y0017565D01*
X0205184Y0016851D01*
X0205462Y0016178D01*
X0205867Y0015573D01*
X0206382Y0015058D01*
X0206826Y0014761D02*
X0126518Y0014761D01*
X0126518Y0015153D02*
X0138194Y0015153D01*
X0136897Y0015545D02*
X0126518Y0015545D01*
X0126518Y0015937D02*
X0136286Y0015937D01*
X0135870Y0016329D02*
X0126518Y0016329D01*
X0126518Y0016722D02*
X0135549Y0016722D01*
X0135287Y0017114D02*
X0126518Y0017114D01*
X0126518Y0017506D02*
X0135121Y0017506D01*
X0134977Y0017898D02*
X0126518Y0017898D01*
X0126518Y0018290D02*
X0134899Y0018290D01*
X0140344Y0015545D02*
X0147419Y0015545D01*
X0146545Y0015937D02*
X0140955Y0015937D01*
X0141370Y0016329D02*
X0146153Y0016329D01*
X0145761Y0016722D02*
X0141692Y0016722D01*
X0141954Y0017114D02*
X0145500Y0017114D01*
X0145337Y0017506D02*
X0142120Y0017506D01*
X0142264Y0017898D02*
X0145175Y0017898D01*
X0145049Y0018290D02*
X0142342Y0018290D01*
X0142392Y0018683D02*
X0145049Y0018683D01*
X0149821Y0015545D02*
X0157419Y0015545D01*
X0157910Y0015342D02*
X0159331Y0015342D01*
X0160643Y0015885D01*
X0161648Y0016890D01*
X0162192Y0018203D01*
X0162192Y0019624D01*
X0161648Y0020937D01*
X0160643Y0021941D01*
X0159331Y0022485D01*
X0157910Y0022485D01*
X0156597Y0021941D01*
X0155592Y0020937D01*
X0155049Y0019624D01*
X0155049Y0018203D01*
X0155592Y0016890D01*
X0156597Y0015885D01*
X0157910Y0015342D01*
X0156545Y0015937D02*
X0150695Y0015937D01*
X0151087Y0016329D02*
X0156153Y0016329D01*
X0155761Y0016722D02*
X0151480Y0016722D01*
X0151741Y0017114D02*
X0155500Y0017114D01*
X0155337Y0017506D02*
X0151903Y0017506D01*
X0152066Y0017898D02*
X0155175Y0017898D01*
X0155049Y0018290D02*
X0152192Y0018290D01*
X0152192Y0018683D02*
X0155049Y0018683D01*
X0155049Y0019075D02*
X0152192Y0019075D01*
X0152192Y0019467D02*
X0155049Y0019467D01*
X0155146Y0019859D02*
X0152094Y0019859D01*
X0151932Y0020251D02*
X0155309Y0020251D01*
X0155471Y0020644D02*
X0151769Y0020644D01*
X0151586Y0021036D02*
X0155692Y0021036D01*
X0156084Y0021428D02*
X0151586Y0021428D01*
X0151586Y0021820D02*
X0156476Y0021820D01*
X0157252Y0022213D02*
X0151586Y0022213D01*
X0151586Y0022605D02*
X0167845Y0022605D01*
X0167520Y0022540D02*
X0166834Y0022256D01*
X0166216Y0021843D01*
X0165691Y0021318D01*
X0165278Y0020700D01*
X0164994Y0020014D01*
X0164849Y0019285D01*
X0164849Y0019110D01*
X0168423Y0019110D01*
X0168423Y0022685D01*
X0168249Y0022685D01*
X0167520Y0022540D01*
X0166769Y0022213D02*
X0159989Y0022213D01*
X0160764Y0021820D02*
X0166193Y0021820D01*
X0165801Y0021428D02*
X0161157Y0021428D01*
X0161549Y0021036D02*
X0165502Y0021036D01*
X0165255Y0020644D02*
X0161769Y0020644D01*
X0161932Y0020251D02*
X0165092Y0020251D01*
X0164963Y0019859D02*
X0162094Y0019859D01*
X0162192Y0019467D02*
X0164885Y0019467D01*
X0164849Y0018683D02*
X0162192Y0018683D01*
X0162192Y0019075D02*
X0168423Y0019075D01*
X0168423Y0019467D02*
X0168817Y0019467D01*
X0168817Y0019075D02*
X0205212Y0019075D01*
X0205119Y0018683D02*
X0172392Y0018683D01*
X0172342Y0018290D02*
X0205042Y0018290D01*
X0205053Y0017506D02*
X0172120Y0017506D01*
X0172264Y0017898D02*
X0208541Y0017898D01*
X0208542Y0017506D02*
X0208935Y0017506D01*
X0208935Y0017898D02*
X0232893Y0017898D01*
X0232918Y0017923D02*
X0232361Y0017367D01*
X0231924Y0016712D01*
X0231623Y0015985D01*
X0231469Y0015213D01*
X0231469Y0015016D01*
X0238069Y0015016D01*
X0238069Y0018816D01*
X0235072Y0018816D01*
X0234300Y0018662D01*
X0233573Y0018361D01*
X0232918Y0017923D01*
X0232501Y0017506D02*
X0212423Y0017506D01*
X0212345Y0017114D02*
X0232192Y0017114D01*
X0231930Y0016722D02*
X0212240Y0016722D01*
X0212077Y0016329D02*
X0231765Y0016329D01*
X0231613Y0015937D02*
X0211854Y0015937D01*
X0211582Y0015545D02*
X0231535Y0015545D01*
X0231469Y0015153D02*
X0211190Y0015153D01*
X0210650Y0014761D02*
X0238069Y0014761D01*
X0238069Y0014622D02*
X0231469Y0014622D01*
X0231469Y0014425D01*
X0231623Y0013653D01*
X0231924Y0012926D01*
X0232361Y0012271D01*
X0232918Y0011714D01*
X0233573Y0011277D01*
X0234300Y0010976D01*
X0235072Y0010822D01*
X0238069Y0010822D01*
X0238069Y0014622D01*
X0238069Y0015016D01*
X0238463Y0015016D01*
X0238463Y0018816D01*
X0241460Y0018816D01*
X0242232Y0018662D01*
X0242959Y0018361D01*
X0243614Y0017923D01*
X0244171Y0017367D01*
X0244608Y0016712D01*
X0244909Y0015985D01*
X0245063Y0015213D01*
X0245063Y0015016D01*
X0238463Y0015016D01*
X0238463Y0014622D01*
X0245063Y0014622D01*
X0245063Y0014425D01*
X0244909Y0013653D01*
X0244608Y0012926D01*
X0244171Y0012271D01*
X0243614Y0011714D01*
X0242959Y0011277D01*
X0242232Y0010976D01*
X0241460Y0010822D01*
X0238463Y0010822D01*
X0238463Y0014622D01*
X0238069Y0014622D01*
X0238069Y0014368D02*
X0238463Y0014368D01*
X0238463Y0013976D02*
X0238069Y0013976D01*
X0238069Y0013584D02*
X0238463Y0013584D01*
X0238463Y0013192D02*
X0238069Y0013192D01*
X0238069Y0012799D02*
X0238463Y0012799D01*
X0238463Y0012407D02*
X0238069Y0012407D01*
X0238069Y0012015D02*
X0238463Y0012015D01*
X0238463Y0011623D02*
X0238069Y0011623D01*
X0238069Y0011231D02*
X0238463Y0011231D01*
X0238463Y0010838D02*
X0238069Y0010838D01*
X0234990Y0010838D02*
X0126518Y0010838D01*
X0126518Y0010446D02*
X0251589Y0010446D01*
X0251589Y0010054D02*
X0126518Y0010054D01*
X0126518Y0009662D02*
X0251589Y0009662D01*
X0251589Y0009270D02*
X0126518Y0009270D01*
X0126518Y0008877D02*
X0251589Y0008877D01*
X0251589Y0008485D02*
X0126518Y0008485D01*
X0126518Y0008093D02*
X0251589Y0008093D01*
X0251589Y0007701D02*
X0126518Y0007701D01*
X0126518Y0007308D02*
X0251589Y0007308D01*
X0251589Y0006916D02*
X0126518Y0006916D01*
X0126518Y0006524D02*
X0251589Y0006524D01*
X0251589Y0006132D02*
X0126518Y0006132D01*
X0126518Y0005740D02*
X0251589Y0005740D01*
X0251589Y0010838D02*
X0241542Y0010838D01*
X0242847Y0011231D02*
X0251589Y0011231D01*
X0251589Y0011623D02*
X0243477Y0011623D01*
X0243914Y0012015D02*
X0251589Y0012015D01*
X0251589Y0012407D02*
X0244262Y0012407D01*
X0244524Y0012799D02*
X0251589Y0012799D01*
X0251589Y0013192D02*
X0244718Y0013192D01*
X0244881Y0013584D02*
X0251589Y0013584D01*
X0251589Y0013976D02*
X0244973Y0013976D01*
X0245051Y0014368D02*
X0251589Y0014368D01*
X0251589Y0014761D02*
X0238463Y0014761D01*
X0238463Y0015153D02*
X0238069Y0015153D01*
X0238069Y0015545D02*
X0238463Y0015545D01*
X0238463Y0015937D02*
X0238069Y0015937D01*
X0238069Y0016329D02*
X0238463Y0016329D01*
X0238463Y0016722D02*
X0238069Y0016722D01*
X0238069Y0017114D02*
X0238463Y0017114D01*
X0238463Y0017506D02*
X0238069Y0017506D01*
X0238069Y0017898D02*
X0238463Y0017898D01*
X0238463Y0018290D02*
X0238069Y0018290D01*
X0238069Y0018683D02*
X0238463Y0018683D01*
X0238463Y0020822D02*
X0241460Y0020822D01*
X0242232Y0020976D01*
X0242959Y0021277D01*
X0243614Y0021714D01*
X0244171Y0022271D01*
X0244608Y0022926D01*
X0244909Y0023653D01*
X0245063Y0024425D01*
X0245063Y0024622D01*
X0238463Y0024622D01*
X0238463Y0025016D01*
X0238069Y0025016D01*
X0238069Y0028816D01*
X0235072Y0028816D01*
X0234300Y0028662D01*
X0233573Y0028361D01*
X0232918Y0027923D01*
X0232361Y0027367D01*
X0231924Y0026712D01*
X0231623Y0025985D01*
X0231469Y0025213D01*
X0231469Y0025016D01*
X0238069Y0025016D01*
X0238069Y0024622D01*
X0231469Y0024622D01*
X0231469Y0024425D01*
X0231623Y0023653D01*
X0231924Y0022926D01*
X0232361Y0022271D01*
X0232918Y0021714D01*
X0233573Y0021277D01*
X0234300Y0020976D01*
X0235072Y0020822D01*
X0238069Y0020822D01*
X0238069Y0024622D01*
X0238463Y0024622D01*
X0238463Y0020822D01*
X0238463Y0021036D02*
X0238069Y0021036D01*
X0238069Y0021428D02*
X0238463Y0021428D01*
X0238463Y0021820D02*
X0238069Y0021820D01*
X0238069Y0022213D02*
X0238463Y0022213D01*
X0238463Y0022605D02*
X0238069Y0022605D01*
X0238069Y0022997D02*
X0238463Y0022997D01*
X0238463Y0023389D02*
X0238069Y0023389D01*
X0238069Y0023781D02*
X0238463Y0023781D01*
X0238463Y0024174D02*
X0238069Y0024174D01*
X0238069Y0024566D02*
X0238463Y0024566D01*
X0238463Y0024958D02*
X0251589Y0024958D01*
X0251589Y0024566D02*
X0245063Y0024566D01*
X0245013Y0024174D02*
X0251589Y0024174D01*
X0251589Y0023781D02*
X0244935Y0023781D01*
X0244800Y0023389D02*
X0251589Y0023389D01*
X0251589Y0022997D02*
X0244637Y0022997D01*
X0244393Y0022605D02*
X0251589Y0022605D01*
X0251589Y0022213D02*
X0244112Y0022213D01*
X0243720Y0021820D02*
X0251589Y0021820D01*
X0251589Y0021428D02*
X0243185Y0021428D01*
X0242377Y0021036D02*
X0251589Y0021036D01*
X0251589Y0020644D02*
X0211252Y0020644D01*
X0211095Y0020801D02*
X0210490Y0021205D01*
X0209817Y0021484D01*
X0209103Y0021626D01*
X0208935Y0021626D01*
X0208935Y0018126D01*
X0212435Y0018126D01*
X0212435Y0018293D01*
X0212293Y0019007D01*
X0212014Y0019680D01*
X0211610Y0020286D01*
X0211095Y0020801D01*
X0210743Y0021036D02*
X0234155Y0021036D01*
X0233346Y0021428D02*
X0209951Y0021428D01*
X0208935Y0021428D02*
X0208542Y0021428D01*
X0208542Y0021036D02*
X0208935Y0021036D01*
X0208935Y0020644D02*
X0208542Y0020644D01*
X0208542Y0020251D02*
X0208935Y0020251D01*
X0208935Y0019859D02*
X0208542Y0019859D01*
X0208542Y0019467D02*
X0208935Y0019467D01*
X0208935Y0019075D02*
X0208542Y0019075D01*
X0208542Y0018683D02*
X0208935Y0018683D01*
X0208935Y0018290D02*
X0208542Y0018290D01*
X0208542Y0017114D02*
X0208935Y0017114D01*
X0208935Y0016722D02*
X0208542Y0016722D01*
X0208542Y0016329D02*
X0208935Y0016329D01*
X0208935Y0015937D02*
X0208542Y0015937D01*
X0208542Y0015545D02*
X0208935Y0015545D01*
X0208935Y0015153D02*
X0208542Y0015153D01*
X0208542Y0014761D02*
X0208935Y0014761D01*
X0208935Y0014368D02*
X0208542Y0014368D01*
X0207690Y0014368D02*
X0126518Y0014368D01*
X0126518Y0013976D02*
X0231558Y0013976D01*
X0231480Y0014368D02*
X0209786Y0014368D01*
X0205894Y0015545D02*
X0170344Y0015545D01*
X0170955Y0015937D02*
X0205623Y0015937D01*
X0205400Y0016329D02*
X0171370Y0016329D01*
X0171692Y0016722D02*
X0205237Y0016722D01*
X0205131Y0017114D02*
X0171954Y0017114D01*
X0172356Y0019467D02*
X0205374Y0019467D01*
X0205582Y0019859D02*
X0172278Y0019859D01*
X0172148Y0020251D02*
X0205844Y0020251D01*
X0206225Y0020644D02*
X0171986Y0020644D01*
X0171738Y0021036D02*
X0206734Y0021036D01*
X0207525Y0021428D02*
X0171439Y0021428D01*
X0171047Y0021820D02*
X0232812Y0021820D01*
X0232420Y0022213D02*
X0170472Y0022213D01*
X0169395Y0022605D02*
X0232138Y0022605D01*
X0231894Y0022997D02*
X0151586Y0022997D01*
X0151586Y0023389D02*
X0231732Y0023389D01*
X0231597Y0023781D02*
X0151586Y0023781D01*
X0151586Y0024174D02*
X0231519Y0024174D01*
X0231469Y0024566D02*
X0151586Y0024566D01*
X0151586Y0024958D02*
X0238069Y0024958D01*
X0238069Y0025350D02*
X0238463Y0025350D01*
X0238463Y0025016D02*
X0238463Y0028816D01*
X0241460Y0028816D01*
X0242232Y0028662D01*
X0242959Y0028361D01*
X0243614Y0027923D01*
X0244171Y0027367D01*
X0244608Y0026712D01*
X0244909Y0025985D01*
X0245063Y0025213D01*
X0245063Y0025016D01*
X0238463Y0025016D01*
X0238463Y0025742D02*
X0238069Y0025742D01*
X0238069Y0026135D02*
X0238463Y0026135D01*
X0238463Y0026527D02*
X0238069Y0026527D01*
X0238069Y0026919D02*
X0238463Y0026919D01*
X0238463Y0027311D02*
X0238069Y0027311D01*
X0238069Y0027704D02*
X0238463Y0027704D01*
X0238463Y0028096D02*
X0238069Y0028096D01*
X0238069Y0028488D02*
X0238463Y0028488D01*
X0242652Y0028488D02*
X0251589Y0028488D01*
X0251589Y0028880D02*
X0210855Y0028880D01*
X0210719Y0028744D02*
X0211703Y0029728D01*
X0212235Y0031013D01*
X0212235Y0032404D01*
X0211703Y0033689D01*
X0210719Y0034673D01*
X0209434Y0035205D01*
X0208043Y0035205D01*
X0206758Y0034673D01*
X0205774Y0033689D01*
X0205242Y0032404D01*
X0205242Y0031013D01*
X0205774Y0029728D01*
X0206758Y0028744D01*
X0208043Y0028212D01*
X0209434Y0028212D01*
X0210719Y0028744D01*
X0210101Y0028488D02*
X0233880Y0028488D01*
X0233176Y0028096D02*
X0151586Y0028096D01*
X0151586Y0027704D02*
X0232698Y0027704D01*
X0232324Y0027311D02*
X0151586Y0027311D01*
X0151586Y0026919D02*
X0232062Y0026919D01*
X0231847Y0026527D02*
X0151586Y0026527D01*
X0151586Y0026135D02*
X0231685Y0026135D01*
X0231575Y0025742D02*
X0151586Y0025742D01*
X0151586Y0025350D02*
X0231497Y0025350D01*
X0234403Y0018683D02*
X0212358Y0018683D01*
X0212435Y0018290D02*
X0233467Y0018290D01*
X0231651Y0013584D02*
X0126518Y0013584D01*
X0126518Y0013192D02*
X0231814Y0013192D01*
X0232008Y0012799D02*
X0126518Y0012799D01*
X0126518Y0012407D02*
X0232270Y0012407D01*
X0232617Y0012015D02*
X0126518Y0012015D01*
X0126518Y0011623D02*
X0233055Y0011623D01*
X0233685Y0011231D02*
X0126518Y0011231D01*
X0151640Y0028488D02*
X0207376Y0028488D01*
X0206622Y0028880D02*
X0152033Y0028880D01*
X0152425Y0029272D02*
X0206229Y0029272D01*
X0205837Y0029665D02*
X0152817Y0029665D01*
X0153209Y0030057D02*
X0205638Y0030057D01*
X0205475Y0030449D02*
X0153602Y0030449D01*
X0153994Y0030841D02*
X0205313Y0030841D01*
X0205242Y0031233D02*
X0154386Y0031233D01*
X0154778Y0031626D02*
X0205242Y0031626D01*
X0205242Y0032018D02*
X0155170Y0032018D01*
X0155563Y0032410D02*
X0205244Y0032410D01*
X0205406Y0032802D02*
X0155955Y0032802D01*
X0156347Y0033194D02*
X0205569Y0033194D01*
X0205731Y0033587D02*
X0156739Y0033587D01*
X0157131Y0033979D02*
X0206063Y0033979D01*
X0206456Y0034371D02*
X0157524Y0034371D01*
X0157916Y0034763D02*
X0206975Y0034763D01*
X0207922Y0035156D02*
X0158308Y0035156D01*
X0158700Y0035548D02*
X0231669Y0035548D01*
X0231669Y0035574D02*
X0231669Y0034064D01*
X0232247Y0032668D01*
X0233315Y0031600D01*
X0234711Y0031022D01*
X0241821Y0031022D01*
X0243217Y0031600D01*
X0244285Y0032668D01*
X0244863Y0034064D01*
X0244863Y0035574D01*
X0244285Y0036970D01*
X0243217Y0038038D01*
X0241821Y0038616D01*
X0234711Y0038616D01*
X0233315Y0038038D01*
X0232247Y0036970D01*
X0231669Y0035574D01*
X0231821Y0035940D02*
X0159092Y0035940D01*
X0159485Y0036332D02*
X0231983Y0036332D01*
X0232146Y0036724D02*
X0159877Y0036724D01*
X0160269Y0037117D02*
X0232394Y0037117D01*
X0232786Y0037509D02*
X0160661Y0037509D01*
X0158597Y0043392D02*
X0006439Y0043392D01*
X0006439Y0043784D02*
X0212899Y0043784D01*
X0212899Y0044176D02*
X0006439Y0044176D01*
X0006439Y0044569D02*
X0212899Y0044569D01*
X0212899Y0044961D02*
X0187471Y0044961D01*
X0187354Y0044844D02*
X0189461Y0046951D01*
X0189461Y0049931D01*
X0187354Y0052038D01*
X0184375Y0052038D01*
X0182268Y0049931D01*
X0182268Y0046951D01*
X0184375Y0044844D01*
X0187354Y0044844D01*
X0187863Y0045353D02*
X0212899Y0045353D01*
X0212899Y0045745D02*
X0188255Y0045745D01*
X0188648Y0046137D02*
X0212899Y0046137D01*
X0212689Y0046530D02*
X0189040Y0046530D01*
X0189432Y0046922D02*
X0212297Y0046922D01*
X0212268Y0047314D02*
X0189461Y0047314D01*
X0189461Y0047706D02*
X0212268Y0047706D01*
X0212268Y0048099D02*
X0189461Y0048099D01*
X0189461Y0048491D02*
X0212268Y0048491D01*
X0212268Y0048883D02*
X0189461Y0048883D01*
X0189461Y0049275D02*
X0212268Y0049275D01*
X0212268Y0049667D02*
X0189461Y0049667D01*
X0189332Y0050060D02*
X0212396Y0050060D01*
X0212789Y0050452D02*
X0188940Y0050452D01*
X0188548Y0050844D02*
X0212899Y0050844D01*
X0212899Y0051236D02*
X0188156Y0051236D01*
X0187764Y0051628D02*
X0212899Y0051628D01*
X0212899Y0052021D02*
X0187371Y0052021D01*
X0184357Y0052021D02*
X0176316Y0052021D01*
X0176098Y0052238D02*
X0174723Y0052238D01*
X0174723Y0048638D01*
X0178323Y0048638D01*
X0178323Y0050014D01*
X0176098Y0052238D01*
X0176708Y0051628D02*
X0183965Y0051628D01*
X0183573Y0051236D02*
X0177100Y0051236D01*
X0177492Y0050844D02*
X0183181Y0050844D01*
X0182789Y0050452D02*
X0177884Y0050452D01*
X0178277Y0050060D02*
X0182396Y0050060D01*
X0182268Y0049667D02*
X0178323Y0049667D01*
X0178323Y0049275D02*
X0182268Y0049275D01*
X0182268Y0048883D02*
X0178323Y0048883D01*
X0178323Y0048244D02*
X0174723Y0048244D01*
X0174723Y0048638D01*
X0174329Y0048638D01*
X0174329Y0052238D01*
X0172953Y0052238D01*
X0170729Y0050014D01*
X0170729Y0048638D01*
X0174329Y0048638D01*
X0174329Y0048244D01*
X0174723Y0048244D01*
X0174723Y0044644D01*
X0176098Y0044644D01*
X0178323Y0046868D01*
X0178323Y0048244D01*
X0178323Y0048099D02*
X0182268Y0048099D01*
X0182268Y0048491D02*
X0174723Y0048491D01*
X0174723Y0048883D02*
X0174329Y0048883D01*
X0174329Y0049275D02*
X0174723Y0049275D01*
X0174723Y0049667D02*
X0174329Y0049667D01*
X0174329Y0050060D02*
X0174723Y0050060D01*
X0174723Y0050452D02*
X0174329Y0050452D01*
X0174329Y0050844D02*
X0174723Y0050844D01*
X0174723Y0051236D02*
X0174329Y0051236D01*
X0174329Y0051628D02*
X0174723Y0051628D01*
X0174723Y0052021D02*
X0174329Y0052021D01*
X0172736Y0052021D02*
X0146033Y0052021D01*
X0146016Y0052038D02*
X0143036Y0052038D01*
X0140929Y0049931D01*
X0140929Y0046951D01*
X0143036Y0044844D01*
X0146016Y0044844D01*
X0148123Y0046951D01*
X0148123Y0049931D01*
X0146016Y0052038D01*
X0146425Y0051628D02*
X0172344Y0051628D01*
X0171952Y0051236D02*
X0146817Y0051236D01*
X0147209Y0050844D02*
X0171559Y0050844D01*
X0171167Y0050452D02*
X0147602Y0050452D01*
X0147994Y0050060D02*
X0170775Y0050060D01*
X0170729Y0049667D02*
X0148123Y0049667D01*
X0148123Y0049275D02*
X0170729Y0049275D01*
X0170729Y0048883D02*
X0148123Y0048883D01*
X0148123Y0048491D02*
X0174329Y0048491D01*
X0174329Y0048244D02*
X0170729Y0048244D01*
X0170729Y0046868D01*
X0172953Y0044644D01*
X0174329Y0044644D01*
X0174329Y0048244D01*
X0174329Y0048099D02*
X0174723Y0048099D01*
X0174723Y0047706D02*
X0174329Y0047706D01*
X0174329Y0047314D02*
X0174723Y0047314D01*
X0174723Y0046922D02*
X0174329Y0046922D01*
X0174329Y0046530D02*
X0174723Y0046530D01*
X0174723Y0046137D02*
X0174329Y0046137D01*
X0174329Y0045745D02*
X0174723Y0045745D01*
X0174723Y0045353D02*
X0174329Y0045353D01*
X0174329Y0044961D02*
X0174723Y0044961D01*
X0176415Y0044961D02*
X0184258Y0044961D01*
X0183866Y0045353D02*
X0176807Y0045353D01*
X0177200Y0045745D02*
X0183473Y0045745D01*
X0183081Y0046137D02*
X0177592Y0046137D01*
X0177984Y0046530D02*
X0182689Y0046530D01*
X0182297Y0046922D02*
X0178323Y0046922D01*
X0178323Y0047314D02*
X0182268Y0047314D01*
X0182268Y0047706D02*
X0178323Y0047706D01*
X0172636Y0044961D02*
X0146132Y0044961D01*
X0146525Y0045353D02*
X0172244Y0045353D01*
X0171852Y0045745D02*
X0146917Y0045745D01*
X0147309Y0046137D02*
X0171460Y0046137D01*
X0171067Y0046530D02*
X0147701Y0046530D01*
X0148093Y0046922D02*
X0170729Y0046922D01*
X0170729Y0047314D02*
X0148123Y0047314D01*
X0148123Y0047706D02*
X0170729Y0047706D01*
X0170729Y0048099D02*
X0148123Y0048099D01*
X0142919Y0044961D02*
X0006439Y0044961D01*
X0006439Y0045353D02*
X0142527Y0045353D01*
X0142135Y0045745D02*
X0006439Y0045745D01*
X0006439Y0046137D02*
X0141743Y0046137D01*
X0141350Y0046530D02*
X0006439Y0046530D01*
X0006439Y0046922D02*
X0140958Y0046922D01*
X0140929Y0047314D02*
X0006439Y0047314D01*
X0006439Y0047706D02*
X0140929Y0047706D01*
X0140929Y0048099D02*
X0006439Y0048099D01*
X0006439Y0048491D02*
X0140929Y0048491D01*
X0140929Y0048883D02*
X0006439Y0048883D01*
X0006439Y0049275D02*
X0140929Y0049275D01*
X0140929Y0049667D02*
X0006439Y0049667D01*
X0006439Y0050060D02*
X0141058Y0050060D01*
X0141450Y0050452D02*
X0006439Y0050452D01*
X0006439Y0050844D02*
X0141842Y0050844D01*
X0142234Y0051236D02*
X0006439Y0051236D01*
X0006439Y0051628D02*
X0142627Y0051628D01*
X0143019Y0052021D02*
X0006439Y0052021D01*
X0006439Y0052413D02*
X0212899Y0052413D01*
X0212899Y0052805D02*
X0006439Y0052805D01*
X0006439Y0053197D02*
X0212899Y0053197D01*
X0212899Y0053590D02*
X0006439Y0053590D01*
X0006439Y0053982D02*
X0212899Y0053982D01*
X0212899Y0054374D02*
X0006439Y0054374D01*
X0006439Y0054766D02*
X0212899Y0054766D01*
X0212899Y0055158D02*
X0006439Y0055158D01*
X0006439Y0055551D02*
X0212899Y0055551D01*
X0212899Y0055943D02*
X0006439Y0055943D01*
X0006439Y0056335D02*
X0212899Y0056335D01*
X0212899Y0056727D02*
X0006439Y0056727D01*
X0006439Y0057119D02*
X0212899Y0057119D01*
X0212899Y0057512D02*
X0006439Y0057512D01*
X0006439Y0057904D02*
X0212899Y0057904D01*
X0212899Y0058296D02*
X0006439Y0058296D01*
X0006439Y0058688D02*
X0212899Y0058688D01*
X0212899Y0059080D02*
X0006439Y0059080D01*
X0006439Y0059473D02*
X0212899Y0059473D01*
X0212899Y0059865D02*
X0006439Y0059865D01*
X0006439Y0060257D02*
X0212899Y0060257D01*
X0212899Y0060649D02*
X0006439Y0060649D01*
X0006439Y0061042D02*
X0212899Y0061042D01*
X0212899Y0061434D02*
X0006439Y0061434D01*
X0006439Y0061826D02*
X0212899Y0061826D01*
X0212899Y0062218D02*
X0006439Y0062218D01*
X0006439Y0062610D02*
X0212899Y0062610D01*
X0212899Y0063003D02*
X0148876Y0063003D01*
X0148383Y0062798D02*
X0149618Y0063310D01*
X0150562Y0064255D01*
X0151074Y0065489D01*
X0151074Y0092477D01*
X0151124Y0092646D01*
X0151074Y0093140D01*
X0151074Y0093637D01*
X0151006Y0093800D01*
X0150988Y0093976D01*
X0150752Y0094413D01*
X0150562Y0094871D01*
X0150438Y0094996D01*
X0150354Y0095152D01*
X0149969Y0095465D01*
X0149618Y0095816D01*
X0149454Y0095884D01*
X0140721Y0102994D01*
X0140721Y0103080D01*
X0138614Y0105187D01*
X0135634Y0105187D01*
X0133527Y0103080D01*
X0133527Y0100101D01*
X0135634Y0097994D01*
X0136222Y0097994D01*
X0144356Y0091372D01*
X0144356Y0075028D01*
X0142432Y0075028D01*
X0142402Y0075041D01*
X0141217Y0075041D01*
X0140122Y0074588D01*
X0139285Y0073750D01*
X0138831Y0072655D01*
X0138831Y0071471D01*
X0139285Y0070376D01*
X0140122Y0069538D01*
X0141156Y0069110D01*
X0140122Y0068682D01*
X0139285Y0067844D01*
X0138831Y0066750D01*
X0138831Y0065565D01*
X0139285Y0064471D01*
X0140122Y0063633D01*
X0141217Y0063180D01*
X0142402Y0063180D01*
X0142432Y0063192D01*
X0146096Y0063192D01*
X0147047Y0062798D01*
X0148383Y0062798D01*
X0149703Y0063395D02*
X0212899Y0063395D01*
X0212899Y0063787D02*
X0210300Y0063787D01*
X0210490Y0063866D02*
X0211095Y0064270D01*
X0211610Y0064785D01*
X0212014Y0065391D01*
X0212293Y0066063D01*
X0212435Y0066778D01*
X0212435Y0066945D01*
X0208935Y0066945D01*
X0208935Y0063445D01*
X0209103Y0063445D01*
X0209817Y0063587D01*
X0210490Y0063866D01*
X0210959Y0064179D02*
X0212899Y0064179D01*
X0212899Y0064571D02*
X0211396Y0064571D01*
X0211729Y0064964D02*
X0212899Y0064964D01*
X0212899Y0065356D02*
X0211991Y0065356D01*
X0212163Y0065748D02*
X0212899Y0065748D01*
X0212899Y0066140D02*
X0212308Y0066140D01*
X0212386Y0066533D02*
X0212899Y0066533D01*
X0212899Y0066925D02*
X0212435Y0066925D01*
X0212435Y0067339D02*
X0208935Y0067339D01*
X0208542Y0067339D01*
X0208542Y0070839D01*
X0208374Y0070839D01*
X0207660Y0070697D01*
X0206987Y0070418D01*
X0206382Y0070013D01*
X0205867Y0069498D01*
X0205462Y0068893D01*
X0205184Y0068220D01*
X0205042Y0067506D01*
X0205042Y0067339D01*
X0208541Y0067339D01*
X0208541Y0066945D01*
X0205042Y0066945D01*
X0205042Y0066778D01*
X0205184Y0066063D01*
X0205462Y0065391D01*
X0205867Y0064785D01*
X0206382Y0064270D01*
X0206987Y0063866D01*
X0207660Y0063587D01*
X0208374Y0063445D01*
X0208542Y0063445D01*
X0208542Y0066945D01*
X0208935Y0066945D01*
X0208935Y0067339D01*
X0208935Y0070839D01*
X0209103Y0070839D01*
X0209817Y0070697D01*
X0210490Y0070418D01*
X0211095Y0070013D01*
X0211610Y0069498D01*
X0212014Y0068893D01*
X0212293Y0068220D01*
X0212435Y0067506D01*
X0212435Y0067339D01*
X0212395Y0067709D02*
X0212899Y0067709D01*
X0212899Y0067317D02*
X0208935Y0067317D01*
X0208935Y0067709D02*
X0208542Y0067709D01*
X0208541Y0067317D02*
X0180490Y0067317D01*
X0180518Y0067359D02*
X0180797Y0068032D01*
X0180939Y0068746D01*
X0180939Y0068913D01*
X0177439Y0068913D01*
X0177439Y0065413D01*
X0177606Y0065413D01*
X0178321Y0065555D01*
X0178993Y0065834D01*
X0179599Y0066239D01*
X0180114Y0066754D01*
X0180518Y0067359D01*
X0180663Y0067709D02*
X0205082Y0067709D01*
X0205160Y0068101D02*
X0180811Y0068101D01*
X0180889Y0068494D02*
X0205297Y0068494D01*
X0205459Y0068886D02*
X0180939Y0068886D01*
X0180939Y0069307D02*
X0180939Y0069474D01*
X0180797Y0070189D01*
X0180518Y0070861D01*
X0180114Y0071467D01*
X0179599Y0071982D01*
X0178993Y0072386D01*
X0178321Y0072665D01*
X0177606Y0072807D01*
X0177439Y0072807D01*
X0177439Y0069307D01*
X0177045Y0069307D01*
X0177045Y0068913D01*
X0173545Y0068913D01*
X0173545Y0068746D01*
X0173688Y0068032D01*
X0173966Y0067359D01*
X0174371Y0066754D01*
X0174886Y0066239D01*
X0175491Y0065834D01*
X0176164Y0065555D01*
X0176878Y0065413D01*
X0177045Y0065413D01*
X0177045Y0068913D01*
X0177439Y0068913D01*
X0177439Y0069307D01*
X0180939Y0069307D01*
X0180900Y0069670D02*
X0206039Y0069670D01*
X0205720Y0069278D02*
X0177439Y0069278D01*
X0177439Y0069670D02*
X0177045Y0069670D01*
X0177045Y0069307D02*
X0177045Y0072807D01*
X0176878Y0072807D01*
X0176164Y0072665D01*
X0175491Y0072386D01*
X0174886Y0071982D01*
X0174371Y0071467D01*
X0173966Y0070861D01*
X0173688Y0070189D01*
X0173545Y0069474D01*
X0173545Y0069307D01*
X0177045Y0069307D01*
X0177045Y0069278D02*
X0151074Y0069278D01*
X0151074Y0069670D02*
X0173584Y0069670D01*
X0173662Y0070062D02*
X0151074Y0070062D01*
X0151074Y0070455D02*
X0173798Y0070455D01*
X0173960Y0070847D02*
X0151074Y0070847D01*
X0151074Y0071239D02*
X0174219Y0071239D01*
X0174535Y0071631D02*
X0151074Y0071631D01*
X0151074Y0072023D02*
X0174948Y0072023D01*
X0175562Y0072416D02*
X0151074Y0072416D01*
X0151074Y0072808D02*
X0212658Y0072808D01*
X0212899Y0072416D02*
X0178923Y0072416D01*
X0179536Y0072023D02*
X0212899Y0072023D01*
X0212899Y0071631D02*
X0179949Y0071631D01*
X0180266Y0071239D02*
X0212899Y0071239D01*
X0212899Y0070847D02*
X0180524Y0070847D01*
X0180687Y0070455D02*
X0207076Y0070455D01*
X0206455Y0070062D02*
X0180822Y0070062D01*
X0180228Y0066925D02*
X0205042Y0066925D01*
X0205090Y0066533D02*
X0179893Y0066533D01*
X0179452Y0066140D02*
X0205168Y0066140D01*
X0205314Y0065748D02*
X0178786Y0065748D01*
X0177439Y0065748D02*
X0177045Y0065748D01*
X0177045Y0066140D02*
X0177439Y0066140D01*
X0177439Y0066533D02*
X0177045Y0066533D01*
X0177045Y0066925D02*
X0177439Y0066925D01*
X0177439Y0067317D02*
X0177045Y0067317D01*
X0177045Y0067709D02*
X0177439Y0067709D01*
X0177439Y0068101D02*
X0177045Y0068101D01*
X0177045Y0068494D02*
X0177439Y0068494D01*
X0177439Y0068886D02*
X0177045Y0068886D01*
X0177045Y0070062D02*
X0177439Y0070062D01*
X0177439Y0070455D02*
X0177045Y0070455D01*
X0177045Y0070847D02*
X0177439Y0070847D01*
X0177439Y0071239D02*
X0177045Y0071239D01*
X0177045Y0071631D02*
X0177439Y0071631D01*
X0177439Y0072023D02*
X0177045Y0072023D01*
X0177045Y0072416D02*
X0177439Y0072416D01*
X0177938Y0075456D02*
X0176547Y0075456D01*
X0175262Y0075988D01*
X0174278Y0076972D01*
X0173745Y0078257D01*
X0173745Y0079648D01*
X0174278Y0080934D01*
X0175262Y0081917D01*
X0176547Y0082450D01*
X0177938Y0082450D01*
X0179223Y0081917D01*
X0180207Y0080934D01*
X0180739Y0079648D01*
X0180739Y0078257D01*
X0180207Y0076972D01*
X0179223Y0075988D01*
X0177938Y0075456D01*
X0178173Y0075553D02*
X0209913Y0075553D01*
X0210305Y0075161D02*
X0151074Y0075161D01*
X0151074Y0074769D02*
X0210697Y0074769D01*
X0211089Y0074377D02*
X0151074Y0074377D01*
X0151074Y0073985D02*
X0211481Y0073985D01*
X0211874Y0073592D02*
X0151074Y0073592D01*
X0151074Y0073200D02*
X0212266Y0073200D01*
X0209520Y0075946D02*
X0179120Y0075946D01*
X0179573Y0076338D02*
X0209128Y0076338D01*
X0208736Y0076730D02*
X0179965Y0076730D01*
X0180269Y0077122D02*
X0208344Y0077122D01*
X0207825Y0077514D02*
X0180432Y0077514D01*
X0180594Y0077907D02*
X0206879Y0077907D01*
X0206415Y0078299D02*
X0180739Y0078299D01*
X0180739Y0078691D02*
X0206023Y0078691D01*
X0205715Y0079083D02*
X0180739Y0079083D01*
X0180739Y0079476D02*
X0205552Y0079476D01*
X0205390Y0079868D02*
X0180648Y0079868D01*
X0180486Y0080260D02*
X0205242Y0080260D01*
X0205242Y0080652D02*
X0180323Y0080652D01*
X0180096Y0081044D02*
X0205242Y0081044D01*
X0205242Y0081437D02*
X0179704Y0081437D01*
X0179312Y0081829D02*
X0205329Y0081829D01*
X0205492Y0082221D02*
X0178490Y0082221D01*
X0175995Y0082221D02*
X0151074Y0082221D01*
X0151074Y0082613D02*
X0205654Y0082613D01*
X0205877Y0083005D02*
X0151074Y0083005D01*
X0151074Y0083398D02*
X0206269Y0083398D01*
X0206662Y0083790D02*
X0151074Y0083790D01*
X0151074Y0084182D02*
X0207249Y0084182D01*
X0207641Y0084574D02*
X0151074Y0084574D01*
X0151074Y0084966D02*
X0208033Y0084966D01*
X0208425Y0085359D02*
X0151074Y0085359D01*
X0151074Y0085751D02*
X0208818Y0085751D01*
X0209210Y0086143D02*
X0151074Y0086143D01*
X0151074Y0086535D02*
X0209602Y0086535D01*
X0210063Y0086928D02*
X0151074Y0086928D01*
X0151074Y0087320D02*
X0211010Y0087320D01*
X0211240Y0091388D02*
X0212819Y0092042D01*
X0214028Y0093251D01*
X0214682Y0094830D01*
X0214682Y0096540D01*
X0214028Y0098119D01*
X0212819Y0099328D01*
X0211240Y0099982D01*
X0202930Y0099982D01*
X0201351Y0099328D01*
X0200142Y0098119D01*
X0199488Y0096540D01*
X0199488Y0094830D01*
X0200142Y0093251D01*
X0201351Y0092042D01*
X0202930Y0091388D01*
X0211240Y0091388D01*
X0211833Y0091634D02*
X0251589Y0091634D01*
X0251589Y0091242D02*
X0156726Y0091242D01*
X0156492Y0091145D02*
X0158161Y0091836D01*
X0159438Y0093113D01*
X0159818Y0094032D01*
X0160142Y0093251D01*
X0161351Y0092042D01*
X0162930Y0091388D01*
X0171240Y0091388D01*
X0172819Y0092042D01*
X0174028Y0093251D01*
X0174682Y0094830D01*
X0174682Y0096540D01*
X0174028Y0098119D01*
X0172819Y0099328D01*
X0171240Y0099982D01*
X0162930Y0099982D01*
X0161351Y0099328D01*
X0160142Y0098119D01*
X0159818Y0097338D01*
X0159438Y0098257D01*
X0158161Y0099534D01*
X0156492Y0100225D01*
X0154686Y0100225D01*
X0153017Y0099534D01*
X0151740Y0098257D01*
X0151049Y0096588D01*
X0151049Y0094782D01*
X0151740Y0093113D01*
X0153017Y0091836D01*
X0154686Y0091145D01*
X0156492Y0091145D01*
X0157673Y0091634D02*
X0162336Y0091634D01*
X0161390Y0092026D02*
X0158351Y0092026D01*
X0158743Y0092419D02*
X0160975Y0092419D01*
X0160582Y0092811D02*
X0159135Y0092811D01*
X0159475Y0093203D02*
X0160190Y0093203D01*
X0160000Y0093595D02*
X0159637Y0093595D01*
X0159800Y0093987D02*
X0159837Y0093987D01*
X0159893Y0097517D02*
X0159744Y0097517D01*
X0159582Y0097909D02*
X0160055Y0097909D01*
X0160325Y0098302D02*
X0159393Y0098302D01*
X0159001Y0098694D02*
X0160717Y0098694D01*
X0161109Y0099086D02*
X0158608Y0099086D01*
X0158216Y0099478D02*
X0161714Y0099478D01*
X0162661Y0099871D02*
X0157348Y0099871D01*
X0153830Y0099871D02*
X0144557Y0099871D01*
X0144076Y0100263D02*
X0251589Y0100263D01*
X0251589Y0100655D02*
X0143594Y0100655D01*
X0143112Y0101047D02*
X0251589Y0101047D01*
X0251589Y0101439D02*
X0142630Y0101439D01*
X0142149Y0101832D02*
X0251589Y0101832D01*
X0251589Y0102224D02*
X0141667Y0102224D01*
X0141185Y0102616D02*
X0251589Y0102616D01*
X0251589Y0103008D02*
X0140721Y0103008D01*
X0140401Y0103400D02*
X0251589Y0103400D01*
X0251589Y0103793D02*
X0140009Y0103793D01*
X0139617Y0104185D02*
X0251589Y0104185D01*
X0251589Y0104577D02*
X0139224Y0104577D01*
X0138832Y0104969D02*
X0251589Y0104969D01*
X0251589Y0105362D02*
X0006439Y0105362D01*
X0006439Y0105754D02*
X0251589Y0105754D01*
X0251589Y0106146D02*
X0006439Y0106146D01*
X0006439Y0106538D02*
X0251589Y0106538D01*
X0251589Y0106930D02*
X0006439Y0106930D01*
X0006439Y0107323D02*
X0251589Y0107323D01*
X0251589Y0107715D02*
X0006439Y0107715D01*
X0006439Y0108107D02*
X0251589Y0108107D01*
X0251589Y0108499D02*
X0006439Y0108499D01*
X0006439Y0108891D02*
X0251589Y0108891D01*
X0251589Y0109284D02*
X0023303Y0109284D01*
X0023711Y0109453D02*
X0024695Y0110437D01*
X0025227Y0111722D01*
X0025227Y0113113D01*
X0024695Y0114398D01*
X0023711Y0115382D01*
X0022426Y0115914D01*
X0021035Y0115914D01*
X0019750Y0115382D01*
X0018766Y0114398D01*
X0018234Y0113113D01*
X0018234Y0111722D01*
X0018766Y0110437D01*
X0019750Y0109453D01*
X0021035Y0108920D01*
X0022426Y0108920D01*
X0023711Y0109453D01*
X0023934Y0109676D02*
X0172882Y0109676D01*
X0172953Y0109605D02*
X0174329Y0109605D01*
X0174329Y0113205D01*
X0170729Y0113205D01*
X0170729Y0111829D01*
X0172953Y0109605D01*
X0172490Y0110068D02*
X0146279Y0110068D01*
X0146016Y0109805D02*
X0148123Y0111912D01*
X0148123Y0114891D01*
X0146016Y0116998D01*
X0143036Y0116998D01*
X0140929Y0114891D01*
X0140929Y0111912D01*
X0143036Y0109805D01*
X0146016Y0109805D01*
X0146671Y0110460D02*
X0172098Y0110460D01*
X0171705Y0110852D02*
X0147063Y0110852D01*
X0147456Y0111245D02*
X0171313Y0111245D01*
X0170921Y0111637D02*
X0147848Y0111637D01*
X0148123Y0112029D02*
X0170729Y0112029D01*
X0170729Y0112421D02*
X0148123Y0112421D01*
X0148123Y0112814D02*
X0170729Y0112814D01*
X0170729Y0113598D02*
X0174329Y0113598D01*
X0148123Y0113598D01*
X0148123Y0113990D02*
X0170729Y0113990D01*
X0170729Y0113598D02*
X0170729Y0114974D01*
X0172953Y0117198D01*
X0174329Y0117198D01*
X0174329Y0113598D01*
X0174329Y0113205D01*
X0174723Y0113205D01*
X0174723Y0113598D01*
X0182268Y0113598D01*
X0182268Y0113990D02*
X0178323Y0113990D01*
X0178323Y0113598D02*
X0178323Y0114974D01*
X0176098Y0117198D01*
X0174723Y0117198D01*
X0174723Y0113598D01*
X0178323Y0113598D01*
X0178323Y0113205D02*
X0174723Y0113205D01*
X0174723Y0109605D01*
X0176098Y0109605D01*
X0178323Y0111829D01*
X0178323Y0113205D01*
X0178323Y0112814D02*
X0182268Y0112814D01*
X0182268Y0113206D02*
X0174723Y0113206D01*
X0174723Y0112814D02*
X0174329Y0112814D01*
X0174329Y0113206D02*
X0148123Y0113206D01*
X0148123Y0114382D02*
X0170729Y0114382D01*
X0170729Y0114775D02*
X0148123Y0114775D01*
X0147847Y0115167D02*
X0170921Y0115167D01*
X0171314Y0115559D02*
X0147455Y0115559D01*
X0147063Y0115951D02*
X0171706Y0115951D01*
X0172098Y0116343D02*
X0146671Y0116343D01*
X0146278Y0116736D02*
X0172490Y0116736D01*
X0172883Y0117128D02*
X0006439Y0117128D01*
X0006439Y0117520D02*
X0212899Y0117520D01*
X0212899Y0117128D02*
X0176169Y0117128D01*
X0176561Y0116736D02*
X0184112Y0116736D01*
X0184375Y0116998D02*
X0182268Y0114891D01*
X0182268Y0111912D01*
X0184375Y0109805D01*
X0187354Y0109805D01*
X0189461Y0111912D01*
X0189461Y0114891D01*
X0187354Y0116998D01*
X0184375Y0116998D01*
X0183720Y0116343D02*
X0176953Y0116343D01*
X0177346Y0115951D02*
X0183327Y0115951D01*
X0182935Y0115559D02*
X0177738Y0115559D01*
X0178130Y0115167D02*
X0182543Y0115167D01*
X0182268Y0114775D02*
X0178323Y0114775D01*
X0178323Y0114382D02*
X0182268Y0114382D01*
X0182268Y0112421D02*
X0178323Y0112421D01*
X0178323Y0112029D02*
X0182268Y0112029D01*
X0182542Y0111637D02*
X0178131Y0111637D01*
X0177738Y0111245D02*
X0182935Y0111245D01*
X0183327Y0110852D02*
X0177346Y0110852D01*
X0176954Y0110460D02*
X0183719Y0110460D01*
X0184111Y0110068D02*
X0176562Y0110068D01*
X0176170Y0109676D02*
X0251589Y0109676D01*
X0251589Y0110068D02*
X0217618Y0110068D01*
X0217354Y0109805D02*
X0219461Y0111912D01*
X0219461Y0114891D01*
X0218830Y0115523D01*
X0218830Y0140330D01*
X0218378Y0141420D01*
X0214205Y0145593D01*
X0213371Y0146427D01*
X0212281Y0146879D01*
X0210717Y0146879D01*
X0209434Y0147410D01*
X0208043Y0147410D01*
X0206758Y0146878D01*
X0205774Y0145894D01*
X0205242Y0144609D01*
X0205242Y0143218D01*
X0205774Y0141933D01*
X0206758Y0140949D01*
X0208043Y0140417D01*
X0209434Y0140417D01*
X0210537Y0140874D01*
X0212899Y0138512D01*
X0212899Y0115523D01*
X0212268Y0114891D01*
X0212268Y0111912D01*
X0214375Y0109805D01*
X0217354Y0109805D01*
X0218010Y0110460D02*
X0251589Y0110460D01*
X0251589Y0110852D02*
X0218402Y0110852D01*
X0218794Y0111245D02*
X0251589Y0111245D01*
X0251589Y0111637D02*
X0219186Y0111637D01*
X0219461Y0112029D02*
X0251589Y0112029D01*
X0251589Y0112421D02*
X0219461Y0112421D01*
X0219461Y0112814D02*
X0251589Y0112814D01*
X0251589Y0113206D02*
X0219461Y0113206D01*
X0219461Y0113598D02*
X0251589Y0113598D01*
X0251589Y0113990D02*
X0219461Y0113990D01*
X0219461Y0114382D02*
X0251589Y0114382D01*
X0251589Y0114775D02*
X0219461Y0114775D01*
X0219186Y0115167D02*
X0251589Y0115167D01*
X0251589Y0115559D02*
X0218830Y0115559D01*
X0218830Y0115951D02*
X0251589Y0115951D01*
X0251589Y0116343D02*
X0218830Y0116343D01*
X0218830Y0116736D02*
X0251589Y0116736D01*
X0251589Y0117128D02*
X0218830Y0117128D01*
X0218830Y0117520D02*
X0251589Y0117520D01*
X0251589Y0117912D02*
X0218830Y0117912D01*
X0218830Y0118305D02*
X0251589Y0118305D01*
X0251589Y0118697D02*
X0218830Y0118697D01*
X0218830Y0119089D02*
X0251589Y0119089D01*
X0251589Y0119481D02*
X0218830Y0119481D01*
X0218830Y0119873D02*
X0251589Y0119873D01*
X0251589Y0120266D02*
X0218830Y0120266D01*
X0218830Y0120658D02*
X0251589Y0120658D01*
X0251589Y0121050D02*
X0218830Y0121050D01*
X0218830Y0121442D02*
X0251589Y0121442D01*
X0251589Y0121834D02*
X0218830Y0121834D01*
X0218830Y0122227D02*
X0251589Y0122227D01*
X0251589Y0122619D02*
X0218830Y0122619D01*
X0218830Y0123011D02*
X0251589Y0123011D01*
X0251589Y0123403D02*
X0218830Y0123403D01*
X0218830Y0123795D02*
X0251589Y0123795D01*
X0251589Y0124188D02*
X0218830Y0124188D01*
X0218830Y0124580D02*
X0251589Y0124580D01*
X0251589Y0124972D02*
X0218830Y0124972D01*
X0218830Y0125364D02*
X0233780Y0125364D01*
X0233573Y0125450D02*
X0234300Y0125149D01*
X0235072Y0124995D01*
X0238069Y0124995D01*
X0238069Y0128795D01*
X0238463Y0128795D01*
X0238463Y0124995D01*
X0241460Y0124995D01*
X0242232Y0125149D01*
X0242959Y0125450D01*
X0243614Y0125888D01*
X0244171Y0126444D01*
X0244608Y0127099D01*
X0244909Y0127826D01*
X0245063Y0128598D01*
X0245063Y0128795D01*
X0238463Y0128795D01*
X0238463Y0129189D01*
X0245063Y0129189D01*
X0245063Y0129386D01*
X0244909Y0130158D01*
X0244608Y0130885D01*
X0244171Y0131540D01*
X0243614Y0132097D01*
X0242959Y0132534D01*
X0242232Y0132835D01*
X0241460Y0132989D01*
X0238463Y0132989D01*
X0238463Y0129189D01*
X0238069Y0129189D01*
X0238069Y0128795D01*
X0231469Y0128795D01*
X0231469Y0128598D01*
X0231623Y0127826D01*
X0231924Y0127099D01*
X0232361Y0126444D01*
X0232918Y0125888D01*
X0233573Y0125450D01*
X0233114Y0125757D02*
X0218830Y0125757D01*
X0218830Y0126149D02*
X0232657Y0126149D01*
X0232297Y0126541D02*
X0218830Y0126541D01*
X0218830Y0126933D02*
X0232035Y0126933D01*
X0231830Y0127325D02*
X0218830Y0127325D01*
X0218830Y0127718D02*
X0231668Y0127718D01*
X0231566Y0128110D02*
X0218830Y0128110D01*
X0218830Y0128502D02*
X0231488Y0128502D01*
X0231469Y0129189D02*
X0238069Y0129189D01*
X0238069Y0132989D01*
X0235072Y0132989D01*
X0234300Y0132835D01*
X0233573Y0132534D01*
X0232918Y0132097D01*
X0232361Y0131540D01*
X0231924Y0130885D01*
X0231623Y0130158D01*
X0231469Y0129386D01*
X0231469Y0129189D01*
X0231469Y0129286D02*
X0218830Y0129286D01*
X0218830Y0128894D02*
X0238069Y0128894D01*
X0238069Y0128502D02*
X0238463Y0128502D01*
X0238463Y0128110D02*
X0238069Y0128110D01*
X0238069Y0127718D02*
X0238463Y0127718D01*
X0238463Y0127325D02*
X0238069Y0127325D01*
X0238069Y0126933D02*
X0238463Y0126933D01*
X0238463Y0126541D02*
X0238069Y0126541D01*
X0238069Y0126149D02*
X0238463Y0126149D01*
X0238463Y0125757D02*
X0238069Y0125757D01*
X0238069Y0125364D02*
X0238463Y0125364D01*
X0238463Y0128894D02*
X0251589Y0128894D01*
X0251589Y0128502D02*
X0245044Y0128502D01*
X0244966Y0128110D02*
X0251589Y0128110D01*
X0251589Y0127718D02*
X0244864Y0127718D01*
X0244702Y0127325D02*
X0251589Y0127325D01*
X0251589Y0126933D02*
X0244497Y0126933D01*
X0244235Y0126541D02*
X0251589Y0126541D01*
X0251589Y0126149D02*
X0243875Y0126149D01*
X0243418Y0125757D02*
X0251589Y0125757D01*
X0251589Y0125364D02*
X0242752Y0125364D01*
X0245063Y0129286D02*
X0251589Y0129286D01*
X0251589Y0129679D02*
X0245005Y0129679D01*
X0244927Y0130071D02*
X0251589Y0130071D01*
X0251589Y0130463D02*
X0244783Y0130463D01*
X0244620Y0130855D02*
X0251589Y0130855D01*
X0251589Y0131248D02*
X0244366Y0131248D01*
X0244071Y0131640D02*
X0251589Y0131640D01*
X0251589Y0132032D02*
X0243679Y0132032D01*
X0243124Y0132424D02*
X0251589Y0132424D01*
X0251589Y0132816D02*
X0242278Y0132816D01*
X0241821Y0135195D02*
X0243217Y0135773D01*
X0244285Y0136841D01*
X0244863Y0138237D01*
X0244863Y0139747D01*
X0244285Y0141143D01*
X0243217Y0142211D01*
X0241821Y0142789D01*
X0234711Y0142789D01*
X0233315Y0142211D01*
X0232247Y0141143D01*
X0231669Y0139747D01*
X0231669Y0138237D01*
X0232247Y0136841D01*
X0233315Y0135773D01*
X0234711Y0135195D01*
X0241821Y0135195D01*
X0242706Y0135562D02*
X0251589Y0135562D01*
X0251589Y0135954D02*
X0243397Y0135954D01*
X0243790Y0136346D02*
X0251589Y0136346D01*
X0251589Y0136738D02*
X0244182Y0136738D01*
X0244405Y0137131D02*
X0251589Y0137131D01*
X0251589Y0137523D02*
X0244567Y0137523D01*
X0244730Y0137915D02*
X0251589Y0137915D01*
X0251589Y0138307D02*
X0244863Y0138307D01*
X0244863Y0138700D02*
X0251589Y0138700D01*
X0251589Y0139092D02*
X0244863Y0139092D01*
X0244863Y0139484D02*
X0251589Y0139484D01*
X0251589Y0139876D02*
X0244809Y0139876D01*
X0244647Y0140268D02*
X0251589Y0140268D01*
X0251589Y0140661D02*
X0244485Y0140661D01*
X0244322Y0141053D02*
X0251589Y0141053D01*
X0251589Y0141445D02*
X0243983Y0141445D01*
X0243590Y0141837D02*
X0251589Y0141837D01*
X0251589Y0142229D02*
X0243172Y0142229D01*
X0242225Y0142622D02*
X0251589Y0142622D01*
X0251589Y0143014D02*
X0216784Y0143014D01*
X0216392Y0143406D02*
X0251589Y0143406D01*
X0251589Y0143798D02*
X0216000Y0143798D01*
X0215608Y0144191D02*
X0251589Y0144191D01*
X0251589Y0144583D02*
X0215215Y0144583D01*
X0214823Y0144975D02*
X0251589Y0144975D01*
X0251589Y0145367D02*
X0242236Y0145367D01*
X0241821Y0145195D02*
X0243217Y0145773D01*
X0244285Y0146841D01*
X0244863Y0148237D01*
X0244863Y0149747D01*
X0244543Y0150519D01*
X0245366Y0151341D01*
X0245877Y0152576D01*
X0245877Y0160286D01*
X0246673Y0160286D01*
X0248252Y0160940D01*
X0249461Y0162149D01*
X0250115Y0163728D01*
X0250115Y0165437D01*
X0249461Y0167017D01*
X0248252Y0168225D01*
X0246673Y0168880D01*
X0238363Y0168880D01*
X0236784Y0168225D01*
X0235575Y0167017D01*
X0234921Y0165437D01*
X0234921Y0163728D01*
X0235575Y0162149D01*
X0236784Y0160940D01*
X0238363Y0160286D01*
X0239159Y0160286D01*
X0239159Y0154635D01*
X0237312Y0152789D01*
X0234711Y0152789D01*
X0233315Y0152211D01*
X0232247Y0151143D01*
X0231669Y0149747D01*
X0231669Y0148237D01*
X0232247Y0146841D01*
X0233315Y0145773D01*
X0234711Y0145195D01*
X0241821Y0145195D01*
X0243183Y0145759D02*
X0251589Y0145759D01*
X0251589Y0146152D02*
X0243595Y0146152D01*
X0243987Y0146544D02*
X0251589Y0146544D01*
X0251589Y0146936D02*
X0244324Y0146936D01*
X0244486Y0147328D02*
X0251589Y0147328D01*
X0251589Y0147720D02*
X0244649Y0147720D01*
X0244811Y0148113D02*
X0251589Y0148113D01*
X0251589Y0148505D02*
X0244863Y0148505D01*
X0244863Y0148897D02*
X0251589Y0148897D01*
X0251589Y0149289D02*
X0244863Y0149289D01*
X0244863Y0149681D02*
X0251589Y0149681D01*
X0251589Y0150074D02*
X0244728Y0150074D01*
X0244565Y0150466D02*
X0251589Y0150466D01*
X0251589Y0150858D02*
X0244882Y0150858D01*
X0245275Y0151250D02*
X0251589Y0151250D01*
X0251589Y0151643D02*
X0245490Y0151643D01*
X0245653Y0152035D02*
X0251589Y0152035D01*
X0251589Y0152427D02*
X0245815Y0152427D01*
X0245877Y0152819D02*
X0251589Y0152819D01*
X0251589Y0153211D02*
X0245877Y0153211D01*
X0245877Y0153604D02*
X0251589Y0153604D01*
X0251589Y0153996D02*
X0245877Y0153996D01*
X0245877Y0154388D02*
X0251589Y0154388D01*
X0251589Y0154780D02*
X0245877Y0154780D01*
X0245877Y0155172D02*
X0251589Y0155172D01*
X0251589Y0155565D02*
X0245877Y0155565D01*
X0245877Y0155957D02*
X0251589Y0155957D01*
X0251589Y0156349D02*
X0245877Y0156349D01*
X0245877Y0156741D02*
X0251589Y0156741D01*
X0251589Y0157134D02*
X0245877Y0157134D01*
X0245877Y0157526D02*
X0251589Y0157526D01*
X0251589Y0157918D02*
X0245877Y0157918D01*
X0245877Y0158310D02*
X0251589Y0158310D01*
X0251589Y0158702D02*
X0245877Y0158702D01*
X0245877Y0159095D02*
X0251589Y0159095D01*
X0251589Y0159487D02*
X0245877Y0159487D01*
X0245877Y0159879D02*
X0251589Y0159879D01*
X0251589Y0160271D02*
X0245877Y0160271D01*
X0247584Y0160663D02*
X0251589Y0160663D01*
X0251589Y0161056D02*
X0248368Y0161056D01*
X0248760Y0161448D02*
X0251589Y0161448D01*
X0251589Y0161840D02*
X0249152Y0161840D01*
X0249495Y0162232D02*
X0251589Y0162232D01*
X0251589Y0162624D02*
X0249658Y0162624D01*
X0249820Y0163017D02*
X0251589Y0163017D01*
X0251589Y0163409D02*
X0249983Y0163409D01*
X0250115Y0163801D02*
X0251589Y0163801D01*
X0251589Y0164193D02*
X0250115Y0164193D01*
X0250115Y0164586D02*
X0251589Y0164586D01*
X0251589Y0164978D02*
X0250115Y0164978D01*
X0250115Y0165370D02*
X0251589Y0165370D01*
X0251589Y0165762D02*
X0249980Y0165762D01*
X0249818Y0166154D02*
X0251589Y0166154D01*
X0251589Y0166547D02*
X0249655Y0166547D01*
X0249493Y0166939D02*
X0251589Y0166939D01*
X0251589Y0167331D02*
X0249146Y0167331D01*
X0248754Y0167723D02*
X0251589Y0167723D01*
X0251589Y0168115D02*
X0248362Y0168115D01*
X0247570Y0168508D02*
X0251589Y0168508D01*
X0251589Y0168900D02*
X0207083Y0168900D01*
X0206871Y0168969D02*
X0206172Y0169080D01*
X0202715Y0169080D01*
X0202715Y0164780D01*
X0202321Y0164780D01*
X0202321Y0169080D01*
X0198864Y0169080D01*
X0198165Y0168969D01*
X0197492Y0168750D01*
X0196861Y0168429D01*
X0196288Y0168013D01*
X0195788Y0167512D01*
X0195372Y0166940D01*
X0195051Y0166309D01*
X0194832Y0165636D01*
X0194721Y0164937D01*
X0194721Y0164780D01*
X0202321Y0164780D01*
X0202321Y0164386D01*
X0194721Y0164386D01*
X0194721Y0164229D01*
X0194832Y0163530D01*
X0195051Y0162856D01*
X0195372Y0162226D01*
X0195788Y0161653D01*
X0196288Y0161153D01*
X0196861Y0160737D01*
X0197492Y0160415D01*
X0198165Y0160197D01*
X0198864Y0160086D01*
X0202321Y0160086D01*
X0202321Y0164386D01*
X0202715Y0164386D01*
X0202715Y0164780D01*
X0210315Y0164780D01*
X0210315Y0164937D01*
X0210204Y0165636D01*
X0209985Y0166309D01*
X0209664Y0166940D01*
X0209248Y0167512D01*
X0208747Y0168013D01*
X0208175Y0168429D01*
X0207544Y0168750D01*
X0206871Y0168969D01*
X0208020Y0168508D02*
X0237466Y0168508D01*
X0236674Y0168115D02*
X0208606Y0168115D01*
X0209037Y0167723D02*
X0236282Y0167723D01*
X0235890Y0167331D02*
X0209380Y0167331D01*
X0209664Y0166939D02*
X0235543Y0166939D01*
X0235381Y0166547D02*
X0209864Y0166547D01*
X0210036Y0166154D02*
X0235218Y0166154D01*
X0235056Y0165762D02*
X0210163Y0165762D01*
X0210246Y0165370D02*
X0234921Y0165370D01*
X0234921Y0164978D02*
X0210308Y0164978D01*
X0210315Y0164386D02*
X0202715Y0164386D01*
X0202715Y0160086D01*
X0206172Y0160086D01*
X0206871Y0160197D01*
X0207544Y0160415D01*
X0208175Y0160737D01*
X0208747Y0161153D01*
X0209248Y0161653D01*
X0209664Y0162226D01*
X0209985Y0162856D01*
X0210204Y0163530D01*
X0210315Y0164229D01*
X0210315Y0164386D01*
X0210309Y0164193D02*
X0234921Y0164193D01*
X0234921Y0163801D02*
X0210247Y0163801D01*
X0210165Y0163409D02*
X0235053Y0163409D01*
X0235216Y0163017D02*
X0210037Y0163017D01*
X0209867Y0162624D02*
X0235378Y0162624D01*
X0235541Y0162232D02*
X0209667Y0162232D01*
X0209384Y0161840D02*
X0235884Y0161840D01*
X0236276Y0161448D02*
X0209043Y0161448D01*
X0208614Y0161056D02*
X0236668Y0161056D01*
X0237452Y0160663D02*
X0208031Y0160663D01*
X0207101Y0160271D02*
X0239159Y0160271D01*
X0239159Y0159879D02*
X0149295Y0159879D01*
X0149687Y0159487D02*
X0239159Y0159487D01*
X0239159Y0159095D02*
X0150079Y0159095D01*
X0150471Y0158702D02*
X0239159Y0158702D01*
X0239159Y0158310D02*
X0150864Y0158310D01*
X0151256Y0157918D02*
X0239159Y0157918D01*
X0239159Y0157526D02*
X0151648Y0157526D01*
X0152040Y0157134D02*
X0239159Y0157134D01*
X0239159Y0156741D02*
X0152433Y0156741D01*
X0152825Y0156349D02*
X0239159Y0156349D01*
X0239159Y0155957D02*
X0153217Y0155957D01*
X0153609Y0155565D02*
X0239159Y0155565D01*
X0239159Y0155172D02*
X0154001Y0155172D01*
X0154394Y0154780D02*
X0239159Y0154780D01*
X0238911Y0154388D02*
X0154786Y0154388D01*
X0155178Y0153996D02*
X0238519Y0153996D01*
X0238127Y0153604D02*
X0155570Y0153604D01*
X0155523Y0153651D02*
X0135838Y0173336D01*
X0134603Y0173847D01*
X0133267Y0173847D01*
X0127362Y0173847D01*
X0126127Y0173336D01*
X0125182Y0172391D01*
X0124671Y0171156D01*
X0124671Y0169820D01*
X0125182Y0168585D01*
X0126127Y0167641D01*
X0127362Y0167129D01*
X0132544Y0167129D01*
X0150261Y0149412D01*
X0150261Y0136355D01*
X0150773Y0135121D01*
X0151718Y0134176D01*
X0152952Y0133665D01*
X0154288Y0133665D01*
X0155523Y0134176D01*
X0156468Y0135121D01*
X0156979Y0136355D01*
X0156979Y0151471D01*
X0156468Y0152706D01*
X0155523Y0153651D01*
X0155962Y0153211D02*
X0237735Y0153211D01*
X0237343Y0152819D02*
X0156355Y0152819D01*
X0156583Y0152427D02*
X0233837Y0152427D01*
X0233139Y0152035D02*
X0156746Y0152035D01*
X0156908Y0151643D02*
X0232747Y0151643D01*
X0232355Y0151250D02*
X0156979Y0151250D01*
X0156979Y0150858D02*
X0232129Y0150858D01*
X0231967Y0150466D02*
X0156979Y0150466D01*
X0156979Y0150074D02*
X0231804Y0150074D01*
X0231669Y0149681D02*
X0156979Y0149681D01*
X0156979Y0149289D02*
X0231669Y0149289D01*
X0231669Y0148897D02*
X0156979Y0148897D01*
X0156979Y0148505D02*
X0231669Y0148505D01*
X0231721Y0148113D02*
X0156979Y0148113D01*
X0156979Y0147720D02*
X0231883Y0147720D01*
X0232045Y0147328D02*
X0209632Y0147328D01*
X0210579Y0146936D02*
X0232208Y0146936D01*
X0232545Y0146544D02*
X0213090Y0146544D01*
X0213647Y0146152D02*
X0232937Y0146152D01*
X0233349Y0145759D02*
X0214039Y0145759D01*
X0214431Y0145367D02*
X0234296Y0145367D01*
X0234307Y0142622D02*
X0217177Y0142622D01*
X0217569Y0142229D02*
X0233360Y0142229D01*
X0232942Y0141837D02*
X0217961Y0141837D01*
X0218353Y0141445D02*
X0232549Y0141445D01*
X0232210Y0141053D02*
X0218530Y0141053D01*
X0218693Y0140661D02*
X0232047Y0140661D01*
X0231885Y0140268D02*
X0218830Y0140268D01*
X0218830Y0139876D02*
X0231722Y0139876D01*
X0231669Y0139484D02*
X0218830Y0139484D01*
X0218830Y0139092D02*
X0231669Y0139092D01*
X0231669Y0138700D02*
X0218830Y0138700D01*
X0218830Y0138307D02*
X0231669Y0138307D01*
X0231802Y0137915D02*
X0218830Y0137915D01*
X0218830Y0137523D02*
X0231965Y0137523D01*
X0232127Y0137131D02*
X0218830Y0137131D01*
X0218830Y0136738D02*
X0232350Y0136738D01*
X0232742Y0136346D02*
X0218830Y0136346D01*
X0218830Y0135954D02*
X0233134Y0135954D01*
X0233826Y0135562D02*
X0218830Y0135562D01*
X0218830Y0135170D02*
X0251589Y0135170D01*
X0251589Y0134777D02*
X0218830Y0134777D01*
X0218830Y0134385D02*
X0251589Y0134385D01*
X0251589Y0133993D02*
X0218830Y0133993D01*
X0218830Y0133601D02*
X0251589Y0133601D01*
X0251589Y0133209D02*
X0218830Y0133209D01*
X0218830Y0132816D02*
X0234254Y0132816D01*
X0233408Y0132424D02*
X0218830Y0132424D01*
X0218830Y0132032D02*
X0232853Y0132032D01*
X0232461Y0131640D02*
X0218830Y0131640D01*
X0218830Y0131248D02*
X0232166Y0131248D01*
X0231912Y0130855D02*
X0218830Y0130855D01*
X0218830Y0130463D02*
X0231749Y0130463D01*
X0231605Y0130071D02*
X0218830Y0130071D01*
X0218830Y0129679D02*
X0231527Y0129679D01*
X0238069Y0129679D02*
X0238463Y0129679D01*
X0238463Y0130071D02*
X0238069Y0130071D01*
X0238069Y0130463D02*
X0238463Y0130463D01*
X0238463Y0130855D02*
X0238069Y0130855D01*
X0238069Y0131248D02*
X0238463Y0131248D01*
X0238463Y0131640D02*
X0238069Y0131640D01*
X0238069Y0132032D02*
X0238463Y0132032D01*
X0238463Y0132424D02*
X0238069Y0132424D01*
X0238069Y0132816D02*
X0238463Y0132816D01*
X0238463Y0129286D02*
X0238069Y0129286D01*
X0212899Y0129286D02*
X0006439Y0129286D01*
X0006439Y0128894D02*
X0212899Y0128894D01*
X0212899Y0128502D02*
X0006439Y0128502D01*
X0006439Y0128110D02*
X0212899Y0128110D01*
X0212899Y0127718D02*
X0006439Y0127718D01*
X0006439Y0127325D02*
X0212899Y0127325D01*
X0212899Y0126933D02*
X0006439Y0126933D01*
X0006439Y0126541D02*
X0212899Y0126541D01*
X0212899Y0126149D02*
X0006439Y0126149D01*
X0006439Y0125757D02*
X0212899Y0125757D01*
X0212899Y0125364D02*
X0006439Y0125364D01*
X0006439Y0124972D02*
X0212899Y0124972D01*
X0212899Y0124580D02*
X0006439Y0124580D01*
X0006439Y0124188D02*
X0212899Y0124188D01*
X0212899Y0123795D02*
X0006439Y0123795D01*
X0006439Y0123403D02*
X0212899Y0123403D01*
X0212899Y0123011D02*
X0006439Y0123011D01*
X0006439Y0122619D02*
X0212899Y0122619D01*
X0212899Y0122227D02*
X0006439Y0122227D01*
X0006439Y0121834D02*
X0212899Y0121834D01*
X0212899Y0121442D02*
X0006439Y0121442D01*
X0006439Y0121050D02*
X0212899Y0121050D01*
X0212899Y0120658D02*
X0006439Y0120658D01*
X0006439Y0120266D02*
X0212899Y0120266D01*
X0212899Y0119873D02*
X0006439Y0119873D01*
X0006439Y0119481D02*
X0212899Y0119481D01*
X0212899Y0119089D02*
X0006439Y0119089D01*
X0006439Y0118697D02*
X0212899Y0118697D01*
X0212899Y0118305D02*
X0006439Y0118305D01*
X0006439Y0117912D02*
X0212899Y0117912D01*
X0212899Y0116736D02*
X0187617Y0116736D01*
X0188009Y0116343D02*
X0212899Y0116343D01*
X0212899Y0115951D02*
X0188401Y0115951D01*
X0188794Y0115559D02*
X0212899Y0115559D01*
X0212543Y0115167D02*
X0189186Y0115167D01*
X0189461Y0114775D02*
X0212268Y0114775D01*
X0212268Y0114382D02*
X0189461Y0114382D01*
X0189461Y0113990D02*
X0212268Y0113990D01*
X0212268Y0113598D02*
X0189461Y0113598D01*
X0189461Y0113206D02*
X0212268Y0113206D01*
X0212268Y0112814D02*
X0189461Y0112814D01*
X0189461Y0112421D02*
X0212268Y0112421D01*
X0212268Y0112029D02*
X0189461Y0112029D01*
X0189186Y0111637D02*
X0212542Y0111637D01*
X0212935Y0111245D02*
X0188794Y0111245D01*
X0188402Y0110852D02*
X0213327Y0110852D01*
X0213719Y0110460D02*
X0188010Y0110460D01*
X0187618Y0110068D02*
X0214111Y0110068D01*
X0211508Y0099871D02*
X0251589Y0099871D01*
X0251589Y0099478D02*
X0212455Y0099478D01*
X0213060Y0099086D02*
X0251589Y0099086D01*
X0251589Y0098694D02*
X0213453Y0098694D01*
X0213845Y0098302D02*
X0251589Y0098302D01*
X0251589Y0097909D02*
X0214114Y0097909D01*
X0214277Y0097517D02*
X0251589Y0097517D01*
X0251589Y0097125D02*
X0214439Y0097125D01*
X0214602Y0096733D02*
X0251589Y0096733D01*
X0251589Y0096341D02*
X0214682Y0096341D01*
X0214682Y0095948D02*
X0251589Y0095948D01*
X0251589Y0095556D02*
X0214682Y0095556D01*
X0214682Y0095164D02*
X0251589Y0095164D01*
X0251589Y0094772D02*
X0214657Y0094772D01*
X0214495Y0094380D02*
X0251589Y0094380D01*
X0251589Y0093987D02*
X0214333Y0093987D01*
X0214170Y0093595D02*
X0251589Y0093595D01*
X0251589Y0093203D02*
X0213979Y0093203D01*
X0213587Y0092811D02*
X0251589Y0092811D01*
X0251589Y0092419D02*
X0213195Y0092419D01*
X0212780Y0092026D02*
X0251589Y0092026D01*
X0251589Y0090850D02*
X0151074Y0090850D01*
X0151074Y0091242D02*
X0154452Y0091242D01*
X0153505Y0091634D02*
X0151074Y0091634D01*
X0151074Y0092026D02*
X0152827Y0092026D01*
X0152435Y0092419D02*
X0151074Y0092419D01*
X0151108Y0092811D02*
X0152042Y0092811D01*
X0151703Y0093203D02*
X0151074Y0093203D01*
X0151074Y0093595D02*
X0151540Y0093595D01*
X0151378Y0093987D02*
X0150982Y0093987D01*
X0150770Y0094380D02*
X0151215Y0094380D01*
X0151053Y0094772D02*
X0150604Y0094772D01*
X0150338Y0095164D02*
X0151049Y0095164D01*
X0151049Y0095556D02*
X0149877Y0095556D01*
X0149375Y0095948D02*
X0151049Y0095948D01*
X0151049Y0096341D02*
X0148893Y0096341D01*
X0148411Y0096733D02*
X0151109Y0096733D01*
X0151271Y0097125D02*
X0147930Y0097125D01*
X0147448Y0097517D02*
X0151434Y0097517D01*
X0151596Y0097909D02*
X0146966Y0097909D01*
X0146484Y0098302D02*
X0151785Y0098302D01*
X0152177Y0098694D02*
X0146003Y0098694D01*
X0145521Y0099086D02*
X0152569Y0099086D01*
X0152961Y0099478D02*
X0145039Y0099478D01*
X0140179Y0094772D02*
X0006439Y0094772D01*
X0006439Y0095164D02*
X0020457Y0095164D01*
X0020652Y0095083D02*
X0019979Y0095362D01*
X0019374Y0095766D01*
X0018859Y0096281D01*
X0018454Y0096887D01*
X0018176Y0097559D01*
X0018034Y0098274D01*
X0018034Y0098441D01*
X0021534Y0098441D01*
X0021927Y0098441D01*
X0021927Y0094941D01*
X0022095Y0094941D01*
X0022809Y0095083D01*
X0023482Y0095362D01*
X0024087Y0095766D01*
X0024602Y0096281D01*
X0025007Y0096887D01*
X0025285Y0097559D01*
X0025427Y0098274D01*
X0025427Y0098441D01*
X0021927Y0098441D01*
X0021927Y0098835D01*
X0021534Y0098835D01*
X0021534Y0102335D01*
X0021366Y0102335D01*
X0020652Y0102193D01*
X0019979Y0101914D01*
X0019374Y0101509D01*
X0018859Y0100994D01*
X0018454Y0100389D01*
X0018176Y0099716D01*
X0018034Y0099002D01*
X0018034Y0098835D01*
X0021534Y0098835D01*
X0021534Y0098441D01*
X0021534Y0094941D01*
X0021366Y0094941D01*
X0020652Y0095083D01*
X0021534Y0095164D02*
X0021927Y0095164D01*
X0021927Y0095556D02*
X0021534Y0095556D01*
X0021534Y0095948D02*
X0021927Y0095948D01*
X0021927Y0096341D02*
X0021534Y0096341D01*
X0021534Y0096733D02*
X0021927Y0096733D01*
X0021927Y0097125D02*
X0021534Y0097125D01*
X0021534Y0097517D02*
X0021927Y0097517D01*
X0021927Y0097909D02*
X0021534Y0097909D01*
X0021534Y0098302D02*
X0021927Y0098302D01*
X0021927Y0098694D02*
X0104934Y0098694D01*
X0104542Y0099086D02*
X0025411Y0099086D01*
X0025427Y0099002D02*
X0025285Y0099716D01*
X0025007Y0100389D01*
X0024602Y0100994D01*
X0024087Y0101509D01*
X0023482Y0101914D01*
X0022809Y0102193D01*
X0022095Y0102335D01*
X0021927Y0102335D01*
X0021927Y0098835D01*
X0025427Y0098835D01*
X0025427Y0099002D01*
X0025333Y0099478D02*
X0104150Y0099478D01*
X0103758Y0099871D02*
X0025221Y0099871D01*
X0025059Y0100263D02*
X0103527Y0100263D01*
X0103527Y0100101D02*
X0105634Y0097994D01*
X0108614Y0097994D01*
X0110721Y0100101D01*
X0110721Y0103080D01*
X0108614Y0105187D01*
X0105634Y0105187D01*
X0103527Y0103080D01*
X0103527Y0100101D01*
X0103527Y0100655D02*
X0024829Y0100655D01*
X0024549Y0101047D02*
X0103527Y0101047D01*
X0103527Y0101439D02*
X0024157Y0101439D01*
X0023605Y0101832D02*
X0103527Y0101832D01*
X0103527Y0102224D02*
X0022652Y0102224D01*
X0021927Y0102224D02*
X0021534Y0102224D01*
X0021534Y0101832D02*
X0021927Y0101832D01*
X0021927Y0101439D02*
X0021534Y0101439D01*
X0021534Y0101047D02*
X0021927Y0101047D01*
X0021927Y0100655D02*
X0021534Y0100655D01*
X0021534Y0100263D02*
X0021927Y0100263D01*
X0021927Y0099871D02*
X0021534Y0099871D01*
X0021534Y0099478D02*
X0021927Y0099478D01*
X0021927Y0099086D02*
X0021534Y0099086D01*
X0021534Y0098694D02*
X0006439Y0098694D01*
X0006439Y0099086D02*
X0018050Y0099086D01*
X0018128Y0099478D02*
X0006439Y0099478D01*
X0006439Y0099871D02*
X0018240Y0099871D01*
X0018402Y0100263D02*
X0006439Y0100263D01*
X0006439Y0100655D02*
X0018632Y0100655D01*
X0018912Y0101047D02*
X0006439Y0101047D01*
X0006439Y0101439D02*
X0019304Y0101439D01*
X0019856Y0101832D02*
X0006439Y0101832D01*
X0006439Y0102224D02*
X0020809Y0102224D01*
X0018034Y0098302D02*
X0006439Y0098302D01*
X0006439Y0097909D02*
X0018106Y0097909D01*
X0018193Y0097517D02*
X0006439Y0097517D01*
X0006439Y0097125D02*
X0018356Y0097125D01*
X0018557Y0096733D02*
X0006439Y0096733D01*
X0006439Y0096341D02*
X0018819Y0096341D01*
X0019192Y0095948D02*
X0006439Y0095948D01*
X0006439Y0095556D02*
X0019688Y0095556D01*
X0023004Y0095164D02*
X0139698Y0095164D01*
X0139216Y0095556D02*
X0023773Y0095556D01*
X0024269Y0095948D02*
X0138734Y0095948D01*
X0138252Y0096341D02*
X0024642Y0096341D01*
X0024904Y0096733D02*
X0137771Y0096733D01*
X0137289Y0097125D02*
X0025105Y0097125D01*
X0025268Y0097517D02*
X0136807Y0097517D01*
X0136325Y0097909D02*
X0025355Y0097909D01*
X0025427Y0098302D02*
X0105326Y0098302D01*
X0108922Y0098302D02*
X0121254Y0098302D01*
X0121454Y0098219D02*
X0122795Y0098219D01*
X0124034Y0098732D01*
X0124983Y0099681D01*
X0125496Y0100920D01*
X0125496Y0102261D01*
X0124983Y0103500D01*
X0124034Y0104449D01*
X0122795Y0104962D01*
X0121454Y0104962D01*
X0120214Y0104449D01*
X0119266Y0103500D01*
X0118753Y0102261D01*
X0118753Y0100920D01*
X0119266Y0099681D01*
X0120214Y0098732D01*
X0121454Y0098219D01*
X0120307Y0098694D02*
X0109314Y0098694D01*
X0109706Y0099086D02*
X0119860Y0099086D01*
X0119468Y0099478D02*
X0110099Y0099478D01*
X0110491Y0099871D02*
X0119187Y0099871D01*
X0119025Y0100263D02*
X0110721Y0100263D01*
X0110721Y0100655D02*
X0118862Y0100655D01*
X0118753Y0101047D02*
X0110721Y0101047D01*
X0110721Y0101439D02*
X0118753Y0101439D01*
X0118753Y0101832D02*
X0110721Y0101832D01*
X0110721Y0102224D02*
X0118753Y0102224D01*
X0118900Y0102616D02*
X0110721Y0102616D01*
X0110721Y0103008D02*
X0119062Y0103008D01*
X0119224Y0103400D02*
X0110401Y0103400D01*
X0110009Y0103793D02*
X0119558Y0103793D01*
X0119950Y0104185D02*
X0109617Y0104185D01*
X0109224Y0104577D02*
X0120524Y0104577D01*
X0123725Y0104577D02*
X0135024Y0104577D01*
X0134632Y0104185D02*
X0124298Y0104185D01*
X0124690Y0103793D02*
X0134240Y0103793D01*
X0133847Y0103400D02*
X0125024Y0103400D01*
X0125186Y0103008D02*
X0133527Y0103008D01*
X0133527Y0102616D02*
X0125349Y0102616D01*
X0125496Y0102224D02*
X0133527Y0102224D01*
X0133527Y0101832D02*
X0125496Y0101832D01*
X0125496Y0101439D02*
X0133527Y0101439D01*
X0133527Y0101047D02*
X0125496Y0101047D01*
X0125386Y0100655D02*
X0133527Y0100655D01*
X0133527Y0100263D02*
X0125224Y0100263D01*
X0125061Y0099871D02*
X0133758Y0099871D01*
X0134150Y0099478D02*
X0124780Y0099478D01*
X0124388Y0099086D02*
X0134542Y0099086D01*
X0134934Y0098694D02*
X0123942Y0098694D01*
X0122995Y0098302D02*
X0135326Y0098302D01*
X0140661Y0094380D02*
X0006439Y0094380D01*
X0006439Y0093987D02*
X0141143Y0093987D01*
X0141625Y0093595D02*
X0006439Y0093595D01*
X0006439Y0093203D02*
X0142106Y0093203D01*
X0142588Y0092811D02*
X0006439Y0092811D01*
X0006439Y0092419D02*
X0143070Y0092419D01*
X0143552Y0092026D02*
X0006439Y0092026D01*
X0006439Y0091634D02*
X0144033Y0091634D01*
X0144356Y0091242D02*
X0006439Y0091242D01*
X0006439Y0090850D02*
X0144356Y0090850D01*
X0144356Y0090457D02*
X0006439Y0090457D01*
X0006439Y0090065D02*
X0144356Y0090065D01*
X0144356Y0089673D02*
X0006439Y0089673D01*
X0006439Y0089281D02*
X0144356Y0089281D01*
X0144356Y0088889D02*
X0006439Y0088889D01*
X0006439Y0088496D02*
X0144356Y0088496D01*
X0144356Y0088104D02*
X0006439Y0088104D01*
X0006439Y0087712D02*
X0144356Y0087712D01*
X0144356Y0087320D02*
X0006439Y0087320D01*
X0006439Y0086928D02*
X0144356Y0086928D01*
X0144356Y0086535D02*
X0006439Y0086535D01*
X0006439Y0086143D02*
X0144356Y0086143D01*
X0144356Y0085751D02*
X0006439Y0085751D01*
X0006439Y0085359D02*
X0144356Y0085359D01*
X0144356Y0084966D02*
X0006439Y0084966D01*
X0006439Y0084574D02*
X0144356Y0084574D01*
X0144356Y0084182D02*
X0006439Y0084182D01*
X0006439Y0083790D02*
X0144356Y0083790D01*
X0144356Y0083398D02*
X0006439Y0083398D01*
X0006439Y0083005D02*
X0144356Y0083005D01*
X0144356Y0082613D02*
X0006439Y0082613D01*
X0006439Y0082221D02*
X0044105Y0082221D01*
X0044657Y0082450D02*
X0043372Y0081917D01*
X0042388Y0080934D01*
X0041856Y0079648D01*
X0041856Y0078257D01*
X0042388Y0076972D01*
X0043372Y0075988D01*
X0044657Y0075456D01*
X0046048Y0075456D01*
X0047333Y0075988D01*
X0048317Y0076972D01*
X0048849Y0078257D01*
X0048849Y0079648D01*
X0048317Y0080934D01*
X0047333Y0081917D01*
X0046048Y0082450D01*
X0044657Y0082450D01*
X0043283Y0081829D02*
X0006439Y0081829D01*
X0006439Y0081437D02*
X0042891Y0081437D01*
X0042499Y0081044D02*
X0006439Y0081044D01*
X0006439Y0080652D02*
X0042272Y0080652D01*
X0042109Y0080260D02*
X0006439Y0080260D01*
X0006439Y0079868D02*
X0041947Y0079868D01*
X0041856Y0079476D02*
X0006439Y0079476D01*
X0006439Y0079083D02*
X0041856Y0079083D01*
X0041856Y0078691D02*
X0006439Y0078691D01*
X0006439Y0078299D02*
X0041856Y0078299D01*
X0042001Y0077907D02*
X0006439Y0077907D01*
X0006439Y0077514D02*
X0042163Y0077514D01*
X0042326Y0077122D02*
X0006439Y0077122D01*
X0006439Y0076730D02*
X0042630Y0076730D01*
X0043022Y0076338D02*
X0006439Y0076338D01*
X0006439Y0075946D02*
X0043475Y0075946D01*
X0044422Y0075553D02*
X0006439Y0075553D01*
X0006439Y0075161D02*
X0144356Y0075161D01*
X0144356Y0075553D02*
X0073843Y0075553D01*
X0073607Y0075456D02*
X0074892Y0075988D01*
X0075876Y0076972D01*
X0076408Y0078257D01*
X0076408Y0079648D01*
X0075876Y0080934D01*
X0074892Y0081917D01*
X0073607Y0082450D01*
X0072216Y0082450D01*
X0070931Y0081917D01*
X0069947Y0080934D01*
X0069415Y0079648D01*
X0069415Y0078257D01*
X0069947Y0076972D01*
X0070931Y0075988D01*
X0072216Y0075456D01*
X0073607Y0075456D01*
X0074789Y0075946D02*
X0144356Y0075946D01*
X0144356Y0076338D02*
X0075242Y0076338D01*
X0075634Y0076730D02*
X0144356Y0076730D01*
X0144356Y0077122D02*
X0075938Y0077122D01*
X0076101Y0077514D02*
X0144356Y0077514D01*
X0144356Y0077907D02*
X0076263Y0077907D01*
X0076408Y0078299D02*
X0144356Y0078299D01*
X0144356Y0078691D02*
X0076408Y0078691D01*
X0076408Y0079083D02*
X0144356Y0079083D01*
X0144356Y0079476D02*
X0076408Y0079476D01*
X0076318Y0079868D02*
X0144356Y0079868D01*
X0144356Y0080260D02*
X0076155Y0080260D01*
X0075993Y0080652D02*
X0144356Y0080652D01*
X0144356Y0081044D02*
X0075765Y0081044D01*
X0075373Y0081437D02*
X0144356Y0081437D01*
X0144356Y0081829D02*
X0074981Y0081829D01*
X0074159Y0082221D02*
X0144356Y0082221D01*
X0151074Y0081829D02*
X0175173Y0081829D01*
X0174781Y0081437D02*
X0151074Y0081437D01*
X0151074Y0081044D02*
X0174389Y0081044D01*
X0174161Y0080652D02*
X0151074Y0080652D01*
X0151074Y0080260D02*
X0173999Y0080260D01*
X0173836Y0079868D02*
X0151074Y0079868D01*
X0151074Y0079476D02*
X0173745Y0079476D01*
X0173745Y0079083D02*
X0151074Y0079083D01*
X0151074Y0078691D02*
X0173745Y0078691D01*
X0173745Y0078299D02*
X0151074Y0078299D01*
X0151074Y0077907D02*
X0173891Y0077907D01*
X0174053Y0077514D02*
X0151074Y0077514D01*
X0151074Y0077122D02*
X0174216Y0077122D01*
X0174520Y0076730D02*
X0151074Y0076730D01*
X0151074Y0076338D02*
X0174912Y0076338D01*
X0175365Y0075946D02*
X0151074Y0075946D01*
X0151074Y0075553D02*
X0176311Y0075553D01*
X0173545Y0068886D02*
X0151074Y0068886D01*
X0151074Y0068494D02*
X0173596Y0068494D01*
X0173674Y0068101D02*
X0151074Y0068101D01*
X0151074Y0067709D02*
X0173821Y0067709D01*
X0173994Y0067317D02*
X0151074Y0067317D01*
X0151074Y0066925D02*
X0174256Y0066925D01*
X0174592Y0066533D02*
X0151074Y0066533D01*
X0151074Y0066140D02*
X0175033Y0066140D01*
X0175699Y0065748D02*
X0151074Y0065748D01*
X0151019Y0065356D02*
X0205485Y0065356D01*
X0205748Y0064964D02*
X0150856Y0064964D01*
X0150694Y0064571D02*
X0206081Y0064571D01*
X0206518Y0064179D02*
X0150487Y0064179D01*
X0150095Y0063787D02*
X0207177Y0063787D01*
X0208542Y0063787D02*
X0208935Y0063787D01*
X0208935Y0064179D02*
X0208542Y0064179D01*
X0208542Y0064571D02*
X0208935Y0064571D01*
X0208935Y0064964D02*
X0208542Y0064964D01*
X0208542Y0065356D02*
X0208935Y0065356D01*
X0208935Y0065748D02*
X0208542Y0065748D01*
X0208542Y0066140D02*
X0208935Y0066140D01*
X0208935Y0066533D02*
X0208542Y0066533D01*
X0208542Y0066925D02*
X0208935Y0066925D01*
X0208935Y0068101D02*
X0208542Y0068101D01*
X0208542Y0068494D02*
X0208935Y0068494D01*
X0208935Y0068886D02*
X0208542Y0068886D01*
X0208542Y0069278D02*
X0208935Y0069278D01*
X0208935Y0069670D02*
X0208542Y0069670D01*
X0208542Y0070062D02*
X0208935Y0070062D01*
X0208935Y0070455D02*
X0208542Y0070455D01*
X0210401Y0070455D02*
X0212899Y0070455D01*
X0212899Y0070062D02*
X0211021Y0070062D01*
X0211438Y0069670D02*
X0212899Y0069670D01*
X0212899Y0069278D02*
X0211757Y0069278D01*
X0212017Y0068886D02*
X0212899Y0068886D01*
X0212899Y0068494D02*
X0212180Y0068494D01*
X0212317Y0068101D02*
X0212899Y0068101D01*
X0218830Y0068101D02*
X0251589Y0068101D01*
X0251589Y0067709D02*
X0242632Y0067709D01*
X0242959Y0067573D02*
X0242232Y0067875D01*
X0241460Y0068028D01*
X0238463Y0068028D01*
X0238463Y0064228D01*
X0245063Y0064228D01*
X0245063Y0064425D01*
X0244909Y0065197D01*
X0244608Y0065925D01*
X0244171Y0066579D01*
X0243614Y0067136D01*
X0242959Y0067573D01*
X0243343Y0067317D02*
X0251589Y0067317D01*
X0251589Y0066925D02*
X0243825Y0066925D01*
X0244202Y0066533D02*
X0251589Y0066533D01*
X0251589Y0066140D02*
X0244464Y0066140D01*
X0244681Y0065748D02*
X0251589Y0065748D01*
X0251589Y0065356D02*
X0244844Y0065356D01*
X0244956Y0064964D02*
X0251589Y0064964D01*
X0251589Y0064571D02*
X0245034Y0064571D01*
X0245063Y0063835D02*
X0238463Y0063835D01*
X0238463Y0064228D01*
X0238069Y0064228D01*
X0238069Y0063835D01*
X0231469Y0063835D01*
X0231469Y0063638D01*
X0231623Y0062866D01*
X0231924Y0062138D01*
X0232361Y0061484D01*
X0232918Y0060927D01*
X0233573Y0060490D01*
X0234300Y0060188D01*
X0235072Y0060035D01*
X0238069Y0060035D01*
X0238069Y0063835D01*
X0238463Y0063835D01*
X0238463Y0060035D01*
X0241460Y0060035D01*
X0242232Y0060188D01*
X0242959Y0060490D01*
X0243614Y0060927D01*
X0244171Y0061484D01*
X0244608Y0062138D01*
X0244909Y0062866D01*
X0245063Y0063638D01*
X0245063Y0063835D01*
X0245063Y0063787D02*
X0251589Y0063787D01*
X0251589Y0063395D02*
X0245014Y0063395D01*
X0244936Y0063003D02*
X0251589Y0063003D01*
X0251589Y0062610D02*
X0244803Y0062610D01*
X0244641Y0062218D02*
X0251589Y0062218D01*
X0251589Y0061826D02*
X0244399Y0061826D01*
X0244121Y0061434D02*
X0251589Y0061434D01*
X0251589Y0061042D02*
X0243728Y0061042D01*
X0243198Y0060649D02*
X0251589Y0060649D01*
X0251589Y0060257D02*
X0242398Y0060257D01*
X0238463Y0060257D02*
X0238069Y0060257D01*
X0238069Y0060649D02*
X0238463Y0060649D01*
X0238463Y0061042D02*
X0238069Y0061042D01*
X0238069Y0061434D02*
X0238463Y0061434D01*
X0238463Y0061826D02*
X0238069Y0061826D01*
X0238069Y0062218D02*
X0238463Y0062218D01*
X0238463Y0062610D02*
X0238069Y0062610D01*
X0238069Y0063003D02*
X0238463Y0063003D01*
X0238463Y0063395D02*
X0238069Y0063395D01*
X0238069Y0063787D02*
X0238463Y0063787D01*
X0238463Y0064179D02*
X0251589Y0064179D01*
X0251589Y0068494D02*
X0218830Y0068494D01*
X0218830Y0068886D02*
X0251589Y0068886D01*
X0251589Y0069278D02*
X0218830Y0069278D01*
X0218830Y0069670D02*
X0251589Y0069670D01*
X0251589Y0070062D02*
X0241599Y0070062D01*
X0241460Y0070035D02*
X0242232Y0070188D01*
X0242959Y0070490D01*
X0243614Y0070927D01*
X0244171Y0071484D01*
X0244608Y0072138D01*
X0244909Y0072866D01*
X0245063Y0073638D01*
X0245063Y0073835D01*
X0238463Y0073835D01*
X0238463Y0074228D01*
X0245063Y0074228D01*
X0245063Y0074425D01*
X0244909Y0075197D01*
X0244608Y0075925D01*
X0244171Y0076579D01*
X0243614Y0077136D01*
X0242959Y0077573D01*
X0242232Y0077875D01*
X0241460Y0078028D01*
X0238463Y0078028D01*
X0238463Y0074228D01*
X0238069Y0074228D01*
X0238069Y0073835D01*
X0231469Y0073835D01*
X0231469Y0073638D01*
X0231623Y0072866D01*
X0231924Y0072138D01*
X0232361Y0071484D01*
X0232918Y0070927D01*
X0233573Y0070490D01*
X0234300Y0070188D01*
X0235072Y0070035D01*
X0238069Y0070035D01*
X0238069Y0073835D01*
X0238463Y0073835D01*
X0238463Y0070035D01*
X0241460Y0070035D01*
X0242875Y0070455D02*
X0251589Y0070455D01*
X0251589Y0070847D02*
X0243494Y0070847D01*
X0243926Y0071239D02*
X0251589Y0071239D01*
X0251589Y0071631D02*
X0244269Y0071631D01*
X0244531Y0072023D02*
X0251589Y0072023D01*
X0251589Y0072416D02*
X0244723Y0072416D01*
X0244885Y0072808D02*
X0251589Y0072808D01*
X0251589Y0073200D02*
X0244976Y0073200D01*
X0245054Y0073592D02*
X0251589Y0073592D01*
X0251589Y0073985D02*
X0238463Y0073985D01*
X0238463Y0074377D02*
X0238069Y0074377D01*
X0238069Y0074228D02*
X0238069Y0078028D01*
X0235072Y0078028D01*
X0234300Y0077875D01*
X0233573Y0077573D01*
X0232918Y0077136D01*
X0232361Y0076579D01*
X0231924Y0075925D01*
X0231623Y0075197D01*
X0231469Y0074425D01*
X0231469Y0074228D01*
X0238069Y0074228D01*
X0238069Y0073985D02*
X0218830Y0073985D01*
X0218830Y0074377D02*
X0231469Y0074377D01*
X0231537Y0074769D02*
X0218671Y0074769D01*
X0218508Y0075161D02*
X0231616Y0075161D01*
X0231770Y0075553D02*
X0218300Y0075553D01*
X0217908Y0075946D02*
X0231938Y0075946D01*
X0232200Y0076338D02*
X0217515Y0076338D01*
X0217123Y0076730D02*
X0232512Y0076730D01*
X0232904Y0077122D02*
X0216731Y0077122D01*
X0216339Y0077514D02*
X0233484Y0077514D01*
X0234461Y0077907D02*
X0215947Y0077907D01*
X0215554Y0078299D02*
X0251589Y0078299D01*
X0251589Y0078691D02*
X0215162Y0078691D01*
X0214770Y0079083D02*
X0251589Y0079083D01*
X0251589Y0079476D02*
X0214378Y0079476D01*
X0213986Y0079868D02*
X0251589Y0079868D01*
X0251589Y0080260D02*
X0241882Y0080260D01*
X0242829Y0080652D02*
X0251589Y0080652D01*
X0251589Y0081044D02*
X0243448Y0081044D01*
X0243841Y0081437D02*
X0251589Y0081437D01*
X0251589Y0081829D02*
X0244233Y0081829D01*
X0244426Y0082221D02*
X0251589Y0082221D01*
X0251589Y0082613D02*
X0244588Y0082613D01*
X0244751Y0083005D02*
X0251589Y0083005D01*
X0251589Y0083398D02*
X0244863Y0083398D01*
X0244863Y0083790D02*
X0251589Y0083790D01*
X0251589Y0084182D02*
X0244863Y0084182D01*
X0244863Y0084574D02*
X0251589Y0084574D01*
X0251589Y0084966D02*
X0244788Y0084966D01*
X0244626Y0085359D02*
X0251589Y0085359D01*
X0251589Y0085751D02*
X0244463Y0085751D01*
X0244301Y0086143D02*
X0251589Y0086143D01*
X0251589Y0086535D02*
X0243932Y0086535D01*
X0243539Y0086928D02*
X0251589Y0086928D01*
X0251589Y0087320D02*
X0243049Y0087320D01*
X0242102Y0087712D02*
X0251589Y0087712D01*
X0251589Y0088104D02*
X0151074Y0088104D01*
X0151074Y0087712D02*
X0234430Y0087712D01*
X0233703Y0080652D02*
X0213220Y0080652D01*
X0213593Y0080260D02*
X0234650Y0080260D01*
X0238069Y0077907D02*
X0238463Y0077907D01*
X0238463Y0077514D02*
X0238069Y0077514D01*
X0238069Y0077122D02*
X0238463Y0077122D01*
X0238463Y0076730D02*
X0238069Y0076730D01*
X0238069Y0076338D02*
X0238463Y0076338D01*
X0238463Y0075946D02*
X0238069Y0075946D01*
X0238069Y0075553D02*
X0238463Y0075553D01*
X0238463Y0075161D02*
X0238069Y0075161D01*
X0238069Y0074769D02*
X0238463Y0074769D01*
X0238463Y0073592D02*
X0238069Y0073592D01*
X0238069Y0073200D02*
X0238463Y0073200D01*
X0238463Y0072808D02*
X0238069Y0072808D01*
X0238069Y0072416D02*
X0238463Y0072416D01*
X0238463Y0072023D02*
X0238069Y0072023D01*
X0238069Y0071631D02*
X0238463Y0071631D01*
X0238463Y0071239D02*
X0238069Y0071239D01*
X0238069Y0070847D02*
X0238463Y0070847D01*
X0238463Y0070455D02*
X0238069Y0070455D01*
X0238069Y0070062D02*
X0238463Y0070062D01*
X0238069Y0068028D02*
X0235072Y0068028D01*
X0234300Y0067875D01*
X0233573Y0067573D01*
X0232918Y0067136D01*
X0232361Y0066579D01*
X0231924Y0065925D01*
X0231623Y0065197D01*
X0231469Y0064425D01*
X0231469Y0064228D01*
X0238069Y0064228D01*
X0238069Y0068028D01*
X0238069Y0067709D02*
X0238463Y0067709D01*
X0238463Y0067317D02*
X0238069Y0067317D01*
X0238069Y0066925D02*
X0238463Y0066925D01*
X0238463Y0066533D02*
X0238069Y0066533D01*
X0238069Y0066140D02*
X0238463Y0066140D01*
X0238463Y0065748D02*
X0238069Y0065748D01*
X0238069Y0065356D02*
X0238463Y0065356D01*
X0238463Y0064964D02*
X0238069Y0064964D01*
X0238069Y0064571D02*
X0238463Y0064571D01*
X0238069Y0064179D02*
X0218830Y0064179D01*
X0218830Y0063787D02*
X0231469Y0063787D01*
X0231517Y0063395D02*
X0218830Y0063395D01*
X0218830Y0063003D02*
X0231595Y0063003D01*
X0231728Y0062610D02*
X0218830Y0062610D01*
X0218830Y0062218D02*
X0231891Y0062218D01*
X0232133Y0061826D02*
X0218830Y0061826D01*
X0218830Y0061434D02*
X0232411Y0061434D01*
X0232803Y0061042D02*
X0218830Y0061042D01*
X0218830Y0060649D02*
X0233334Y0060649D01*
X0234134Y0060257D02*
X0218830Y0060257D01*
X0218830Y0059865D02*
X0251589Y0059865D01*
X0251589Y0059473D02*
X0218830Y0059473D01*
X0218830Y0059080D02*
X0251589Y0059080D01*
X0251589Y0058688D02*
X0218830Y0058688D01*
X0218830Y0058296D02*
X0251589Y0058296D01*
X0251589Y0057904D02*
X0218830Y0057904D01*
X0218830Y0057512D02*
X0251589Y0057512D01*
X0251589Y0057119D02*
X0218830Y0057119D01*
X0218830Y0056727D02*
X0251589Y0056727D01*
X0251589Y0056335D02*
X0218830Y0056335D01*
X0218830Y0055943D02*
X0251589Y0055943D01*
X0251589Y0055551D02*
X0218830Y0055551D01*
X0218830Y0055158D02*
X0251589Y0055158D01*
X0251589Y0054766D02*
X0218830Y0054766D01*
X0218830Y0054374D02*
X0251589Y0054374D01*
X0251589Y0053982D02*
X0218830Y0053982D01*
X0218830Y0053590D02*
X0251589Y0053590D01*
X0251589Y0053197D02*
X0218830Y0053197D01*
X0218830Y0052805D02*
X0251589Y0052805D01*
X0251589Y0052413D02*
X0218830Y0052413D01*
X0218830Y0052021D02*
X0251589Y0052021D01*
X0251589Y0051628D02*
X0218830Y0051628D01*
X0218830Y0051236D02*
X0251589Y0051236D01*
X0251589Y0050844D02*
X0218830Y0050844D01*
X0218940Y0050452D02*
X0251589Y0050452D01*
X0251589Y0050060D02*
X0219332Y0050060D01*
X0219461Y0049667D02*
X0251589Y0049667D01*
X0251589Y0049275D02*
X0219461Y0049275D01*
X0219461Y0048883D02*
X0251589Y0048883D01*
X0251589Y0048491D02*
X0219461Y0048491D01*
X0219461Y0048099D02*
X0251589Y0048099D01*
X0251589Y0047706D02*
X0219461Y0047706D01*
X0219461Y0047314D02*
X0251589Y0047314D01*
X0251589Y0046922D02*
X0219432Y0046922D01*
X0219040Y0046530D02*
X0251589Y0046530D01*
X0251589Y0046137D02*
X0218830Y0046137D01*
X0218830Y0045745D02*
X0251589Y0045745D01*
X0251589Y0045353D02*
X0218830Y0045353D01*
X0218830Y0044961D02*
X0251589Y0044961D01*
X0251589Y0044569D02*
X0218830Y0044569D01*
X0218830Y0044176D02*
X0251589Y0044176D01*
X0251589Y0043784D02*
X0218830Y0043784D01*
X0218830Y0043392D02*
X0251589Y0043392D01*
X0251589Y0043000D02*
X0218830Y0043000D01*
X0218830Y0042608D02*
X0251589Y0042608D01*
X0251589Y0042215D02*
X0218830Y0042215D01*
X0218830Y0041823D02*
X0251589Y0041823D01*
X0251589Y0041431D02*
X0218830Y0041431D01*
X0218830Y0041039D02*
X0251589Y0041039D01*
X0251589Y0040647D02*
X0218830Y0040647D01*
X0218830Y0040254D02*
X0251589Y0040254D01*
X0251589Y0039862D02*
X0218782Y0039862D01*
X0218620Y0039470D02*
X0251589Y0039470D01*
X0251589Y0039078D02*
X0218457Y0039078D01*
X0218177Y0038685D02*
X0251589Y0038685D01*
X0251589Y0038293D02*
X0242600Y0038293D01*
X0243353Y0037901D02*
X0251589Y0037901D01*
X0251589Y0037509D02*
X0243746Y0037509D01*
X0244138Y0037117D02*
X0251589Y0037117D01*
X0251589Y0036724D02*
X0244386Y0036724D01*
X0244549Y0036332D02*
X0251589Y0036332D01*
X0251589Y0035940D02*
X0244711Y0035940D01*
X0244863Y0035548D02*
X0251589Y0035548D01*
X0251589Y0035156D02*
X0244863Y0035156D01*
X0244863Y0034763D02*
X0251589Y0034763D01*
X0251589Y0034371D02*
X0244863Y0034371D01*
X0244828Y0033979D02*
X0251589Y0033979D01*
X0251589Y0033587D02*
X0244665Y0033587D01*
X0244503Y0033194D02*
X0251589Y0033194D01*
X0251589Y0032802D02*
X0244340Y0032802D01*
X0244027Y0032410D02*
X0251589Y0032410D01*
X0251589Y0032018D02*
X0243634Y0032018D01*
X0243242Y0031626D02*
X0251589Y0031626D01*
X0251589Y0031233D02*
X0242332Y0031233D01*
X0243356Y0028096D02*
X0251589Y0028096D01*
X0251589Y0027704D02*
X0243834Y0027704D01*
X0244208Y0027311D02*
X0251589Y0027311D01*
X0251589Y0026919D02*
X0244470Y0026919D01*
X0244685Y0026527D02*
X0251589Y0026527D01*
X0251589Y0026135D02*
X0244847Y0026135D01*
X0244957Y0025742D02*
X0251589Y0025742D01*
X0251589Y0025350D02*
X0245035Y0025350D01*
X0251589Y0020251D02*
X0211633Y0020251D01*
X0211895Y0019859D02*
X0251589Y0019859D01*
X0251589Y0019467D02*
X0212103Y0019467D01*
X0212265Y0019075D02*
X0251589Y0019075D01*
X0251589Y0018683D02*
X0242129Y0018683D01*
X0243065Y0018290D02*
X0251589Y0018290D01*
X0251589Y0017898D02*
X0243639Y0017898D01*
X0244031Y0017506D02*
X0251589Y0017506D01*
X0251589Y0017114D02*
X0244340Y0017114D01*
X0244602Y0016722D02*
X0251589Y0016722D01*
X0251589Y0016329D02*
X0244766Y0016329D01*
X0244919Y0015937D02*
X0251589Y0015937D01*
X0251589Y0015545D02*
X0244997Y0015545D01*
X0245063Y0015153D02*
X0251589Y0015153D01*
X0251589Y0029272D02*
X0211247Y0029272D01*
X0211640Y0029665D02*
X0251589Y0029665D01*
X0251589Y0030057D02*
X0211839Y0030057D01*
X0212002Y0030449D02*
X0251589Y0030449D01*
X0251589Y0030841D02*
X0212164Y0030841D01*
X0212235Y0031233D02*
X0234200Y0031233D01*
X0233290Y0031626D02*
X0212235Y0031626D01*
X0212235Y0032018D02*
X0232897Y0032018D01*
X0232505Y0032410D02*
X0212233Y0032410D01*
X0212070Y0032802D02*
X0232192Y0032802D01*
X0232029Y0033194D02*
X0211908Y0033194D01*
X0211745Y0033587D02*
X0231867Y0033587D01*
X0231704Y0033979D02*
X0211413Y0033979D01*
X0211021Y0034371D02*
X0231669Y0034371D01*
X0231669Y0034763D02*
X0210501Y0034763D01*
X0209555Y0035156D02*
X0231669Y0035156D01*
X0233179Y0037901D02*
X0217177Y0037901D01*
X0217784Y0038293D02*
X0233932Y0038293D01*
X0231498Y0064571D02*
X0218830Y0064571D01*
X0218830Y0064964D02*
X0231576Y0064964D01*
X0231688Y0065356D02*
X0218830Y0065356D01*
X0218830Y0065748D02*
X0231851Y0065748D01*
X0232068Y0066140D02*
X0218830Y0066140D01*
X0218830Y0066533D02*
X0232330Y0066533D01*
X0232707Y0066925D02*
X0218830Y0066925D01*
X0218830Y0067317D02*
X0233189Y0067317D01*
X0233900Y0067709D02*
X0218830Y0067709D01*
X0218830Y0070062D02*
X0234933Y0070062D01*
X0233657Y0070455D02*
X0218830Y0070455D01*
X0218830Y0070847D02*
X0233038Y0070847D01*
X0232606Y0071239D02*
X0218830Y0071239D01*
X0218830Y0071631D02*
X0232263Y0071631D01*
X0232001Y0072023D02*
X0218830Y0072023D01*
X0218830Y0072416D02*
X0231809Y0072416D01*
X0231647Y0072808D02*
X0218830Y0072808D01*
X0218830Y0073200D02*
X0231556Y0073200D01*
X0231478Y0073592D02*
X0218830Y0073592D01*
X0242071Y0077907D02*
X0251589Y0077907D01*
X0251589Y0077514D02*
X0243047Y0077514D01*
X0243628Y0077122D02*
X0251589Y0077122D01*
X0251589Y0076730D02*
X0244020Y0076730D01*
X0244332Y0076338D02*
X0251589Y0076338D01*
X0251589Y0075946D02*
X0244594Y0075946D01*
X0244762Y0075553D02*
X0251589Y0075553D01*
X0251589Y0075161D02*
X0244916Y0075161D01*
X0244994Y0074769D02*
X0251589Y0074769D01*
X0251589Y0074377D02*
X0245063Y0074377D01*
X0251589Y0088496D02*
X0151074Y0088496D01*
X0151074Y0088889D02*
X0251589Y0088889D01*
X0251589Y0089281D02*
X0151074Y0089281D01*
X0151074Y0089673D02*
X0251589Y0089673D01*
X0251589Y0090065D02*
X0151074Y0090065D01*
X0151074Y0090457D02*
X0251589Y0090457D01*
X0202336Y0091634D02*
X0171833Y0091634D01*
X0172780Y0092026D02*
X0201390Y0092026D01*
X0200975Y0092419D02*
X0173195Y0092419D01*
X0173587Y0092811D02*
X0200582Y0092811D01*
X0200190Y0093203D02*
X0173979Y0093203D01*
X0174170Y0093595D02*
X0200000Y0093595D01*
X0199837Y0093987D02*
X0174333Y0093987D01*
X0174495Y0094380D02*
X0199675Y0094380D01*
X0199512Y0094772D02*
X0174657Y0094772D01*
X0174682Y0095164D02*
X0199488Y0095164D01*
X0199488Y0095556D02*
X0174682Y0095556D01*
X0174682Y0095948D02*
X0199488Y0095948D01*
X0199488Y0096341D02*
X0174682Y0096341D01*
X0174602Y0096733D02*
X0199568Y0096733D01*
X0199730Y0097125D02*
X0174439Y0097125D01*
X0174277Y0097517D02*
X0199893Y0097517D01*
X0200055Y0097909D02*
X0174114Y0097909D01*
X0173845Y0098302D02*
X0200325Y0098302D01*
X0200717Y0098694D02*
X0173453Y0098694D01*
X0173060Y0099086D02*
X0201109Y0099086D01*
X0201714Y0099478D02*
X0172455Y0099478D01*
X0171508Y0099871D02*
X0202661Y0099871D01*
X0174723Y0109676D02*
X0174329Y0109676D01*
X0174329Y0110068D02*
X0174723Y0110068D01*
X0174723Y0110460D02*
X0174329Y0110460D01*
X0174329Y0110852D02*
X0174723Y0110852D01*
X0174723Y0111245D02*
X0174329Y0111245D01*
X0174329Y0111637D02*
X0174723Y0111637D01*
X0174723Y0112029D02*
X0174329Y0112029D01*
X0174329Y0112421D02*
X0174723Y0112421D01*
X0174723Y0113598D02*
X0174329Y0113598D01*
X0174329Y0113990D02*
X0174723Y0113990D01*
X0174723Y0114382D02*
X0174329Y0114382D01*
X0174329Y0114775D02*
X0174723Y0114775D01*
X0174723Y0115167D02*
X0174329Y0115167D01*
X0174329Y0115559D02*
X0174723Y0115559D01*
X0174723Y0115951D02*
X0174329Y0115951D01*
X0174329Y0116343D02*
X0174723Y0116343D01*
X0174723Y0116736D02*
X0174329Y0116736D01*
X0174329Y0117128D02*
X0174723Y0117128D01*
X0180101Y0130516D02*
X0180815Y0130374D01*
X0180982Y0130374D01*
X0180982Y0133874D01*
X0177482Y0133874D01*
X0177482Y0133707D01*
X0177625Y0132993D01*
X0177903Y0132320D01*
X0178308Y0131714D01*
X0178823Y0131199D01*
X0179428Y0130795D01*
X0180101Y0130516D01*
X0180367Y0130463D02*
X0073724Y0130463D01*
X0073990Y0130516D02*
X0074663Y0130795D01*
X0075268Y0131199D01*
X0075783Y0131714D01*
X0076188Y0132320D01*
X0076466Y0132993D01*
X0076608Y0133707D01*
X0076608Y0133874D01*
X0073109Y0133874D01*
X0073109Y0134268D01*
X0076608Y0134268D01*
X0076608Y0134435D01*
X0076466Y0135149D01*
X0076188Y0135822D01*
X0075783Y0136427D01*
X0075268Y0136942D01*
X0074663Y0137347D01*
X0073990Y0137626D01*
X0073276Y0137768D01*
X0073108Y0137768D01*
X0073108Y0134268D01*
X0072715Y0134268D01*
X0072715Y0137768D01*
X0072548Y0137768D01*
X0071833Y0137626D01*
X0071161Y0137347D01*
X0070555Y0136942D01*
X0070040Y0136427D01*
X0069636Y0135822D01*
X0069357Y0135149D01*
X0069215Y0134435D01*
X0069215Y0134268D01*
X0072715Y0134268D01*
X0072715Y0133874D01*
X0073108Y0133874D01*
X0073108Y0130374D01*
X0073276Y0130374D01*
X0073990Y0130516D01*
X0074753Y0130855D02*
X0179338Y0130855D01*
X0178775Y0131248D02*
X0075316Y0131248D01*
X0075709Y0131640D02*
X0178382Y0131640D01*
X0178096Y0132032D02*
X0075995Y0132032D01*
X0076231Y0132424D02*
X0177860Y0132424D01*
X0177698Y0132816D02*
X0076393Y0132816D01*
X0076509Y0133209D02*
X0177582Y0133209D01*
X0177504Y0133601D02*
X0076587Y0133601D01*
X0076608Y0134385D02*
X0151508Y0134385D01*
X0151116Y0134777D02*
X0076540Y0134777D01*
X0076458Y0135170D02*
X0150752Y0135170D01*
X0150590Y0135562D02*
X0076295Y0135562D01*
X0076099Y0135954D02*
X0150427Y0135954D01*
X0150265Y0136346D02*
X0075837Y0136346D01*
X0075472Y0136738D02*
X0150261Y0136738D01*
X0150261Y0137131D02*
X0074986Y0137131D01*
X0074238Y0137523D02*
X0150261Y0137523D01*
X0150261Y0137915D02*
X0026454Y0137915D01*
X0026405Y0137669D02*
X0026559Y0138441D01*
X0026559Y0138638D01*
X0019959Y0138638D01*
X0019959Y0139031D01*
X0026559Y0139031D01*
X0026559Y0139228D01*
X0026405Y0140000D01*
X0026104Y0140728D01*
X0025667Y0141382D01*
X0025110Y0141939D01*
X0024455Y0142377D01*
X0023728Y0142678D01*
X0022956Y0142831D01*
X0019959Y0142831D01*
X0019959Y0139032D01*
X0019565Y0139032D01*
X0019565Y0142831D01*
X0016568Y0142831D01*
X0015796Y0142678D01*
X0015069Y0142377D01*
X0014414Y0141939D01*
X0013857Y0141382D01*
X0013420Y0140728D01*
X0013119Y0140000D01*
X0012965Y0139228D01*
X0012965Y0139031D01*
X0019565Y0139031D01*
X0019565Y0138638D01*
X0012965Y0138638D01*
X0012965Y0138441D01*
X0013119Y0137669D01*
X0013420Y0136941D01*
X0013857Y0136287D01*
X0014414Y0135730D01*
X0015069Y0135293D01*
X0015796Y0134991D01*
X0016568Y0134838D01*
X0019565Y0134838D01*
X0019565Y0138638D01*
X0019959Y0138638D01*
X0019959Y0134838D01*
X0022956Y0134838D01*
X0023728Y0134991D01*
X0024455Y0135293D01*
X0025110Y0135730D01*
X0025667Y0136287D01*
X0026104Y0136941D01*
X0026405Y0137669D01*
X0026345Y0137523D02*
X0044026Y0137523D01*
X0044274Y0137626D02*
X0043601Y0137347D01*
X0042996Y0136942D01*
X0042481Y0136427D01*
X0042076Y0135822D01*
X0041798Y0135149D01*
X0041656Y0134435D01*
X0041656Y0134268D01*
X0045156Y0134268D01*
X0045156Y0137768D01*
X0044988Y0137768D01*
X0044274Y0137626D01*
X0045156Y0137523D02*
X0045549Y0137523D01*
X0045549Y0137768D02*
X0045549Y0134268D01*
X0045156Y0134268D01*
X0045156Y0133874D01*
X0045549Y0133874D01*
X0045549Y0130374D01*
X0045717Y0130374D01*
X0046431Y0130516D01*
X0047104Y0130795D01*
X0047709Y0131199D01*
X0048224Y0131714D01*
X0048629Y0132320D01*
X0048907Y0132993D01*
X0049049Y0133707D01*
X0049049Y0133874D01*
X0045549Y0133874D01*
X0045549Y0134268D01*
X0049049Y0134268D01*
X0049049Y0134435D01*
X0048907Y0135149D01*
X0048629Y0135822D01*
X0048224Y0136427D01*
X0047709Y0136942D01*
X0047104Y0137347D01*
X0046431Y0137626D01*
X0045717Y0137768D01*
X0045549Y0137768D01*
X0045549Y0137131D02*
X0045156Y0137131D01*
X0045156Y0136738D02*
X0045549Y0136738D01*
X0045549Y0136346D02*
X0045156Y0136346D01*
X0045156Y0135954D02*
X0045549Y0135954D01*
X0045549Y0135562D02*
X0045156Y0135562D01*
X0045156Y0135170D02*
X0045549Y0135170D01*
X0045549Y0134777D02*
X0045156Y0134777D01*
X0045156Y0134385D02*
X0045549Y0134385D01*
X0045549Y0133993D02*
X0072715Y0133993D01*
X0072715Y0133874D02*
X0069215Y0133874D01*
X0069215Y0133707D01*
X0069357Y0132993D01*
X0069636Y0132320D01*
X0070040Y0131714D01*
X0070555Y0131199D01*
X0071161Y0130795D01*
X0071833Y0130516D01*
X0072548Y0130374D01*
X0072715Y0130374D01*
X0072715Y0133874D01*
X0072715Y0133601D02*
X0073108Y0133601D01*
X0073109Y0133993D02*
X0152159Y0133993D01*
X0155081Y0133993D02*
X0180982Y0133993D01*
X0180982Y0133874D02*
X0180982Y0134268D01*
X0177482Y0134268D01*
X0177482Y0134435D01*
X0177625Y0135149D01*
X0177903Y0135822D01*
X0178308Y0136427D01*
X0178823Y0136942D01*
X0179428Y0137347D01*
X0180101Y0137626D01*
X0180815Y0137768D01*
X0180982Y0137768D01*
X0180982Y0134268D01*
X0181376Y0134268D01*
X0181376Y0137768D01*
X0181543Y0137768D01*
X0182258Y0137626D01*
X0182930Y0137347D01*
X0183536Y0136942D01*
X0184051Y0136427D01*
X0184455Y0135822D01*
X0184734Y0135149D01*
X0184876Y0134435D01*
X0184876Y0134268D01*
X0181376Y0134268D01*
X0181376Y0133874D01*
X0181376Y0130374D01*
X0181543Y0130374D01*
X0182258Y0130516D01*
X0182930Y0130795D01*
X0183536Y0131199D01*
X0184051Y0131714D01*
X0184455Y0132320D01*
X0184734Y0132993D01*
X0184876Y0133707D01*
X0184876Y0133874D01*
X0181376Y0133874D01*
X0180982Y0133874D01*
X0180982Y0133601D02*
X0181376Y0133601D01*
X0181376Y0133993D02*
X0208541Y0133993D01*
X0208541Y0133874D02*
X0205042Y0133874D01*
X0205042Y0133707D01*
X0205184Y0132993D01*
X0205462Y0132320D01*
X0205867Y0131714D01*
X0206382Y0131199D01*
X0206987Y0130795D01*
X0207660Y0130516D01*
X0208374Y0130374D01*
X0208542Y0130374D01*
X0208542Y0133874D01*
X0208935Y0133874D01*
X0208935Y0130374D01*
X0209103Y0130374D01*
X0209817Y0130516D01*
X0210490Y0130795D01*
X0211095Y0131199D01*
X0211610Y0131714D01*
X0212014Y0132320D01*
X0212293Y0132993D01*
X0212435Y0133707D01*
X0212435Y0133874D01*
X0208935Y0133874D01*
X0208935Y0134268D01*
X0208542Y0134268D01*
X0208542Y0137768D01*
X0208374Y0137768D01*
X0207660Y0137626D01*
X0206987Y0137347D01*
X0206382Y0136942D01*
X0205867Y0136427D01*
X0205462Y0135822D01*
X0205184Y0135149D01*
X0205042Y0134435D01*
X0205042Y0134268D01*
X0208541Y0134268D01*
X0208541Y0133874D01*
X0208542Y0133601D02*
X0208935Y0133601D01*
X0208935Y0133993D02*
X0212899Y0133993D01*
X0212899Y0133601D02*
X0212414Y0133601D01*
X0212336Y0133209D02*
X0212899Y0133209D01*
X0212899Y0132816D02*
X0212220Y0132816D01*
X0212058Y0132424D02*
X0212899Y0132424D01*
X0212899Y0132032D02*
X0211822Y0132032D01*
X0211535Y0131640D02*
X0212899Y0131640D01*
X0212899Y0131248D02*
X0211143Y0131248D01*
X0210580Y0130855D02*
X0212899Y0130855D01*
X0212899Y0130463D02*
X0209550Y0130463D01*
X0208935Y0130463D02*
X0208542Y0130463D01*
X0208542Y0130855D02*
X0208935Y0130855D01*
X0208935Y0131248D02*
X0208542Y0131248D01*
X0208542Y0131640D02*
X0208935Y0131640D01*
X0208935Y0132032D02*
X0208542Y0132032D01*
X0208542Y0132424D02*
X0208935Y0132424D01*
X0208935Y0132816D02*
X0208542Y0132816D01*
X0208542Y0133209D02*
X0208935Y0133209D01*
X0208935Y0134268D02*
X0212435Y0134268D01*
X0212435Y0134435D01*
X0212293Y0135149D01*
X0212014Y0135822D01*
X0211610Y0136427D01*
X0211095Y0136942D01*
X0210490Y0137347D01*
X0209817Y0137626D01*
X0209103Y0137768D01*
X0208935Y0137768D01*
X0208935Y0134268D01*
X0208935Y0134385D02*
X0208542Y0134385D01*
X0208542Y0134777D02*
X0208935Y0134777D01*
X0208935Y0135170D02*
X0208542Y0135170D01*
X0208542Y0135562D02*
X0208935Y0135562D01*
X0208935Y0135954D02*
X0208542Y0135954D01*
X0208542Y0136346D02*
X0208935Y0136346D01*
X0208935Y0136738D02*
X0208542Y0136738D01*
X0208542Y0137131D02*
X0208935Y0137131D01*
X0208935Y0137523D02*
X0208542Y0137523D01*
X0207412Y0137523D02*
X0182506Y0137523D01*
X0183254Y0137131D02*
X0206664Y0137131D01*
X0206178Y0136738D02*
X0183740Y0136738D01*
X0184105Y0136346D02*
X0205813Y0136346D01*
X0205551Y0135954D02*
X0184367Y0135954D01*
X0184563Y0135562D02*
X0205355Y0135562D01*
X0205192Y0135170D02*
X0184726Y0135170D01*
X0184808Y0134777D02*
X0205110Y0134777D01*
X0205042Y0134385D02*
X0184876Y0134385D01*
X0184855Y0133601D02*
X0205063Y0133601D01*
X0205141Y0133209D02*
X0184777Y0133209D01*
X0184661Y0132816D02*
X0205257Y0132816D01*
X0205419Y0132424D02*
X0184499Y0132424D01*
X0184263Y0132032D02*
X0205655Y0132032D01*
X0205941Y0131640D02*
X0183976Y0131640D01*
X0183584Y0131248D02*
X0206334Y0131248D01*
X0206897Y0130855D02*
X0183021Y0130855D01*
X0181991Y0130463D02*
X0207926Y0130463D01*
X0212899Y0130071D02*
X0006439Y0130071D01*
X0006439Y0130463D02*
X0044541Y0130463D01*
X0044274Y0130516D02*
X0044988Y0130374D01*
X0045156Y0130374D01*
X0045156Y0133874D01*
X0041656Y0133874D01*
X0041656Y0133707D01*
X0041798Y0132993D01*
X0042076Y0132320D01*
X0042481Y0131714D01*
X0042996Y0131199D01*
X0043601Y0130795D01*
X0044274Y0130516D01*
X0043511Y0130855D02*
X0006439Y0130855D01*
X0006439Y0131248D02*
X0042948Y0131248D01*
X0042556Y0131640D02*
X0006439Y0131640D01*
X0006439Y0132032D02*
X0042269Y0132032D01*
X0042033Y0132424D02*
X0006439Y0132424D01*
X0006439Y0132816D02*
X0041871Y0132816D01*
X0041755Y0133209D02*
X0006439Y0133209D01*
X0006439Y0133601D02*
X0041677Y0133601D01*
X0041656Y0134385D02*
X0006439Y0134385D01*
X0006439Y0133993D02*
X0045156Y0133993D01*
X0045156Y0133601D02*
X0045549Y0133601D01*
X0045549Y0133209D02*
X0045156Y0133209D01*
X0045156Y0132816D02*
X0045549Y0132816D01*
X0045549Y0132424D02*
X0045156Y0132424D01*
X0045156Y0132032D02*
X0045549Y0132032D01*
X0045549Y0131640D02*
X0045156Y0131640D01*
X0045156Y0131248D02*
X0045549Y0131248D01*
X0045549Y0130855D02*
X0045156Y0130855D01*
X0045156Y0130463D02*
X0045549Y0130463D01*
X0046164Y0130463D02*
X0072100Y0130463D01*
X0072715Y0130463D02*
X0073108Y0130463D01*
X0073108Y0130855D02*
X0072715Y0130855D01*
X0072715Y0131248D02*
X0073108Y0131248D01*
X0073108Y0131640D02*
X0072715Y0131640D01*
X0072715Y0132032D02*
X0073108Y0132032D01*
X0073108Y0132424D02*
X0072715Y0132424D01*
X0072715Y0132816D02*
X0073108Y0132816D01*
X0073108Y0133209D02*
X0072715Y0133209D01*
X0072715Y0134385D02*
X0073108Y0134385D01*
X0073108Y0134777D02*
X0072715Y0134777D01*
X0072715Y0135170D02*
X0073108Y0135170D01*
X0073108Y0135562D02*
X0072715Y0135562D01*
X0072715Y0135954D02*
X0073108Y0135954D01*
X0073108Y0136346D02*
X0072715Y0136346D01*
X0072715Y0136738D02*
X0073108Y0136738D01*
X0073108Y0137131D02*
X0072715Y0137131D01*
X0072715Y0137523D02*
X0073108Y0137523D01*
X0071585Y0137523D02*
X0046679Y0137523D01*
X0047427Y0137131D02*
X0070837Y0137131D01*
X0070351Y0136738D02*
X0047913Y0136738D01*
X0048278Y0136346D02*
X0069986Y0136346D01*
X0069724Y0135954D02*
X0048540Y0135954D01*
X0048736Y0135562D02*
X0069528Y0135562D01*
X0069365Y0135170D02*
X0048899Y0135170D01*
X0048981Y0134777D02*
X0069283Y0134777D01*
X0069215Y0134385D02*
X0049049Y0134385D01*
X0049028Y0133601D02*
X0069236Y0133601D01*
X0069314Y0133209D02*
X0048950Y0133209D01*
X0048834Y0132816D02*
X0069430Y0132816D01*
X0069592Y0132424D02*
X0048672Y0132424D01*
X0048436Y0132032D02*
X0069828Y0132032D01*
X0070115Y0131640D02*
X0048150Y0131640D01*
X0047757Y0131248D02*
X0070507Y0131248D01*
X0071070Y0130855D02*
X0047194Y0130855D01*
X0041724Y0134777D02*
X0006439Y0134777D01*
X0006439Y0135170D02*
X0015366Y0135170D01*
X0014666Y0135562D02*
X0006439Y0135562D01*
X0006439Y0135954D02*
X0014190Y0135954D01*
X0013818Y0136346D02*
X0006439Y0136346D01*
X0006439Y0136738D02*
X0013556Y0136738D01*
X0013342Y0137131D02*
X0006439Y0137131D01*
X0006439Y0137523D02*
X0013179Y0137523D01*
X0013070Y0137915D02*
X0006439Y0137915D01*
X0006439Y0138307D02*
X0012992Y0138307D01*
X0012965Y0139092D02*
X0006439Y0139092D01*
X0006439Y0139484D02*
X0013016Y0139484D01*
X0013094Y0139876D02*
X0006439Y0139876D01*
X0006439Y0140268D02*
X0013230Y0140268D01*
X0013392Y0140661D02*
X0006439Y0140661D01*
X0006439Y0141053D02*
X0013637Y0141053D01*
X0013920Y0141445D02*
X0006439Y0141445D01*
X0006439Y0141837D02*
X0014312Y0141837D01*
X0014849Y0142229D02*
X0006439Y0142229D01*
X0006439Y0142622D02*
X0015660Y0142622D01*
X0015879Y0144975D02*
X0006439Y0144975D01*
X0006439Y0145367D02*
X0014957Y0145367D01*
X0015069Y0145293D02*
X0015796Y0144991D01*
X0016568Y0144838D01*
X0019565Y0144838D01*
X0019565Y0148638D01*
X0012965Y0148638D01*
X0012965Y0148441D01*
X0013119Y0147669D01*
X0013420Y0146941D01*
X0013857Y0146287D01*
X0014414Y0145730D01*
X0015069Y0145293D01*
X0014385Y0145759D02*
X0006439Y0145759D01*
X0006439Y0146152D02*
X0013993Y0146152D01*
X0013686Y0146544D02*
X0006439Y0146544D01*
X0006439Y0146936D02*
X0013424Y0146936D01*
X0013260Y0147328D02*
X0006439Y0147328D01*
X0006439Y0147720D02*
X0013108Y0147720D01*
X0013030Y0148113D02*
X0006439Y0148113D01*
X0006439Y0148505D02*
X0012965Y0148505D01*
X0012965Y0149031D02*
X0019565Y0149031D01*
X0019565Y0148638D01*
X0019959Y0148638D01*
X0019959Y0149031D01*
X0026559Y0149031D01*
X0026559Y0149228D01*
X0026405Y0150000D01*
X0026104Y0150728D01*
X0025667Y0151382D01*
X0025110Y0151939D01*
X0024455Y0152377D01*
X0023728Y0152678D01*
X0022956Y0152831D01*
X0019959Y0152831D01*
X0019959Y0149032D01*
X0019565Y0149032D01*
X0019565Y0152831D01*
X0016568Y0152831D01*
X0015796Y0152678D01*
X0015069Y0152377D01*
X0014414Y0151939D01*
X0013857Y0151382D01*
X0013420Y0150728D01*
X0013119Y0150000D01*
X0012965Y0149228D01*
X0012965Y0149031D01*
X0012977Y0149289D02*
X0006439Y0149289D01*
X0006439Y0148897D02*
X0019565Y0148897D01*
X0019565Y0148505D02*
X0019959Y0148505D01*
X0019959Y0148638D02*
X0019959Y0144838D01*
X0022956Y0144838D01*
X0023728Y0144991D01*
X0024455Y0145293D01*
X0025110Y0145730D01*
X0025667Y0146287D01*
X0026104Y0146941D01*
X0026405Y0147669D01*
X0026559Y0148441D01*
X0026559Y0148638D01*
X0019959Y0148638D01*
X0019959Y0148897D02*
X0150261Y0148897D01*
X0150261Y0148505D02*
X0026559Y0148505D01*
X0026494Y0148113D02*
X0150261Y0148113D01*
X0150261Y0147720D02*
X0026416Y0147720D01*
X0026264Y0147328D02*
X0044459Y0147328D01*
X0044657Y0147410D02*
X0043372Y0146878D01*
X0042388Y0145894D01*
X0041856Y0144609D01*
X0041856Y0143218D01*
X0042388Y0141933D01*
X0043372Y0140949D01*
X0044657Y0140417D01*
X0046048Y0140417D01*
X0047333Y0140949D01*
X0048317Y0141933D01*
X0048849Y0143218D01*
X0048849Y0144609D01*
X0048317Y0145894D01*
X0047333Y0146878D01*
X0046048Y0147410D01*
X0044657Y0147410D01*
X0043512Y0146936D02*
X0026100Y0146936D01*
X0025838Y0146544D02*
X0043038Y0146544D01*
X0042645Y0146152D02*
X0025531Y0146152D01*
X0025139Y0145759D02*
X0042332Y0145759D01*
X0042170Y0145367D02*
X0024567Y0145367D01*
X0023645Y0144975D02*
X0042007Y0144975D01*
X0041856Y0144583D02*
X0006439Y0144583D01*
X0006439Y0144191D02*
X0041856Y0144191D01*
X0041856Y0143798D02*
X0006439Y0143798D01*
X0006439Y0143406D02*
X0041856Y0143406D01*
X0041940Y0143014D02*
X0006439Y0143014D01*
X0006439Y0138700D02*
X0019565Y0138700D01*
X0019565Y0139092D02*
X0019959Y0139092D01*
X0019959Y0139484D02*
X0019565Y0139484D01*
X0019565Y0139876D02*
X0019959Y0139876D01*
X0019959Y0140268D02*
X0019565Y0140268D01*
X0019565Y0140661D02*
X0019959Y0140661D01*
X0019959Y0141053D02*
X0019565Y0141053D01*
X0019565Y0141445D02*
X0019959Y0141445D01*
X0019959Y0141837D02*
X0019565Y0141837D01*
X0019565Y0142229D02*
X0019959Y0142229D01*
X0019959Y0142622D02*
X0019565Y0142622D01*
X0019565Y0144975D02*
X0019959Y0144975D01*
X0019959Y0145367D02*
X0019565Y0145367D01*
X0019565Y0145759D02*
X0019959Y0145759D01*
X0019959Y0146152D02*
X0019565Y0146152D01*
X0019565Y0146544D02*
X0019959Y0146544D01*
X0019959Y0146936D02*
X0019565Y0146936D01*
X0019565Y0147328D02*
X0019959Y0147328D01*
X0019959Y0147720D02*
X0019565Y0147720D01*
X0019565Y0148113D02*
X0019959Y0148113D01*
X0019959Y0149289D02*
X0019565Y0149289D01*
X0019565Y0149681D02*
X0019959Y0149681D01*
X0019959Y0150074D02*
X0019565Y0150074D01*
X0019565Y0150466D02*
X0019959Y0150466D01*
X0019959Y0150858D02*
X0019565Y0150858D01*
X0019565Y0151250D02*
X0019959Y0151250D01*
X0019959Y0151643D02*
X0019565Y0151643D01*
X0019565Y0152035D02*
X0019959Y0152035D01*
X0019959Y0152427D02*
X0019565Y0152427D01*
X0019565Y0152819D02*
X0019959Y0152819D01*
X0023018Y0152819D02*
X0146854Y0152819D01*
X0147246Y0152427D02*
X0024334Y0152427D01*
X0024967Y0152035D02*
X0147638Y0152035D01*
X0148030Y0151643D02*
X0025407Y0151643D01*
X0025755Y0151250D02*
X0148423Y0151250D01*
X0148815Y0150858D02*
X0026017Y0150858D01*
X0026212Y0150466D02*
X0149207Y0150466D01*
X0149599Y0150074D02*
X0026375Y0150074D01*
X0026469Y0149681D02*
X0149992Y0149681D01*
X0150261Y0149289D02*
X0026547Y0149289D01*
X0023642Y0155172D02*
X0144501Y0155172D01*
X0144893Y0154780D02*
X0006439Y0154780D01*
X0006439Y0154388D02*
X0145285Y0154388D01*
X0145677Y0153996D02*
X0006439Y0153996D01*
X0006439Y0153604D02*
X0146069Y0153604D01*
X0146462Y0153211D02*
X0006439Y0153211D01*
X0006439Y0152819D02*
X0016507Y0152819D01*
X0015190Y0152427D02*
X0006439Y0152427D01*
X0006439Y0152035D02*
X0014557Y0152035D01*
X0014118Y0151643D02*
X0006439Y0151643D01*
X0006439Y0151250D02*
X0013769Y0151250D01*
X0013507Y0150858D02*
X0006439Y0150858D01*
X0006439Y0150466D02*
X0013312Y0150466D01*
X0013149Y0150074D02*
X0006439Y0150074D01*
X0006439Y0149681D02*
X0013055Y0149681D01*
X0015882Y0155172D02*
X0006439Y0155172D01*
X0006439Y0155565D02*
X0014935Y0155565D01*
X0014811Y0155616D02*
X0016207Y0155038D01*
X0023317Y0155038D01*
X0024713Y0155616D01*
X0025781Y0156684D01*
X0026359Y0158079D01*
X0026359Y0159590D01*
X0025781Y0160985D01*
X0024713Y0162053D01*
X0023317Y0162631D01*
X0016207Y0162631D01*
X0014811Y0162053D01*
X0013743Y0160985D01*
X0013165Y0159590D01*
X0013165Y0158079D01*
X0013743Y0156684D01*
X0014811Y0155616D01*
X0014470Y0155957D02*
X0006439Y0155957D01*
X0006439Y0156349D02*
X0014078Y0156349D01*
X0013719Y0156741D02*
X0006439Y0156741D01*
X0006439Y0157134D02*
X0013557Y0157134D01*
X0013395Y0157526D02*
X0006439Y0157526D01*
X0006439Y0157918D02*
X0013232Y0157918D01*
X0013165Y0158310D02*
X0006439Y0158310D01*
X0006439Y0158702D02*
X0013165Y0158702D01*
X0013165Y0159095D02*
X0006439Y0159095D01*
X0006439Y0159487D02*
X0013165Y0159487D01*
X0013285Y0159879D02*
X0006439Y0159879D01*
X0006439Y0160271D02*
X0013447Y0160271D01*
X0013610Y0160663D02*
X0006439Y0160663D01*
X0006439Y0161056D02*
X0013813Y0161056D01*
X0014206Y0161448D02*
X0006439Y0161448D01*
X0006439Y0161840D02*
X0014598Y0161840D01*
X0015243Y0162232D02*
X0006439Y0162232D01*
X0006439Y0162624D02*
X0016190Y0162624D01*
X0023334Y0162624D02*
X0041694Y0162624D01*
X0041856Y0162232D02*
X0024281Y0162232D01*
X0024926Y0161840D02*
X0042062Y0161840D01*
X0041988Y0161914D02*
X0043000Y0160902D01*
X0044322Y0160354D01*
X0045753Y0160354D01*
X0047075Y0160902D01*
X0048087Y0161914D01*
X0048634Y0163236D01*
X0048634Y0169867D01*
X0048087Y0171189D01*
X0047075Y0172200D01*
X0045753Y0172748D01*
X0044322Y0172748D01*
X0043000Y0172200D01*
X0041988Y0171189D01*
X0041441Y0169867D01*
X0041441Y0163236D01*
X0041988Y0161914D01*
X0042454Y0161448D02*
X0025318Y0161448D01*
X0025711Y0161056D02*
X0042846Y0161056D01*
X0043576Y0160663D02*
X0025914Y0160663D01*
X0026077Y0160271D02*
X0139402Y0160271D01*
X0139794Y0159879D02*
X0026239Y0159879D01*
X0026359Y0159487D02*
X0140186Y0159487D01*
X0140578Y0159095D02*
X0026359Y0159095D01*
X0026359Y0158702D02*
X0140971Y0158702D01*
X0141363Y0158310D02*
X0026359Y0158310D01*
X0026292Y0157918D02*
X0141755Y0157918D01*
X0142147Y0157526D02*
X0026130Y0157526D01*
X0025967Y0157134D02*
X0142539Y0157134D01*
X0142932Y0156741D02*
X0025805Y0156741D01*
X0025446Y0156349D02*
X0143324Y0156349D01*
X0143716Y0155957D02*
X0025054Y0155957D01*
X0024589Y0155565D02*
X0144108Y0155565D01*
X0148903Y0160271D02*
X0197935Y0160271D01*
X0197005Y0160663D02*
X0148510Y0160663D01*
X0148872Y0161056D02*
X0148118Y0161056D01*
X0148479Y0161448D02*
X0147726Y0161448D01*
X0148087Y0161840D02*
X0147334Y0161840D01*
X0147695Y0162232D02*
X0146942Y0162232D01*
X0147303Y0162624D02*
X0146549Y0162624D01*
X0146911Y0163017D02*
X0146157Y0163017D01*
X0145765Y0163409D02*
X0146834Y0163409D01*
X0146834Y0163093D02*
X0148941Y0160986D01*
X0151921Y0160986D01*
X0154028Y0163093D01*
X0154028Y0166073D01*
X0151921Y0168180D01*
X0148941Y0168180D01*
X0146834Y0166073D01*
X0146834Y0163093D01*
X0146834Y0163801D02*
X0145373Y0163801D01*
X0144981Y0164193D02*
X0146834Y0164193D01*
X0146834Y0164586D02*
X0144588Y0164586D01*
X0144196Y0164978D02*
X0146834Y0164978D01*
X0146834Y0165370D02*
X0143804Y0165370D01*
X0143412Y0165762D02*
X0146834Y0165762D01*
X0146916Y0166154D02*
X0143019Y0166154D01*
X0142627Y0166547D02*
X0147309Y0166547D01*
X0147701Y0166939D02*
X0142235Y0166939D01*
X0141843Y0167331D02*
X0148093Y0167331D01*
X0148485Y0167723D02*
X0141451Y0167723D01*
X0141058Y0168115D02*
X0148877Y0168115D01*
X0151985Y0168115D02*
X0178877Y0168115D01*
X0178941Y0168180D02*
X0176834Y0166073D01*
X0176834Y0163093D01*
X0178941Y0160986D01*
X0181921Y0160986D01*
X0184028Y0163093D01*
X0184028Y0166073D01*
X0181921Y0168180D01*
X0178941Y0168180D01*
X0178485Y0167723D02*
X0166660Y0167723D01*
X0166102Y0167954D02*
X0164761Y0167954D01*
X0163521Y0167441D01*
X0162573Y0166493D01*
X0162060Y0165253D01*
X0162060Y0163912D01*
X0162573Y0162673D01*
X0163521Y0161724D01*
X0164761Y0161211D01*
X0166102Y0161211D01*
X0167341Y0161724D01*
X0168290Y0162673D01*
X0168803Y0163912D01*
X0168803Y0165253D01*
X0168290Y0166493D01*
X0167341Y0167441D01*
X0166102Y0167954D01*
X0167451Y0167331D02*
X0178093Y0167331D01*
X0177701Y0166939D02*
X0167843Y0166939D01*
X0168236Y0166547D02*
X0177309Y0166547D01*
X0176916Y0166154D02*
X0168430Y0166154D01*
X0168592Y0165762D02*
X0176834Y0165762D01*
X0176834Y0165370D02*
X0168755Y0165370D01*
X0168803Y0164978D02*
X0176834Y0164978D01*
X0176834Y0164586D02*
X0168803Y0164586D01*
X0168803Y0164193D02*
X0176834Y0164193D01*
X0176834Y0163801D02*
X0168757Y0163801D01*
X0168595Y0163409D02*
X0176834Y0163409D01*
X0176911Y0163017D02*
X0168432Y0163017D01*
X0168241Y0162624D02*
X0177303Y0162624D01*
X0177695Y0162232D02*
X0167849Y0162232D01*
X0167457Y0161840D02*
X0178087Y0161840D01*
X0178479Y0161448D02*
X0166674Y0161448D01*
X0164189Y0161448D02*
X0152383Y0161448D01*
X0151991Y0161056D02*
X0178872Y0161056D01*
X0181991Y0161056D02*
X0196422Y0161056D01*
X0195993Y0161448D02*
X0182383Y0161448D01*
X0182775Y0161840D02*
X0195652Y0161840D01*
X0195369Y0162232D02*
X0183168Y0162232D01*
X0183560Y0162624D02*
X0195169Y0162624D01*
X0194998Y0163017D02*
X0183952Y0163017D01*
X0184028Y0163409D02*
X0194871Y0163409D01*
X0194789Y0163801D02*
X0184028Y0163801D01*
X0184028Y0164193D02*
X0194727Y0164193D01*
X0194728Y0164978D02*
X0184028Y0164978D01*
X0184028Y0165370D02*
X0194790Y0165370D01*
X0194873Y0165762D02*
X0184028Y0165762D01*
X0183946Y0166154D02*
X0195000Y0166154D01*
X0195172Y0166547D02*
X0183554Y0166547D01*
X0183162Y0166939D02*
X0195372Y0166939D01*
X0195656Y0167331D02*
X0182770Y0167331D01*
X0182377Y0167723D02*
X0195999Y0167723D01*
X0196430Y0168115D02*
X0181985Y0168115D01*
X0184028Y0164586D02*
X0202321Y0164586D01*
X0202321Y0164978D02*
X0202715Y0164978D01*
X0202715Y0165370D02*
X0202321Y0165370D01*
X0202321Y0165762D02*
X0202715Y0165762D01*
X0202715Y0166154D02*
X0202321Y0166154D01*
X0202321Y0166547D02*
X0202715Y0166547D01*
X0202715Y0166939D02*
X0202321Y0166939D01*
X0202321Y0167331D02*
X0202715Y0167331D01*
X0202715Y0167723D02*
X0202321Y0167723D01*
X0202321Y0168115D02*
X0202715Y0168115D01*
X0202715Y0168508D02*
X0202321Y0168508D01*
X0202321Y0168900D02*
X0202715Y0168900D01*
X0197953Y0168900D02*
X0140274Y0168900D01*
X0139882Y0169292D02*
X0251589Y0169292D01*
X0251589Y0169684D02*
X0139490Y0169684D01*
X0139097Y0170077D02*
X0251589Y0170077D01*
X0251589Y0170469D02*
X0138705Y0170469D01*
X0138313Y0170861D02*
X0251589Y0170861D01*
X0251589Y0171253D02*
X0137921Y0171253D01*
X0137528Y0171645D02*
X0251589Y0171645D01*
X0251589Y0172038D02*
X0137136Y0172038D01*
X0136744Y0172430D02*
X0251589Y0172430D01*
X0251589Y0172822D02*
X0136352Y0172822D01*
X0135960Y0173214D02*
X0251589Y0173214D01*
X0251589Y0173606D02*
X0135185Y0173606D01*
X0140666Y0168508D02*
X0197016Y0168508D01*
X0202321Y0164193D02*
X0202715Y0164193D01*
X0202715Y0163801D02*
X0202321Y0163801D01*
X0202321Y0163409D02*
X0202715Y0163409D01*
X0202715Y0163017D02*
X0202321Y0163017D01*
X0202321Y0162624D02*
X0202715Y0162624D01*
X0202715Y0162232D02*
X0202321Y0162232D01*
X0202321Y0161840D02*
X0202715Y0161840D01*
X0202715Y0161448D02*
X0202321Y0161448D01*
X0202321Y0161056D02*
X0202715Y0161056D01*
X0202715Y0160663D02*
X0202321Y0160663D01*
X0202321Y0160271D02*
X0202715Y0160271D01*
X0202715Y0164586D02*
X0234921Y0164586D01*
X0251589Y0173999D02*
X0006439Y0173999D01*
X0006439Y0174391D02*
X0251589Y0174391D01*
X0251589Y0174783D02*
X0006439Y0174783D01*
X0006439Y0175175D02*
X0251589Y0175175D01*
X0251589Y0175567D02*
X0006439Y0175567D01*
X0006439Y0173606D02*
X0126780Y0173606D01*
X0126005Y0173214D02*
X0006439Y0173214D01*
X0006439Y0172822D02*
X0125613Y0172822D01*
X0125221Y0172430D02*
X0086521Y0172430D01*
X0087075Y0172200D02*
X0085753Y0172748D01*
X0084322Y0172748D01*
X0083000Y0172200D01*
X0081988Y0171189D01*
X0081441Y0169867D01*
X0081441Y0163236D01*
X0081988Y0161914D01*
X0083000Y0160902D01*
X0084322Y0160354D01*
X0085753Y0160354D01*
X0087075Y0160902D01*
X0088087Y0161914D01*
X0088634Y0163236D01*
X0088634Y0169867D01*
X0088087Y0171189D01*
X0087075Y0172200D01*
X0087238Y0172038D02*
X0125036Y0172038D01*
X0124873Y0171645D02*
X0087630Y0171645D01*
X0088022Y0171253D02*
X0124711Y0171253D01*
X0124671Y0170861D02*
X0088223Y0170861D01*
X0088385Y0170469D02*
X0124671Y0170469D01*
X0124671Y0170077D02*
X0088548Y0170077D01*
X0088634Y0169684D02*
X0124727Y0169684D01*
X0124889Y0169292D02*
X0088634Y0169292D01*
X0088634Y0168900D02*
X0125052Y0168900D01*
X0125260Y0168508D02*
X0088634Y0168508D01*
X0088634Y0168115D02*
X0125652Y0168115D01*
X0126044Y0167723D02*
X0088634Y0167723D01*
X0088634Y0167331D02*
X0126874Y0167331D01*
X0132734Y0166939D02*
X0088634Y0166939D01*
X0088634Y0166547D02*
X0133126Y0166547D01*
X0133519Y0166154D02*
X0088634Y0166154D01*
X0088634Y0165762D02*
X0133911Y0165762D01*
X0134303Y0165370D02*
X0088634Y0165370D01*
X0088634Y0164978D02*
X0134695Y0164978D01*
X0135087Y0164586D02*
X0088634Y0164586D01*
X0088634Y0164193D02*
X0135480Y0164193D01*
X0135872Y0163801D02*
X0088634Y0163801D01*
X0088634Y0163409D02*
X0136264Y0163409D01*
X0136656Y0163017D02*
X0088544Y0163017D01*
X0088381Y0162624D02*
X0137049Y0162624D01*
X0137441Y0162232D02*
X0088219Y0162232D01*
X0088013Y0161840D02*
X0137833Y0161840D01*
X0138225Y0161448D02*
X0087621Y0161448D01*
X0087229Y0161056D02*
X0138617Y0161056D01*
X0139010Y0160663D02*
X0086499Y0160663D01*
X0083576Y0160663D02*
X0046499Y0160663D01*
X0047229Y0161056D02*
X0082846Y0161056D01*
X0082454Y0161448D02*
X0047621Y0161448D01*
X0048013Y0161840D02*
X0082062Y0161840D01*
X0081856Y0162232D02*
X0048219Y0162232D01*
X0048381Y0162624D02*
X0081694Y0162624D01*
X0081531Y0163017D02*
X0048544Y0163017D01*
X0048634Y0163409D02*
X0081441Y0163409D01*
X0081441Y0163801D02*
X0048634Y0163801D01*
X0048634Y0164193D02*
X0081441Y0164193D01*
X0081441Y0164586D02*
X0048634Y0164586D01*
X0048634Y0164978D02*
X0081441Y0164978D01*
X0081441Y0165370D02*
X0048634Y0165370D01*
X0048634Y0165762D02*
X0081441Y0165762D01*
X0081441Y0166154D02*
X0048634Y0166154D01*
X0048634Y0166547D02*
X0081441Y0166547D01*
X0081441Y0166939D02*
X0048634Y0166939D01*
X0048634Y0167331D02*
X0081441Y0167331D01*
X0081441Y0167723D02*
X0048634Y0167723D01*
X0048634Y0168115D02*
X0081441Y0168115D01*
X0081441Y0168508D02*
X0048634Y0168508D01*
X0048634Y0168900D02*
X0081441Y0168900D01*
X0081441Y0169292D02*
X0048634Y0169292D01*
X0048634Y0169684D02*
X0081441Y0169684D01*
X0081528Y0170077D02*
X0048548Y0170077D01*
X0048385Y0170469D02*
X0081690Y0170469D01*
X0081853Y0170861D02*
X0048223Y0170861D01*
X0048022Y0171253D02*
X0082053Y0171253D01*
X0082445Y0171645D02*
X0047630Y0171645D01*
X0047238Y0172038D02*
X0082837Y0172038D01*
X0083554Y0172430D02*
X0046521Y0172430D01*
X0043554Y0172430D02*
X0006439Y0172430D01*
X0006439Y0172038D02*
X0042837Y0172038D01*
X0042445Y0171645D02*
X0006439Y0171645D01*
X0006439Y0171253D02*
X0042053Y0171253D01*
X0041853Y0170861D02*
X0006439Y0170861D01*
X0006439Y0170469D02*
X0041690Y0170469D01*
X0041528Y0170077D02*
X0006439Y0170077D01*
X0006439Y0169684D02*
X0041441Y0169684D01*
X0041441Y0169292D02*
X0006439Y0169292D01*
X0006439Y0168900D02*
X0041441Y0168900D01*
X0041441Y0168508D02*
X0006439Y0168508D01*
X0006439Y0168115D02*
X0041441Y0168115D01*
X0041441Y0167723D02*
X0006439Y0167723D01*
X0006439Y0167331D02*
X0041441Y0167331D01*
X0041441Y0166939D02*
X0006439Y0166939D01*
X0006439Y0166547D02*
X0041441Y0166547D01*
X0041441Y0166154D02*
X0006439Y0166154D01*
X0006439Y0165762D02*
X0041441Y0165762D01*
X0041441Y0165370D02*
X0006439Y0165370D01*
X0006439Y0164978D02*
X0041441Y0164978D01*
X0041441Y0164586D02*
X0006439Y0164586D01*
X0006439Y0164193D02*
X0041441Y0164193D01*
X0041441Y0163801D02*
X0006439Y0163801D01*
X0006439Y0163409D02*
X0041441Y0163409D01*
X0041531Y0163017D02*
X0006439Y0163017D01*
X0023864Y0142622D02*
X0042103Y0142622D01*
X0042265Y0142229D02*
X0024675Y0142229D01*
X0025212Y0141837D02*
X0042483Y0141837D01*
X0042876Y0141445D02*
X0025604Y0141445D01*
X0025887Y0141053D02*
X0043268Y0141053D01*
X0044068Y0140661D02*
X0026132Y0140661D01*
X0026294Y0140268D02*
X0150261Y0140268D01*
X0150261Y0139876D02*
X0026430Y0139876D01*
X0026508Y0139484D02*
X0150261Y0139484D01*
X0150261Y0139092D02*
X0026559Y0139092D01*
X0026532Y0138307D02*
X0150261Y0138307D01*
X0150261Y0138700D02*
X0019959Y0138700D01*
X0019959Y0138307D02*
X0019565Y0138307D01*
X0019565Y0137915D02*
X0019959Y0137915D01*
X0019959Y0137523D02*
X0019565Y0137523D01*
X0019565Y0137131D02*
X0019959Y0137131D01*
X0019959Y0136738D02*
X0019565Y0136738D01*
X0019565Y0136346D02*
X0019959Y0136346D01*
X0019959Y0135954D02*
X0019565Y0135954D01*
X0019565Y0135562D02*
X0019959Y0135562D01*
X0019959Y0135170D02*
X0019565Y0135170D01*
X0024158Y0135170D02*
X0041806Y0135170D01*
X0041969Y0135562D02*
X0024858Y0135562D01*
X0025334Y0135954D02*
X0042165Y0135954D01*
X0042427Y0136346D02*
X0025706Y0136346D01*
X0025968Y0136738D02*
X0042792Y0136738D01*
X0043278Y0137131D02*
X0026182Y0137131D01*
X0046246Y0147328D02*
X0072018Y0147328D01*
X0072216Y0147410D02*
X0070931Y0146878D01*
X0069947Y0145894D01*
X0069415Y0144609D01*
X0069415Y0143218D01*
X0069947Y0141933D01*
X0070931Y0140949D01*
X0072216Y0140417D01*
X0073607Y0140417D01*
X0074892Y0140949D01*
X0075876Y0141933D01*
X0076408Y0143218D01*
X0076408Y0144609D01*
X0075876Y0145894D01*
X0074892Y0146878D01*
X0073607Y0147410D01*
X0072216Y0147410D01*
X0071071Y0146936D02*
X0047193Y0146936D01*
X0047667Y0146544D02*
X0070597Y0146544D01*
X0070205Y0146152D02*
X0048060Y0146152D01*
X0048373Y0145759D02*
X0069891Y0145759D01*
X0069729Y0145367D02*
X0048535Y0145367D01*
X0048698Y0144975D02*
X0069566Y0144975D01*
X0069415Y0144583D02*
X0048849Y0144583D01*
X0048849Y0144191D02*
X0069415Y0144191D01*
X0069415Y0143798D02*
X0048849Y0143798D01*
X0048849Y0143406D02*
X0069415Y0143406D01*
X0069499Y0143014D02*
X0048765Y0143014D01*
X0048602Y0142622D02*
X0069662Y0142622D01*
X0069824Y0142229D02*
X0048440Y0142229D01*
X0048222Y0141837D02*
X0070042Y0141837D01*
X0070435Y0141445D02*
X0047830Y0141445D01*
X0047437Y0141053D02*
X0070827Y0141053D01*
X0071627Y0140661D02*
X0046637Y0140661D01*
X0074196Y0140661D02*
X0150261Y0140661D01*
X0150261Y0141053D02*
X0074996Y0141053D01*
X0075389Y0141445D02*
X0150261Y0141445D01*
X0150261Y0141837D02*
X0075781Y0141837D01*
X0075999Y0142229D02*
X0150261Y0142229D01*
X0150261Y0142622D02*
X0076162Y0142622D01*
X0076324Y0143014D02*
X0150261Y0143014D01*
X0150261Y0143406D02*
X0076408Y0143406D01*
X0076408Y0143798D02*
X0150261Y0143798D01*
X0150261Y0144191D02*
X0076408Y0144191D01*
X0076408Y0144583D02*
X0150261Y0144583D01*
X0150261Y0144975D02*
X0076257Y0144975D01*
X0076094Y0145367D02*
X0150261Y0145367D01*
X0150261Y0145759D02*
X0075932Y0145759D01*
X0075619Y0146152D02*
X0150261Y0146152D01*
X0150261Y0146544D02*
X0075227Y0146544D01*
X0074752Y0146936D02*
X0150261Y0146936D01*
X0150261Y0147328D02*
X0073805Y0147328D01*
X0024702Y0114382D02*
X0140929Y0114382D01*
X0140929Y0113990D02*
X0024864Y0113990D01*
X0025026Y0113598D02*
X0140929Y0113598D01*
X0140929Y0113206D02*
X0025189Y0113206D01*
X0025227Y0112814D02*
X0140929Y0112814D01*
X0140929Y0112421D02*
X0025227Y0112421D01*
X0025227Y0112029D02*
X0140929Y0112029D01*
X0141204Y0111637D02*
X0025192Y0111637D01*
X0025030Y0111245D02*
X0141596Y0111245D01*
X0141988Y0110852D02*
X0024867Y0110852D01*
X0024705Y0110460D02*
X0142380Y0110460D01*
X0142773Y0110068D02*
X0024327Y0110068D01*
X0020158Y0109284D02*
X0006439Y0109284D01*
X0006439Y0109676D02*
X0019527Y0109676D01*
X0019134Y0110068D02*
X0006439Y0110068D01*
X0006439Y0110460D02*
X0018756Y0110460D01*
X0018594Y0110852D02*
X0006439Y0110852D01*
X0006439Y0111245D02*
X0018431Y0111245D01*
X0018269Y0111637D02*
X0006439Y0111637D01*
X0006439Y0112029D02*
X0018234Y0112029D01*
X0018234Y0112421D02*
X0006439Y0112421D01*
X0006439Y0112814D02*
X0018234Y0112814D01*
X0018272Y0113206D02*
X0006439Y0113206D01*
X0006439Y0113598D02*
X0018435Y0113598D01*
X0018597Y0113990D02*
X0006439Y0113990D01*
X0006439Y0114382D02*
X0018760Y0114382D01*
X0019143Y0114775D02*
X0006439Y0114775D01*
X0006439Y0115167D02*
X0019535Y0115167D01*
X0020178Y0115559D02*
X0006439Y0115559D01*
X0006439Y0115951D02*
X0141989Y0115951D01*
X0141597Y0115559D02*
X0023283Y0115559D01*
X0023926Y0115167D02*
X0141204Y0115167D01*
X0140929Y0114775D02*
X0024319Y0114775D01*
X0006439Y0116343D02*
X0142381Y0116343D01*
X0142773Y0116736D02*
X0006439Y0116736D01*
X0006439Y0104969D02*
X0105416Y0104969D01*
X0105024Y0104577D02*
X0006439Y0104577D01*
X0006439Y0104185D02*
X0104632Y0104185D01*
X0104240Y0103793D02*
X0006439Y0103793D01*
X0006439Y0103400D02*
X0103847Y0103400D01*
X0103527Y0103008D02*
X0006439Y0103008D01*
X0006439Y0102616D02*
X0103527Y0102616D01*
X0108832Y0104969D02*
X0135416Y0104969D01*
X0140560Y0074769D02*
X0006439Y0074769D01*
X0006439Y0074377D02*
X0139912Y0074377D01*
X0139519Y0073985D02*
X0006439Y0073985D01*
X0006439Y0073592D02*
X0139219Y0073592D01*
X0139057Y0073200D02*
X0006439Y0073200D01*
X0006439Y0072808D02*
X0138895Y0072808D01*
X0138831Y0072416D02*
X0074592Y0072416D01*
X0074663Y0072386D02*
X0073990Y0072665D01*
X0073276Y0072807D01*
X0073108Y0072807D01*
X0073108Y0069307D01*
X0072715Y0069307D01*
X0072715Y0072807D01*
X0072548Y0072807D01*
X0071833Y0072665D01*
X0071161Y0072386D01*
X0070555Y0071982D01*
X0070040Y0071467D01*
X0069636Y0070861D01*
X0069357Y0070189D01*
X0069215Y0069474D01*
X0069215Y0069307D01*
X0072715Y0069307D01*
X0072715Y0068913D01*
X0073108Y0068913D01*
X0073108Y0065413D01*
X0073276Y0065413D01*
X0073990Y0065555D01*
X0074663Y0065834D01*
X0075268Y0066239D01*
X0075783Y0066754D01*
X0076188Y0067359D01*
X0076466Y0068032D01*
X0076608Y0068746D01*
X0076608Y0068913D01*
X0073109Y0068913D01*
X0073109Y0069307D01*
X0076608Y0069307D01*
X0076608Y0069474D01*
X0076466Y0070189D01*
X0076188Y0070861D01*
X0075783Y0071467D01*
X0075268Y0071982D01*
X0074663Y0072386D01*
X0075206Y0072023D02*
X0138831Y0072023D01*
X0138831Y0071631D02*
X0075619Y0071631D01*
X0075935Y0071239D02*
X0138927Y0071239D01*
X0139090Y0070847D02*
X0076194Y0070847D01*
X0076356Y0070455D02*
X0139252Y0070455D01*
X0139598Y0070062D02*
X0076491Y0070062D01*
X0076570Y0069670D02*
X0139991Y0069670D01*
X0140751Y0069278D02*
X0073109Y0069278D01*
X0073108Y0069670D02*
X0072715Y0069670D01*
X0072715Y0069278D02*
X0045549Y0069278D01*
X0045549Y0069307D02*
X0049049Y0069307D01*
X0049049Y0069474D01*
X0048907Y0070189D01*
X0048629Y0070861D01*
X0048224Y0071467D01*
X0047709Y0071982D01*
X0047104Y0072386D01*
X0046431Y0072665D01*
X0045717Y0072807D01*
X0045549Y0072807D01*
X0045549Y0069307D01*
X0045156Y0069307D01*
X0045156Y0072807D01*
X0044988Y0072807D01*
X0044274Y0072665D01*
X0043601Y0072386D01*
X0042996Y0071982D01*
X0042481Y0071467D01*
X0042076Y0070861D01*
X0041798Y0070189D01*
X0041656Y0069474D01*
X0041656Y0069307D01*
X0045156Y0069307D01*
X0045156Y0068913D01*
X0045549Y0068913D01*
X0045549Y0065413D01*
X0045717Y0065413D01*
X0046431Y0065555D01*
X0047104Y0065834D01*
X0047709Y0066239D01*
X0048224Y0066754D01*
X0048629Y0067359D01*
X0048907Y0068032D01*
X0049049Y0068746D01*
X0049049Y0068913D01*
X0045549Y0068913D01*
X0045549Y0069307D01*
X0045549Y0069670D02*
X0045156Y0069670D01*
X0045156Y0069278D02*
X0006439Y0069278D01*
X0006439Y0069670D02*
X0041695Y0069670D01*
X0041773Y0070062D02*
X0006439Y0070062D01*
X0006439Y0070455D02*
X0041908Y0070455D01*
X0042070Y0070847D02*
X0006439Y0070847D01*
X0006439Y0071239D02*
X0042329Y0071239D01*
X0042645Y0071631D02*
X0006439Y0071631D01*
X0006439Y0072023D02*
X0043058Y0072023D01*
X0043672Y0072416D02*
X0006439Y0072416D01*
X0006439Y0068886D02*
X0041656Y0068886D01*
X0041656Y0068913D02*
X0041656Y0068746D01*
X0041798Y0068032D01*
X0042076Y0067359D01*
X0042481Y0066754D01*
X0042996Y0066239D01*
X0043601Y0065834D01*
X0044274Y0065555D01*
X0044988Y0065413D01*
X0045156Y0065413D01*
X0045156Y0068913D01*
X0041656Y0068913D01*
X0041706Y0068494D02*
X0006439Y0068494D01*
X0006439Y0068101D02*
X0041784Y0068101D01*
X0041931Y0067709D02*
X0006439Y0067709D01*
X0006439Y0067317D02*
X0042105Y0067317D01*
X0042367Y0066925D02*
X0006439Y0066925D01*
X0006439Y0066533D02*
X0042702Y0066533D01*
X0043143Y0066140D02*
X0006439Y0066140D01*
X0006439Y0065748D02*
X0043809Y0065748D01*
X0045156Y0065748D02*
X0045549Y0065748D01*
X0045549Y0066140D02*
X0045156Y0066140D01*
X0045156Y0066533D02*
X0045549Y0066533D01*
X0045549Y0066925D02*
X0045156Y0066925D01*
X0045156Y0067317D02*
X0045549Y0067317D01*
X0045549Y0067709D02*
X0045156Y0067709D01*
X0045156Y0068101D02*
X0045549Y0068101D01*
X0045549Y0068494D02*
X0045156Y0068494D01*
X0045156Y0068886D02*
X0045549Y0068886D01*
X0045549Y0070062D02*
X0045156Y0070062D01*
X0045156Y0070455D02*
X0045549Y0070455D01*
X0045549Y0070847D02*
X0045156Y0070847D01*
X0045156Y0071239D02*
X0045549Y0071239D01*
X0045549Y0071631D02*
X0045156Y0071631D01*
X0045156Y0072023D02*
X0045549Y0072023D01*
X0045549Y0072416D02*
X0045156Y0072416D01*
X0047033Y0072416D02*
X0071231Y0072416D01*
X0070617Y0072023D02*
X0047647Y0072023D01*
X0048060Y0071631D02*
X0070205Y0071631D01*
X0069888Y0071239D02*
X0048376Y0071239D01*
X0048635Y0070847D02*
X0069630Y0070847D01*
X0069467Y0070455D02*
X0048797Y0070455D01*
X0048932Y0070062D02*
X0069332Y0070062D01*
X0069254Y0069670D02*
X0049010Y0069670D01*
X0049049Y0068886D02*
X0069215Y0068886D01*
X0069215Y0068913D02*
X0069215Y0068746D01*
X0069357Y0068032D01*
X0069636Y0067359D01*
X0070040Y0066754D01*
X0070555Y0066239D01*
X0071161Y0065834D01*
X0071833Y0065555D01*
X0072548Y0065413D01*
X0072715Y0065413D01*
X0072715Y0068913D01*
X0069215Y0068913D01*
X0069265Y0068494D02*
X0048999Y0068494D01*
X0048921Y0068101D02*
X0069343Y0068101D01*
X0069491Y0067709D02*
X0048774Y0067709D01*
X0048600Y0067317D02*
X0069664Y0067317D01*
X0069926Y0066925D02*
X0048338Y0066925D01*
X0048003Y0066533D02*
X0070261Y0066533D01*
X0070702Y0066140D02*
X0047562Y0066140D01*
X0046896Y0065748D02*
X0071368Y0065748D01*
X0072715Y0065748D02*
X0073108Y0065748D01*
X0073108Y0066140D02*
X0072715Y0066140D01*
X0072715Y0066533D02*
X0073108Y0066533D01*
X0073108Y0066925D02*
X0072715Y0066925D01*
X0072715Y0067317D02*
X0073108Y0067317D01*
X0073108Y0067709D02*
X0072715Y0067709D01*
X0072715Y0068101D02*
X0073108Y0068101D01*
X0073108Y0068494D02*
X0072715Y0068494D01*
X0072715Y0068886D02*
X0073108Y0068886D01*
X0073108Y0070062D02*
X0072715Y0070062D01*
X0072715Y0070455D02*
X0073108Y0070455D01*
X0073108Y0070847D02*
X0072715Y0070847D01*
X0072715Y0071239D02*
X0073108Y0071239D01*
X0073108Y0071631D02*
X0072715Y0071631D01*
X0072715Y0072023D02*
X0073108Y0072023D01*
X0073108Y0072416D02*
X0072715Y0072416D01*
X0071981Y0075553D02*
X0046283Y0075553D01*
X0047230Y0075946D02*
X0071034Y0075946D01*
X0070581Y0076338D02*
X0047683Y0076338D01*
X0048075Y0076730D02*
X0070189Y0076730D01*
X0069885Y0077122D02*
X0048379Y0077122D01*
X0048542Y0077514D02*
X0069722Y0077514D01*
X0069560Y0077907D02*
X0048704Y0077907D01*
X0048849Y0078299D02*
X0069415Y0078299D01*
X0069415Y0078691D02*
X0048849Y0078691D01*
X0048849Y0079083D02*
X0069415Y0079083D01*
X0069415Y0079476D02*
X0048849Y0079476D01*
X0048759Y0079868D02*
X0069506Y0079868D01*
X0069668Y0080260D02*
X0048596Y0080260D01*
X0048434Y0080652D02*
X0069831Y0080652D01*
X0070058Y0081044D02*
X0048206Y0081044D01*
X0047814Y0081437D02*
X0070450Y0081437D01*
X0070842Y0081829D02*
X0047422Y0081829D01*
X0046600Y0082221D02*
X0071664Y0082221D01*
X0076608Y0068886D02*
X0140614Y0068886D01*
X0139934Y0068494D02*
X0076558Y0068494D01*
X0076480Y0068101D02*
X0139542Y0068101D01*
X0139229Y0067709D02*
X0076333Y0067709D01*
X0076160Y0067317D02*
X0139066Y0067317D01*
X0138904Y0066925D02*
X0075897Y0066925D01*
X0075562Y0066533D02*
X0138831Y0066533D01*
X0138831Y0066140D02*
X0075121Y0066140D01*
X0074455Y0065748D02*
X0138831Y0065748D01*
X0138918Y0065356D02*
X0006439Y0065356D01*
X0006439Y0064964D02*
X0139080Y0064964D01*
X0139243Y0064571D02*
X0006439Y0064571D01*
X0006439Y0064179D02*
X0139576Y0064179D01*
X0139968Y0063787D02*
X0006439Y0063787D01*
X0006439Y0063395D02*
X0140697Y0063395D01*
X0146554Y0063003D02*
X0006439Y0063003D01*
X0006439Y0129679D02*
X0212899Y0129679D01*
X0212899Y0134385D02*
X0212435Y0134385D01*
X0212367Y0134777D02*
X0212899Y0134777D01*
X0212899Y0135170D02*
X0212285Y0135170D01*
X0212122Y0135562D02*
X0212899Y0135562D01*
X0212899Y0135954D02*
X0211926Y0135954D01*
X0211664Y0136346D02*
X0212899Y0136346D01*
X0212899Y0136738D02*
X0211299Y0136738D01*
X0210813Y0137131D02*
X0212899Y0137131D01*
X0212899Y0137523D02*
X0210065Y0137523D01*
X0211927Y0139484D02*
X0156979Y0139484D01*
X0156979Y0139876D02*
X0211535Y0139876D01*
X0211142Y0140268D02*
X0156979Y0140268D01*
X0156979Y0140661D02*
X0179895Y0140661D01*
X0180484Y0140417D02*
X0179199Y0140949D01*
X0178215Y0141933D01*
X0177682Y0143218D01*
X0177682Y0144609D01*
X0178215Y0145894D01*
X0179199Y0146878D01*
X0180484Y0147410D01*
X0181875Y0147410D01*
X0183160Y0146878D01*
X0184144Y0145894D01*
X0184676Y0144609D01*
X0184676Y0143218D01*
X0184144Y0141933D01*
X0183160Y0140949D01*
X0181875Y0140417D01*
X0180484Y0140417D01*
X0179095Y0141053D02*
X0156979Y0141053D01*
X0156979Y0141445D02*
X0178702Y0141445D01*
X0178310Y0141837D02*
X0156979Y0141837D01*
X0156979Y0142229D02*
X0178092Y0142229D01*
X0177929Y0142622D02*
X0156979Y0142622D01*
X0156979Y0143014D02*
X0177767Y0143014D01*
X0177682Y0143406D02*
X0156979Y0143406D01*
X0156979Y0143798D02*
X0177682Y0143798D01*
X0177682Y0144191D02*
X0156979Y0144191D01*
X0156979Y0144583D02*
X0177682Y0144583D01*
X0177834Y0144975D02*
X0156979Y0144975D01*
X0156979Y0145367D02*
X0177997Y0145367D01*
X0178159Y0145759D02*
X0156979Y0145759D01*
X0156979Y0146152D02*
X0178472Y0146152D01*
X0178864Y0146544D02*
X0156979Y0146544D01*
X0156979Y0146936D02*
X0179339Y0146936D01*
X0180286Y0147328D02*
X0156979Y0147328D01*
X0156979Y0139092D02*
X0212319Y0139092D01*
X0212711Y0138700D02*
X0156979Y0138700D01*
X0156979Y0138307D02*
X0212899Y0138307D01*
X0212899Y0137915D02*
X0156979Y0137915D01*
X0156979Y0137523D02*
X0179853Y0137523D01*
X0179105Y0137131D02*
X0156979Y0137131D01*
X0156979Y0136738D02*
X0178619Y0136738D01*
X0178254Y0136346D02*
X0156976Y0136346D01*
X0156813Y0135954D02*
X0177991Y0135954D01*
X0177795Y0135562D02*
X0156651Y0135562D01*
X0156488Y0135170D02*
X0177633Y0135170D01*
X0177551Y0134777D02*
X0156125Y0134777D01*
X0155732Y0134385D02*
X0177482Y0134385D01*
X0180982Y0134385D02*
X0181376Y0134385D01*
X0181376Y0134777D02*
X0180982Y0134777D01*
X0180982Y0135170D02*
X0181376Y0135170D01*
X0181376Y0135562D02*
X0180982Y0135562D01*
X0180982Y0135954D02*
X0181376Y0135954D01*
X0181376Y0136346D02*
X0180982Y0136346D01*
X0180982Y0136738D02*
X0181376Y0136738D01*
X0181376Y0137131D02*
X0180982Y0137131D01*
X0180982Y0137523D02*
X0181376Y0137523D01*
X0182464Y0140661D02*
X0207454Y0140661D01*
X0206654Y0141053D02*
X0183264Y0141053D01*
X0183656Y0141445D02*
X0206261Y0141445D01*
X0205869Y0141837D02*
X0184048Y0141837D01*
X0184267Y0142229D02*
X0205651Y0142229D01*
X0205488Y0142622D02*
X0184429Y0142622D01*
X0184592Y0143014D02*
X0205326Y0143014D01*
X0205242Y0143406D02*
X0184676Y0143406D01*
X0184676Y0143798D02*
X0205242Y0143798D01*
X0205242Y0144191D02*
X0184676Y0144191D01*
X0184676Y0144583D02*
X0205242Y0144583D01*
X0205393Y0144975D02*
X0184525Y0144975D01*
X0184362Y0145367D02*
X0205556Y0145367D01*
X0205718Y0145759D02*
X0184200Y0145759D01*
X0183886Y0146152D02*
X0206031Y0146152D01*
X0206424Y0146544D02*
X0183494Y0146544D01*
X0183020Y0146936D02*
X0206898Y0146936D01*
X0207845Y0147328D02*
X0182073Y0147328D01*
X0181376Y0133209D02*
X0180982Y0133209D01*
X0180982Y0132816D02*
X0181376Y0132816D01*
X0181376Y0132424D02*
X0180982Y0132424D01*
X0180982Y0132032D02*
X0181376Y0132032D01*
X0181376Y0131640D02*
X0180982Y0131640D01*
X0180982Y0131248D02*
X0181376Y0131248D01*
X0181376Y0130855D02*
X0180982Y0130855D01*
X0180982Y0130463D02*
X0181376Y0130463D01*
X0210023Y0140661D02*
X0210750Y0140661D01*
X0163406Y0161840D02*
X0152775Y0161840D01*
X0153168Y0162232D02*
X0163013Y0162232D01*
X0162621Y0162624D02*
X0153560Y0162624D01*
X0153952Y0163017D02*
X0162430Y0163017D01*
X0162268Y0163409D02*
X0154028Y0163409D01*
X0154028Y0163801D02*
X0162106Y0163801D01*
X0162060Y0164193D02*
X0154028Y0164193D01*
X0154028Y0164586D02*
X0162060Y0164586D01*
X0162060Y0164978D02*
X0154028Y0164978D01*
X0154028Y0165370D02*
X0162108Y0165370D01*
X0162270Y0165762D02*
X0154028Y0165762D01*
X0153946Y0166154D02*
X0162433Y0166154D01*
X0162627Y0166547D02*
X0153554Y0166547D01*
X0153162Y0166939D02*
X0163019Y0166939D01*
X0163411Y0167331D02*
X0152770Y0167331D01*
X0152377Y0167723D02*
X0164203Y0167723D01*
X0168423Y0022605D02*
X0168817Y0022605D01*
X0168817Y0022213D02*
X0168423Y0022213D01*
X0168423Y0021820D02*
X0168817Y0021820D01*
X0168817Y0021428D02*
X0168423Y0021428D01*
X0168423Y0021036D02*
X0168817Y0021036D01*
X0168817Y0020644D02*
X0168423Y0020644D01*
X0168423Y0020251D02*
X0168817Y0020251D01*
X0168817Y0019859D02*
X0168423Y0019859D01*
X0168423Y0018683D02*
X0168817Y0018683D01*
X0168817Y0018290D02*
X0168423Y0018290D01*
X0168423Y0017898D02*
X0168817Y0017898D01*
X0168817Y0017506D02*
X0168423Y0017506D01*
X0168423Y0017114D02*
X0168817Y0017114D01*
X0168817Y0016722D02*
X0168423Y0016722D01*
X0168423Y0016329D02*
X0168817Y0016329D01*
X0168817Y0015937D02*
X0168423Y0015937D01*
X0168423Y0015545D02*
X0168817Y0015545D01*
X0166897Y0015545D02*
X0159821Y0015545D01*
X0160695Y0015937D02*
X0166286Y0015937D01*
X0165870Y0016329D02*
X0161087Y0016329D01*
X0161480Y0016722D02*
X0165549Y0016722D01*
X0165287Y0017114D02*
X0161741Y0017114D01*
X0161903Y0017506D02*
X0165121Y0017506D01*
X0164977Y0017898D02*
X0162066Y0017898D01*
X0162192Y0018290D02*
X0164899Y0018290D01*
D18*
X0129998Y0009071D03*
X0094565Y0050409D03*
X0110313Y0054346D03*
X0116219Y0054346D03*
X0122124Y0054346D03*
X0128030Y0054346D03*
X0133935Y0054346D03*
X0133935Y0060252D03*
X0128030Y0060252D03*
X0122124Y0060252D03*
X0116219Y0060252D03*
X0110313Y0060252D03*
X0118187Y0066157D03*
X0126061Y0066157D03*
X0126061Y0074031D03*
X0118187Y0074031D03*
X0118187Y0081906D03*
X0116219Y0087811D03*
X0122124Y0087811D03*
X0128030Y0087811D03*
X0133935Y0087811D03*
X0133935Y0093717D03*
X0128030Y0093717D03*
X0122124Y0093717D03*
X0116219Y0093717D03*
X0110313Y0093717D03*
X0110313Y0087811D03*
X0126061Y0081906D03*
X0128030Y0119307D03*
X0122124Y0119307D03*
X0116219Y0119307D03*
X0116219Y0125213D03*
X0122124Y0125213D03*
X0128030Y0125213D03*
X0133935Y0125213D03*
X0133935Y0119307D03*
X0126061Y0131118D03*
X0118187Y0131118D03*
X0118187Y0138992D03*
X0118187Y0146866D03*
X0116219Y0152772D03*
X0122124Y0152772D03*
X0128030Y0152772D03*
X0128030Y0158677D03*
X0122124Y0158677D03*
X0116219Y0158677D03*
X0110313Y0158677D03*
X0110313Y0152772D03*
X0126061Y0146866D03*
X0126061Y0138992D03*
X0133935Y0152772D03*
X0133935Y0158677D03*
X0098502Y0172457D03*
X0110313Y0125213D03*
X0110313Y0119307D03*
X0076849Y0119307D03*
X0076849Y0095685D03*
X0009920Y0079937D03*
X0009920Y0129150D03*
X0009920Y0172457D03*
X0238266Y0107496D03*
X0238266Y0050409D03*
X0248108Y0009071D03*
X0248108Y0172457D03*
D19*
X0242518Y0164583D02*
X0242518Y0153244D01*
X0238266Y0148992D01*
X0153620Y0150803D02*
X0153620Y0142929D01*
X0153620Y0137024D01*
X0153620Y0150803D02*
X0133935Y0170488D01*
X0128030Y0170488D01*
X0137124Y0101591D02*
X0147715Y0092969D01*
X0147715Y0072063D01*
X0147715Y0066157D01*
X0208738Y0080921D02*
X0211849Y0084031D01*
X0238266Y0084031D01*
D20*
X0153620Y0137024D03*
X0153620Y0142929D03*
X0133935Y0170488D03*
X0128030Y0170488D03*
X0141809Y0072063D03*
X0141809Y0066157D03*
X0147715Y0066157D03*
D21*
X0122124Y0101591D03*
X0165431Y0164583D03*
D22*
X0155589Y0095685D03*
M02*
