G75*
%MOIN*%
%OFA0B0*%
%FSLAX25Y25*%
%IPPOS*%
%LPD*%
%AMOC8*
5,1,8,0,0,1.08239X$1,22.5*
%
%ADD10C,0.00400*%
%ADD11C,0.01181*%
%ADD12C,0.01200*%
%ADD13C,0.00900*%
%ADD14C,0.01000*%
%ADD15C,0.00300*%
D10*
X0014190Y0068326D02*
X0014190Y0072654D01*
X0016354Y0070490D01*
X0013469Y0070490D01*
X0017819Y0071211D02*
X0017819Y0071933D01*
X0018540Y0072654D01*
X0019983Y0072654D01*
X0020704Y0071933D01*
X0022169Y0071933D02*
X0025054Y0069047D01*
X0024333Y0068326D01*
X0022890Y0068326D01*
X0022169Y0069047D01*
X0022169Y0071933D01*
X0022890Y0072654D01*
X0024333Y0072654D01*
X0025054Y0071933D01*
X0025054Y0069047D01*
X0026519Y0068326D02*
X0029405Y0068326D01*
X0026519Y0071211D01*
X0026519Y0071933D01*
X0027240Y0072654D01*
X0028683Y0072654D01*
X0029405Y0071933D01*
X0029405Y0075413D02*
X0029405Y0079741D01*
X0027240Y0079741D01*
X0026519Y0079019D01*
X0026519Y0077577D01*
X0027240Y0076855D01*
X0029405Y0076855D01*
X0027962Y0076855D02*
X0026519Y0075413D01*
X0025054Y0075413D02*
X0022890Y0075413D01*
X0022169Y0076134D01*
X0022169Y0076855D01*
X0022890Y0077577D01*
X0025054Y0077577D01*
X0022890Y0077577D02*
X0022169Y0078298D01*
X0022169Y0079019D01*
X0022890Y0079741D01*
X0025054Y0079741D01*
X0025054Y0075413D01*
X0020704Y0076134D02*
X0019983Y0075413D01*
X0018540Y0075413D01*
X0017819Y0076134D01*
X0017819Y0076855D01*
X0018540Y0077577D01*
X0019983Y0077577D01*
X0020704Y0078298D01*
X0020704Y0079019D01*
X0019983Y0079741D01*
X0018540Y0079741D01*
X0017819Y0079019D01*
X0016354Y0079019D02*
X0016354Y0076134D01*
X0015633Y0075413D01*
X0014190Y0075413D01*
X0013469Y0076134D01*
X0013469Y0079019D02*
X0014190Y0079741D01*
X0015633Y0079741D01*
X0016354Y0079019D01*
X0017819Y0071211D02*
X0020704Y0068326D01*
X0017819Y0068326D01*
X0018007Y0128562D02*
X0015843Y0128562D01*
X0015121Y0129284D01*
X0015121Y0132169D01*
X0015843Y0132890D01*
X0018007Y0132890D01*
X0018007Y0128562D01*
X0019471Y0128562D02*
X0019471Y0132890D01*
X0022357Y0132890D02*
X0019471Y0128562D01*
X0022357Y0128562D02*
X0022357Y0132890D01*
X0023822Y0132169D02*
X0024543Y0132890D01*
X0025986Y0132890D01*
X0026707Y0132169D01*
X0026707Y0129284D01*
X0025986Y0128562D01*
X0024543Y0128562D01*
X0023822Y0129284D01*
X0023822Y0130726D01*
X0025264Y0130726D01*
X0020396Y0164783D02*
X0018953Y0164783D01*
X0018232Y0165504D01*
X0018232Y0168389D01*
X0018953Y0169111D01*
X0020396Y0169111D01*
X0021117Y0168389D01*
X0021117Y0167668D01*
X0020396Y0166947D01*
X0018232Y0166947D01*
X0016767Y0166225D02*
X0015324Y0164783D01*
X0013882Y0166225D01*
X0013882Y0169111D01*
X0016767Y0169111D02*
X0016767Y0166225D01*
X0020396Y0164783D02*
X0021117Y0165504D01*
X0022582Y0166947D02*
X0025468Y0166947D01*
X0024025Y0168389D02*
X0024025Y0165504D01*
X0232386Y0159268D02*
X0232386Y0156383D01*
X0233828Y0154940D01*
X0235271Y0156383D01*
X0235271Y0159268D01*
X0236736Y0159268D02*
X0239621Y0159268D01*
X0239621Y0157104D01*
X0238179Y0157826D01*
X0237457Y0157826D01*
X0236736Y0157104D01*
X0236736Y0155662D01*
X0237457Y0154940D01*
X0238900Y0154940D01*
X0239621Y0155662D01*
X0241086Y0157104D02*
X0243971Y0157104D01*
X0242529Y0155662D02*
X0242529Y0158547D01*
X0243047Y0123048D02*
X0244490Y0123048D01*
X0245211Y0122326D01*
X0245211Y0119441D01*
X0244490Y0118720D01*
X0243047Y0118720D01*
X0242326Y0119441D01*
X0242326Y0120884D01*
X0243768Y0120884D01*
X0242326Y0122326D02*
X0243047Y0123048D01*
X0240861Y0123048D02*
X0237975Y0118720D01*
X0237975Y0123048D01*
X0236511Y0123048D02*
X0234347Y0123048D01*
X0233625Y0122326D01*
X0233625Y0119441D01*
X0234347Y0118720D01*
X0236511Y0118720D01*
X0236511Y0123048D01*
X0240861Y0123048D02*
X0240861Y0118720D01*
X0242116Y0094308D02*
X0242116Y0089980D01*
X0243558Y0089980D02*
X0240673Y0089980D01*
X0239208Y0089980D02*
X0236323Y0092865D01*
X0236323Y0093586D01*
X0237044Y0094308D01*
X0238487Y0094308D01*
X0239208Y0093586D01*
X0242116Y0094308D02*
X0243558Y0092865D01*
X0245023Y0092144D02*
X0247908Y0092144D01*
X0246466Y0093586D02*
X0246466Y0090701D01*
X0239208Y0089980D02*
X0236323Y0089980D01*
X0234858Y0091422D02*
X0233415Y0089980D01*
X0231973Y0091422D01*
X0231973Y0094308D01*
X0234858Y0094308D02*
X0234858Y0091422D01*
X0234347Y0058087D02*
X0233625Y0057366D01*
X0233625Y0054480D01*
X0234347Y0053759D01*
X0236511Y0053759D01*
X0236511Y0058087D01*
X0234347Y0058087D01*
X0237975Y0058087D02*
X0237975Y0053759D01*
X0240861Y0058087D01*
X0240861Y0053759D01*
X0242326Y0054480D02*
X0242326Y0055923D01*
X0243768Y0055923D01*
X0242326Y0054480D02*
X0243047Y0053759D01*
X0244490Y0053759D01*
X0245211Y0054480D01*
X0245211Y0057366D01*
X0244490Y0058087D01*
X0243047Y0058087D01*
X0242326Y0057366D01*
X0242116Y0045095D02*
X0242116Y0040767D01*
X0243558Y0040767D02*
X0240673Y0040767D01*
X0239208Y0040767D02*
X0236323Y0043652D01*
X0236323Y0044374D01*
X0237044Y0045095D01*
X0238487Y0045095D01*
X0239208Y0044374D01*
X0242116Y0045095D02*
X0243558Y0043652D01*
X0245023Y0042931D02*
X0247908Y0042931D01*
X0239208Y0040767D02*
X0236323Y0040767D01*
X0234858Y0042210D02*
X0233415Y0040767D01*
X0231973Y0042210D01*
X0231973Y0045095D01*
X0234858Y0045095D02*
X0234858Y0042210D01*
X0234347Y0008875D02*
X0233625Y0008153D01*
X0233625Y0005268D01*
X0234347Y0004546D01*
X0236511Y0004546D01*
X0236511Y0008875D01*
X0234347Y0008875D01*
X0237975Y0008875D02*
X0237975Y0004546D01*
X0240861Y0008875D01*
X0240861Y0004546D01*
X0242326Y0005268D02*
X0242326Y0006711D01*
X0243768Y0006711D01*
X0242326Y0008153D02*
X0243047Y0008875D01*
X0244490Y0008875D01*
X0245211Y0008153D01*
X0245211Y0005268D01*
X0244490Y0004546D01*
X0243047Y0004546D01*
X0242326Y0005268D01*
D11*
X0078817Y0107496D02*
X0078820Y0107738D01*
X0078829Y0107979D01*
X0078844Y0108220D01*
X0078864Y0108461D01*
X0078891Y0108701D01*
X0078924Y0108940D01*
X0078962Y0109179D01*
X0079006Y0109416D01*
X0079056Y0109653D01*
X0079112Y0109888D01*
X0079174Y0110121D01*
X0079241Y0110353D01*
X0079314Y0110584D01*
X0079392Y0110812D01*
X0079477Y0111038D01*
X0079566Y0111263D01*
X0079661Y0111485D01*
X0079762Y0111704D01*
X0079868Y0111922D01*
X0079979Y0112136D01*
X0080096Y0112348D01*
X0080217Y0112556D01*
X0080344Y0112762D01*
X0080476Y0112964D01*
X0080613Y0113164D01*
X0080754Y0113359D01*
X0080900Y0113552D01*
X0081051Y0113740D01*
X0081207Y0113925D01*
X0081367Y0114106D01*
X0081531Y0114283D01*
X0081700Y0114456D01*
X0081873Y0114625D01*
X0082050Y0114789D01*
X0082231Y0114949D01*
X0082416Y0115105D01*
X0082604Y0115256D01*
X0082797Y0115402D01*
X0082992Y0115543D01*
X0083192Y0115680D01*
X0083394Y0115812D01*
X0083600Y0115939D01*
X0083808Y0116060D01*
X0084020Y0116177D01*
X0084234Y0116288D01*
X0084452Y0116394D01*
X0084671Y0116495D01*
X0084893Y0116590D01*
X0085118Y0116679D01*
X0085344Y0116764D01*
X0085572Y0116842D01*
X0085803Y0116915D01*
X0086035Y0116982D01*
X0086268Y0117044D01*
X0086503Y0117100D01*
X0086740Y0117150D01*
X0086977Y0117194D01*
X0087216Y0117232D01*
X0087455Y0117265D01*
X0087695Y0117292D01*
X0087936Y0117312D01*
X0088177Y0117327D01*
X0088418Y0117336D01*
X0088660Y0117339D01*
X0088902Y0117336D01*
X0089143Y0117327D01*
X0089384Y0117312D01*
X0089625Y0117292D01*
X0089865Y0117265D01*
X0090104Y0117232D01*
X0090343Y0117194D01*
X0090580Y0117150D01*
X0090817Y0117100D01*
X0091052Y0117044D01*
X0091285Y0116982D01*
X0091517Y0116915D01*
X0091748Y0116842D01*
X0091976Y0116764D01*
X0092202Y0116679D01*
X0092427Y0116590D01*
X0092649Y0116495D01*
X0092868Y0116394D01*
X0093086Y0116288D01*
X0093300Y0116177D01*
X0093512Y0116060D01*
X0093720Y0115939D01*
X0093926Y0115812D01*
X0094128Y0115680D01*
X0094328Y0115543D01*
X0094523Y0115402D01*
X0094716Y0115256D01*
X0094904Y0115105D01*
X0095089Y0114949D01*
X0095270Y0114789D01*
X0095447Y0114625D01*
X0095620Y0114456D01*
X0095789Y0114283D01*
X0095953Y0114106D01*
X0096113Y0113925D01*
X0096269Y0113740D01*
X0096420Y0113552D01*
X0096566Y0113359D01*
X0096707Y0113164D01*
X0096844Y0112964D01*
X0096976Y0112762D01*
X0097103Y0112556D01*
X0097224Y0112348D01*
X0097341Y0112136D01*
X0097452Y0111922D01*
X0097558Y0111704D01*
X0097659Y0111485D01*
X0097754Y0111263D01*
X0097843Y0111038D01*
X0097928Y0110812D01*
X0098006Y0110584D01*
X0098079Y0110353D01*
X0098146Y0110121D01*
X0098208Y0109888D01*
X0098264Y0109653D01*
X0098314Y0109416D01*
X0098358Y0109179D01*
X0098396Y0108940D01*
X0098429Y0108701D01*
X0098456Y0108461D01*
X0098476Y0108220D01*
X0098491Y0107979D01*
X0098500Y0107738D01*
X0098503Y0107496D01*
X0098500Y0107254D01*
X0098491Y0107013D01*
X0098476Y0106772D01*
X0098456Y0106531D01*
X0098429Y0106291D01*
X0098396Y0106052D01*
X0098358Y0105813D01*
X0098314Y0105576D01*
X0098264Y0105339D01*
X0098208Y0105104D01*
X0098146Y0104871D01*
X0098079Y0104639D01*
X0098006Y0104408D01*
X0097928Y0104180D01*
X0097843Y0103954D01*
X0097754Y0103729D01*
X0097659Y0103507D01*
X0097558Y0103288D01*
X0097452Y0103070D01*
X0097341Y0102856D01*
X0097224Y0102644D01*
X0097103Y0102436D01*
X0096976Y0102230D01*
X0096844Y0102028D01*
X0096707Y0101828D01*
X0096566Y0101633D01*
X0096420Y0101440D01*
X0096269Y0101252D01*
X0096113Y0101067D01*
X0095953Y0100886D01*
X0095789Y0100709D01*
X0095620Y0100536D01*
X0095447Y0100367D01*
X0095270Y0100203D01*
X0095089Y0100043D01*
X0094904Y0099887D01*
X0094716Y0099736D01*
X0094523Y0099590D01*
X0094328Y0099449D01*
X0094128Y0099312D01*
X0093926Y0099180D01*
X0093720Y0099053D01*
X0093512Y0098932D01*
X0093300Y0098815D01*
X0093086Y0098704D01*
X0092868Y0098598D01*
X0092649Y0098497D01*
X0092427Y0098402D01*
X0092202Y0098313D01*
X0091976Y0098228D01*
X0091748Y0098150D01*
X0091517Y0098077D01*
X0091285Y0098010D01*
X0091052Y0097948D01*
X0090817Y0097892D01*
X0090580Y0097842D01*
X0090343Y0097798D01*
X0090104Y0097760D01*
X0089865Y0097727D01*
X0089625Y0097700D01*
X0089384Y0097680D01*
X0089143Y0097665D01*
X0088902Y0097656D01*
X0088660Y0097653D01*
X0088418Y0097656D01*
X0088177Y0097665D01*
X0087936Y0097680D01*
X0087695Y0097700D01*
X0087455Y0097727D01*
X0087216Y0097760D01*
X0086977Y0097798D01*
X0086740Y0097842D01*
X0086503Y0097892D01*
X0086268Y0097948D01*
X0086035Y0098010D01*
X0085803Y0098077D01*
X0085572Y0098150D01*
X0085344Y0098228D01*
X0085118Y0098313D01*
X0084893Y0098402D01*
X0084671Y0098497D01*
X0084452Y0098598D01*
X0084234Y0098704D01*
X0084020Y0098815D01*
X0083808Y0098932D01*
X0083600Y0099053D01*
X0083394Y0099180D01*
X0083192Y0099312D01*
X0082992Y0099449D01*
X0082797Y0099590D01*
X0082604Y0099736D01*
X0082416Y0099887D01*
X0082231Y0100043D01*
X0082050Y0100203D01*
X0081873Y0100367D01*
X0081700Y0100536D01*
X0081531Y0100709D01*
X0081367Y0100886D01*
X0081207Y0101067D01*
X0081051Y0101252D01*
X0080900Y0101440D01*
X0080754Y0101633D01*
X0080613Y0101828D01*
X0080476Y0102028D01*
X0080344Y0102230D01*
X0080217Y0102436D01*
X0080096Y0102644D01*
X0079979Y0102856D01*
X0079868Y0103070D01*
X0079762Y0103288D01*
X0079661Y0103507D01*
X0079566Y0103729D01*
X0079477Y0103954D01*
X0079392Y0104180D01*
X0079314Y0104408D01*
X0079241Y0104639D01*
X0079174Y0104871D01*
X0079112Y0105104D01*
X0079056Y0105339D01*
X0079006Y0105576D01*
X0078962Y0105813D01*
X0078924Y0106052D01*
X0078891Y0106291D01*
X0078864Y0106531D01*
X0078844Y0106772D01*
X0078829Y0107013D01*
X0078820Y0107254D01*
X0078817Y0107496D01*
X0055195Y0107496D02*
X0055198Y0107738D01*
X0055207Y0107979D01*
X0055222Y0108220D01*
X0055242Y0108461D01*
X0055269Y0108701D01*
X0055302Y0108940D01*
X0055340Y0109179D01*
X0055384Y0109416D01*
X0055434Y0109653D01*
X0055490Y0109888D01*
X0055552Y0110121D01*
X0055619Y0110353D01*
X0055692Y0110584D01*
X0055770Y0110812D01*
X0055855Y0111038D01*
X0055944Y0111263D01*
X0056039Y0111485D01*
X0056140Y0111704D01*
X0056246Y0111922D01*
X0056357Y0112136D01*
X0056474Y0112348D01*
X0056595Y0112556D01*
X0056722Y0112762D01*
X0056854Y0112964D01*
X0056991Y0113164D01*
X0057132Y0113359D01*
X0057278Y0113552D01*
X0057429Y0113740D01*
X0057585Y0113925D01*
X0057745Y0114106D01*
X0057909Y0114283D01*
X0058078Y0114456D01*
X0058251Y0114625D01*
X0058428Y0114789D01*
X0058609Y0114949D01*
X0058794Y0115105D01*
X0058982Y0115256D01*
X0059175Y0115402D01*
X0059370Y0115543D01*
X0059570Y0115680D01*
X0059772Y0115812D01*
X0059978Y0115939D01*
X0060186Y0116060D01*
X0060398Y0116177D01*
X0060612Y0116288D01*
X0060830Y0116394D01*
X0061049Y0116495D01*
X0061271Y0116590D01*
X0061496Y0116679D01*
X0061722Y0116764D01*
X0061950Y0116842D01*
X0062181Y0116915D01*
X0062413Y0116982D01*
X0062646Y0117044D01*
X0062881Y0117100D01*
X0063118Y0117150D01*
X0063355Y0117194D01*
X0063594Y0117232D01*
X0063833Y0117265D01*
X0064073Y0117292D01*
X0064314Y0117312D01*
X0064555Y0117327D01*
X0064796Y0117336D01*
X0065038Y0117339D01*
X0065280Y0117336D01*
X0065521Y0117327D01*
X0065762Y0117312D01*
X0066003Y0117292D01*
X0066243Y0117265D01*
X0066482Y0117232D01*
X0066721Y0117194D01*
X0066958Y0117150D01*
X0067195Y0117100D01*
X0067430Y0117044D01*
X0067663Y0116982D01*
X0067895Y0116915D01*
X0068126Y0116842D01*
X0068354Y0116764D01*
X0068580Y0116679D01*
X0068805Y0116590D01*
X0069027Y0116495D01*
X0069246Y0116394D01*
X0069464Y0116288D01*
X0069678Y0116177D01*
X0069890Y0116060D01*
X0070098Y0115939D01*
X0070304Y0115812D01*
X0070506Y0115680D01*
X0070706Y0115543D01*
X0070901Y0115402D01*
X0071094Y0115256D01*
X0071282Y0115105D01*
X0071467Y0114949D01*
X0071648Y0114789D01*
X0071825Y0114625D01*
X0071998Y0114456D01*
X0072167Y0114283D01*
X0072331Y0114106D01*
X0072491Y0113925D01*
X0072647Y0113740D01*
X0072798Y0113552D01*
X0072944Y0113359D01*
X0073085Y0113164D01*
X0073222Y0112964D01*
X0073354Y0112762D01*
X0073481Y0112556D01*
X0073602Y0112348D01*
X0073719Y0112136D01*
X0073830Y0111922D01*
X0073936Y0111704D01*
X0074037Y0111485D01*
X0074132Y0111263D01*
X0074221Y0111038D01*
X0074306Y0110812D01*
X0074384Y0110584D01*
X0074457Y0110353D01*
X0074524Y0110121D01*
X0074586Y0109888D01*
X0074642Y0109653D01*
X0074692Y0109416D01*
X0074736Y0109179D01*
X0074774Y0108940D01*
X0074807Y0108701D01*
X0074834Y0108461D01*
X0074854Y0108220D01*
X0074869Y0107979D01*
X0074878Y0107738D01*
X0074881Y0107496D01*
X0074878Y0107254D01*
X0074869Y0107013D01*
X0074854Y0106772D01*
X0074834Y0106531D01*
X0074807Y0106291D01*
X0074774Y0106052D01*
X0074736Y0105813D01*
X0074692Y0105576D01*
X0074642Y0105339D01*
X0074586Y0105104D01*
X0074524Y0104871D01*
X0074457Y0104639D01*
X0074384Y0104408D01*
X0074306Y0104180D01*
X0074221Y0103954D01*
X0074132Y0103729D01*
X0074037Y0103507D01*
X0073936Y0103288D01*
X0073830Y0103070D01*
X0073719Y0102856D01*
X0073602Y0102644D01*
X0073481Y0102436D01*
X0073354Y0102230D01*
X0073222Y0102028D01*
X0073085Y0101828D01*
X0072944Y0101633D01*
X0072798Y0101440D01*
X0072647Y0101252D01*
X0072491Y0101067D01*
X0072331Y0100886D01*
X0072167Y0100709D01*
X0071998Y0100536D01*
X0071825Y0100367D01*
X0071648Y0100203D01*
X0071467Y0100043D01*
X0071282Y0099887D01*
X0071094Y0099736D01*
X0070901Y0099590D01*
X0070706Y0099449D01*
X0070506Y0099312D01*
X0070304Y0099180D01*
X0070098Y0099053D01*
X0069890Y0098932D01*
X0069678Y0098815D01*
X0069464Y0098704D01*
X0069246Y0098598D01*
X0069027Y0098497D01*
X0068805Y0098402D01*
X0068580Y0098313D01*
X0068354Y0098228D01*
X0068126Y0098150D01*
X0067895Y0098077D01*
X0067663Y0098010D01*
X0067430Y0097948D01*
X0067195Y0097892D01*
X0066958Y0097842D01*
X0066721Y0097798D01*
X0066482Y0097760D01*
X0066243Y0097727D01*
X0066003Y0097700D01*
X0065762Y0097680D01*
X0065521Y0097665D01*
X0065280Y0097656D01*
X0065038Y0097653D01*
X0064796Y0097656D01*
X0064555Y0097665D01*
X0064314Y0097680D01*
X0064073Y0097700D01*
X0063833Y0097727D01*
X0063594Y0097760D01*
X0063355Y0097798D01*
X0063118Y0097842D01*
X0062881Y0097892D01*
X0062646Y0097948D01*
X0062413Y0098010D01*
X0062181Y0098077D01*
X0061950Y0098150D01*
X0061722Y0098228D01*
X0061496Y0098313D01*
X0061271Y0098402D01*
X0061049Y0098497D01*
X0060830Y0098598D01*
X0060612Y0098704D01*
X0060398Y0098815D01*
X0060186Y0098932D01*
X0059978Y0099053D01*
X0059772Y0099180D01*
X0059570Y0099312D01*
X0059370Y0099449D01*
X0059175Y0099590D01*
X0058982Y0099736D01*
X0058794Y0099887D01*
X0058609Y0100043D01*
X0058428Y0100203D01*
X0058251Y0100367D01*
X0058078Y0100536D01*
X0057909Y0100709D01*
X0057745Y0100886D01*
X0057585Y0101067D01*
X0057429Y0101252D01*
X0057278Y0101440D01*
X0057132Y0101633D01*
X0056991Y0101828D01*
X0056854Y0102028D01*
X0056722Y0102230D01*
X0056595Y0102436D01*
X0056474Y0102644D01*
X0056357Y0102856D01*
X0056246Y0103070D01*
X0056140Y0103288D01*
X0056039Y0103507D01*
X0055944Y0103729D01*
X0055855Y0103954D01*
X0055770Y0104180D01*
X0055692Y0104408D01*
X0055619Y0104639D01*
X0055552Y0104871D01*
X0055490Y0105104D01*
X0055434Y0105339D01*
X0055384Y0105576D01*
X0055340Y0105813D01*
X0055302Y0106052D01*
X0055269Y0106291D01*
X0055242Y0106531D01*
X0055222Y0106772D01*
X0055207Y0107013D01*
X0055198Y0107254D01*
X0055195Y0107496D01*
D12*
X0061295Y0102191D02*
X0061295Y0112811D01*
X0068375Y0112811D02*
X0068375Y0102191D01*
X0064835Y0105731D01*
X0061295Y0102191D01*
D13*
X0008098Y0044507D02*
X0008098Y0041017D01*
X0008098Y0044507D02*
X0005772Y0046834D01*
X0005772Y0047997D01*
X0006578Y0050859D02*
X0008905Y0050859D01*
X0007741Y0050859D02*
X0007741Y0057839D01*
X0006578Y0057839D02*
X0008905Y0057839D01*
X0011412Y0057839D02*
X0013738Y0057839D01*
X0012575Y0057839D02*
X0012575Y0050859D01*
X0013738Y0050859D02*
X0011412Y0050859D01*
X0010425Y0047997D02*
X0010425Y0046834D01*
X0008098Y0044507D01*
X0013022Y0041017D02*
X0017675Y0041017D01*
X0017675Y0047997D01*
X0020272Y0046834D02*
X0020272Y0044507D01*
X0021436Y0043344D01*
X0024926Y0043344D01*
X0024926Y0041017D02*
X0024926Y0047997D01*
X0021436Y0047997D01*
X0020272Y0046834D01*
X0020989Y0050859D02*
X0020989Y0057839D01*
X0023586Y0057839D02*
X0023586Y0050859D01*
X0020989Y0053186D02*
X0016335Y0057839D01*
X0019825Y0054349D02*
X0016335Y0050859D01*
X0023586Y0057839D02*
X0025912Y0055513D01*
X0028239Y0057839D01*
X0028239Y0050859D01*
X0030836Y0050859D02*
X0035489Y0050859D01*
X0033163Y0050859D02*
X0033163Y0057839D01*
X0035489Y0055513D01*
X0038086Y0055513D02*
X0038086Y0050859D01*
X0038086Y0054349D02*
X0042739Y0054349D01*
X0042739Y0055513D02*
X0042739Y0050859D01*
X0043186Y0047997D02*
X0045513Y0047997D01*
X0046676Y0046834D01*
X0046676Y0045670D01*
X0045513Y0044507D01*
X0043186Y0044507D01*
X0042023Y0043344D01*
X0042023Y0042180D01*
X0043186Y0041017D01*
X0045513Y0041017D01*
X0046676Y0042180D01*
X0042023Y0046834D02*
X0043186Y0047997D01*
X0039426Y0047997D02*
X0039426Y0042180D01*
X0038263Y0041017D01*
X0035936Y0041017D01*
X0034773Y0042180D01*
X0034773Y0047997D01*
X0032176Y0047997D02*
X0028686Y0047997D01*
X0027523Y0046834D01*
X0027523Y0044507D01*
X0028686Y0043344D01*
X0032176Y0043344D01*
X0032176Y0041017D02*
X0032176Y0047997D01*
X0038086Y0055513D02*
X0040413Y0057839D01*
X0042739Y0055513D01*
X0045336Y0057839D02*
X0049990Y0050859D01*
X0052587Y0050859D02*
X0057240Y0050859D01*
X0054913Y0050859D02*
X0054913Y0057839D01*
X0057240Y0055513D01*
X0059837Y0055513D02*
X0059837Y0050859D01*
X0059837Y0054349D02*
X0064490Y0054349D01*
X0064490Y0055513D02*
X0064490Y0050859D01*
X0067087Y0054349D02*
X0071741Y0054349D01*
X0074338Y0053186D02*
X0074338Y0052023D01*
X0075501Y0050859D01*
X0077828Y0050859D01*
X0078991Y0052023D01*
X0077828Y0054349D02*
X0075501Y0054349D01*
X0074338Y0053186D01*
X0074338Y0056676D02*
X0075501Y0057839D01*
X0077828Y0057839D01*
X0078991Y0056676D01*
X0078991Y0055513D01*
X0077828Y0054349D01*
X0081588Y0057839D02*
X0086241Y0057839D01*
X0086241Y0050859D01*
X0086241Y0054349D02*
X0083915Y0054349D01*
X0081765Y0047997D02*
X0079438Y0047997D01*
X0078275Y0046834D01*
X0078275Y0042180D01*
X0079438Y0041017D01*
X0081765Y0041017D01*
X0082928Y0042180D01*
X0082928Y0046834D01*
X0081765Y0047997D01*
X0085525Y0046834D02*
X0085525Y0044507D01*
X0086688Y0043344D01*
X0090178Y0043344D01*
X0090178Y0041017D02*
X0090178Y0047997D01*
X0086688Y0047997D01*
X0085525Y0046834D01*
X0075678Y0047997D02*
X0075678Y0041017D01*
X0073351Y0043344D01*
X0071024Y0041017D01*
X0071024Y0047997D01*
X0068427Y0047997D02*
X0068427Y0041017D01*
X0063774Y0041017D01*
X0061177Y0041017D02*
X0061177Y0047997D01*
X0057687Y0047997D01*
X0056524Y0046834D01*
X0056524Y0044507D01*
X0057687Y0043344D01*
X0061177Y0043344D01*
X0058850Y0043344D02*
X0056524Y0041017D01*
X0063774Y0047997D02*
X0068427Y0047997D01*
X0068427Y0044507D02*
X0066101Y0044507D01*
X0064490Y0055513D02*
X0062164Y0057839D01*
X0059837Y0055513D01*
D14*
X0082052Y0103075D02*
X0083527Y0104550D01*
X0083527Y0110450D01*
X0085002Y0108975D02*
X0082052Y0108975D01*
X0088165Y0110450D02*
X0088165Y0107500D01*
X0089640Y0106025D01*
X0094065Y0106025D01*
X0094065Y0103075D02*
X0094065Y0111925D01*
X0089640Y0111925D01*
X0088165Y0110450D01*
D15*
X0227576Y0102725D02*
X0230002Y0102725D01*
X0231208Y0102725D02*
X0231815Y0102725D01*
X0231815Y0103331D01*
X0231208Y0103331D01*
X0231208Y0102725D01*
X0233013Y0102725D02*
X0235440Y0102725D01*
X0234227Y0102725D02*
X0234227Y0106365D01*
X0235440Y0105152D01*
X0240266Y0105152D02*
X0240873Y0105152D01*
X0242086Y0103938D01*
X0243285Y0103938D02*
X0245711Y0103938D01*
X0245711Y0103331D02*
X0245711Y0104545D01*
X0245105Y0105152D01*
X0243891Y0105152D01*
X0243285Y0104545D01*
X0243285Y0103938D01*
X0243891Y0102725D02*
X0245105Y0102725D01*
X0245711Y0103331D01*
X0246910Y0103938D02*
X0246910Y0106365D01*
X0249336Y0106365D02*
X0249336Y0103938D01*
X0248123Y0102725D01*
X0246910Y0103938D01*
X0242086Y0102725D02*
X0242086Y0105152D01*
X0241758Y0109615D02*
X0240545Y0109615D01*
X0239938Y0110221D01*
X0239938Y0111435D01*
X0240545Y0112041D01*
X0241758Y0112041D01*
X0242365Y0111435D01*
X0242365Y0110221D01*
X0241758Y0109615D01*
X0243563Y0110221D02*
X0244170Y0109615D01*
X0245990Y0109615D01*
X0245990Y0113255D01*
X0244170Y0113255D01*
X0243563Y0112648D01*
X0243563Y0112041D01*
X0244170Y0111435D01*
X0245990Y0111435D01*
X0244170Y0111435D02*
X0243563Y0110828D01*
X0243563Y0110221D01*
X0238740Y0110221D02*
X0238133Y0110828D01*
X0236313Y0110828D01*
X0236313Y0111435D02*
X0236313Y0109615D01*
X0238133Y0109615D01*
X0238740Y0110221D01*
X0238133Y0112041D02*
X0236920Y0112041D01*
X0236313Y0111435D01*
X0235115Y0112041D02*
X0235115Y0109615D01*
X0235115Y0110828D02*
X0233901Y0112041D01*
X0233295Y0112041D01*
X0232094Y0111435D02*
X0231487Y0112041D01*
X0229667Y0112041D01*
X0229667Y0113255D02*
X0229667Y0109615D01*
X0231487Y0109615D01*
X0232094Y0110221D01*
X0232094Y0111435D01*
X0228789Y0106365D02*
X0228789Y0102725D01*
X0230002Y0105152D02*
X0228789Y0106365D01*
M02*
